<?xml version="1.0" encoding="utf-8" standalone="no"?>
<!DOCTYPE svg PUBLIC "-//W3C//DTD SVG 1.1//EN"
  "http://www.w3.org/Graphics/SVG/1.1/DTD/svg11.dtd">
<!-- Created with matplotlib (http://matplotlib.org/) -->
<svg height="648pt" version="1.1" viewBox="0 0 648 648" width="648pt" xmlns="http://www.w3.org/2000/svg" xmlns:xlink="http://www.w3.org/1999/xlink">
 <defs>
  <style type="text/css">
*{stroke-linecap:butt;stroke-linejoin:round;stroke-miterlimit:100000;}
  </style>
 </defs>
 <g id="figure_1">
  <g id="patch_1">
   <path d="M 0 648 
L 648 648 
L 648 0 
L 0 0 
z
" style="fill:#ffffff;"/>
  </g>
  <g id="axes_1">
   <g id="patch_2">
    <path d="M 332.1 575.1 
C 398.692498 575.1 462.566506 548.64252 509.654513 501.554513 
C 556.74252 454.466506 583.2 390.592498 583.2 324 
C 583.2 257.407502 556.74252 193.533494 509.654513 146.445487 
C 462.566506 99.35748 398.692498 72.9 332.1 72.9 
C 265.507502 72.9 201.633494 99.35748 154.545487 146.445487 
C 107.45748 193.533494 81 257.407502 81 324 
C 81 390.592498 107.45748 454.466506 154.545487 501.554513 
C 201.633494 548.64252 265.507502 575.1 332.1 575.1 
z
" style="fill:#ffffff;"/>
   </g>
   <g id="patch_3">
    <path clip-path="url(#p5c48678cc7)" d="M 332.1 116.221133 
L 256.811727 92.286523 
L 212.709961 159.673709 
L 206.8014 232.965239 
L 121.930938 255.711932 
L 87.189824 324 
L 201.388384 366.470778 
L 132.542721 468.98685 
L 332.1 324 
L 316.496612 372.022291 
L 332.1 334.094759 
L 375.731906 458.285197 
L 385.802316 397.914897 
L 411.11871 381.410453 
L 457.604094 364.778752 
L 391.702399 324 
L 570.910291 246.405833 
L 483.852622 213.745266 
L 364.059951 280.010901 
L 406.434125 95.223086 
z
" style="fill:#0000ff;opacity:0.25;stroke:#000000;stroke-linejoin:miter;"/>
   </g>
   <g id="line2d_1">
    <path clip-path="url(#p5c48678cc7)" d="M 332.1 116.221133 
L 256.811727 92.286523 
L 212.709961 159.673709 
L 206.8014 232.965239 
L 121.930938 255.711932 
L 87.189824 324 
L 201.388384 366.470778 
L 132.542721 468.98685 
L 332.1 324 
L 316.496612 372.022291 
L 332.1 334.094759 
L 375.731906 458.285197 
L 385.802316 397.914897 
L 411.11871 381.410453 
L 457.604094 364.778752 
L 391.702399 324 
L 570.910291 246.405833 
L 483.852622 213.745266 
L 364.059951 280.010901 
L 406.434125 95.223086 
L 332.1 116.221133 
" style="fill:none;stroke:#0000ff;stroke-linecap:square;"/>
   </g>
   <g id="patch_4">
    <path d="M 332.1 575.1 
C 398.692498 575.1 462.566506 548.64252 509.654513 501.554513 
C 556.74252 454.466506 583.2 390.592498 583.2 324 
C 583.2 257.407502 556.74252 193.533494 509.654513 146.445487 
C 462.566506 99.35748 398.692498 72.9 332.1 72.9 
C 265.507502 72.9 201.633494 99.35748 154.545487 146.445487 
C 107.45748 193.533494 81 257.407502 81 324 
C 81 390.592498 107.45748 454.466506 154.545487 501.554513 
C 201.633494 548.64252 265.507502 575.1 332.1 575.1 
L 332.1 575.1 
z
" style="fill:none;stroke:#000000;stroke-linecap:square;stroke-linejoin:miter;"/>
   </g>
   <g id="matplotlib.axis_1">
    <g id="xtick_1">
     <g id="line2d_2">
      <path clip-path="url(#p5c48678cc7)" d="M 332.1 324 
L 332.1 72.9 
" style="fill:none;stroke:#000000;stroke-dasharray:1.000000,3.000000;stroke-dashoffset:0.0;stroke-width:0.5;"/>
     </g>
     <g id="text_1">
      <!-- candor -->
      <defs>
       <path d="M 54.890625 33.015625 
L 54.890625 0 
L 45.90625 0 
L 45.90625 32.71875 
Q 45.90625 40.484375 42.875 44.328125 
Q 39.84375 48.1875 33.796875 48.1875 
Q 26.515625 48.1875 22.3125 43.546875 
Q 18.109375 38.921875 18.109375 30.90625 
L 18.109375 0 
L 9.078125 0 
L 9.078125 54.6875 
L 18.109375 54.6875 
L 18.109375 46.1875 
Q 21.34375 51.125 25.703125 53.5625 
Q 30.078125 56 35.796875 56 
Q 45.21875 56 50.046875 50.171875 
Q 54.890625 44.34375 54.890625 33.015625 
" id="BitstreamVeraSans-Roman-6e"/>
       <path d="M 41.109375 46.296875 
Q 39.59375 47.171875 37.8125 47.578125 
Q 36.03125 48 33.890625 48 
Q 26.265625 48 22.1875 43.046875 
Q 18.109375 38.09375 18.109375 28.8125 
L 18.109375 0 
L 9.078125 0 
L 9.078125 54.6875 
L 18.109375 54.6875 
L 18.109375 46.1875 
Q 20.953125 51.171875 25.484375 53.578125 
Q 30.03125 56 36.53125 56 
Q 37.453125 56 38.578125 55.875 
Q 39.703125 55.765625 41.0625 55.515625 
z
" id="BitstreamVeraSans-Roman-72"/>
       <path d="M 30.609375 48.390625 
Q 23.390625 48.390625 19.1875 42.75 
Q 14.984375 37.109375 14.984375 27.296875 
Q 14.984375 17.484375 19.15625 11.84375 
Q 23.34375 6.203125 30.609375 6.203125 
Q 37.796875 6.203125 41.984375 11.859375 
Q 46.1875 17.53125 46.1875 27.296875 
Q 46.1875 37.015625 41.984375 42.703125 
Q 37.796875 48.390625 30.609375 48.390625 
M 30.609375 56 
Q 42.328125 56 49.015625 48.375 
Q 55.71875 40.765625 55.71875 27.296875 
Q 55.71875 13.875 49.015625 6.21875 
Q 42.328125 -1.421875 30.609375 -1.421875 
Q 18.84375 -1.421875 12.171875 6.21875 
Q 5.515625 13.875 5.515625 27.296875 
Q 5.515625 40.765625 12.171875 48.375 
Q 18.84375 56 30.609375 56 
" id="BitstreamVeraSans-Roman-6f"/>
       <path d="M 45.40625 46.390625 
L 45.40625 75.984375 
L 54.390625 75.984375 
L 54.390625 0 
L 45.40625 0 
L 45.40625 8.203125 
Q 42.578125 3.328125 38.25 0.953125 
Q 33.9375 -1.421875 27.875 -1.421875 
Q 17.96875 -1.421875 11.734375 6.484375 
Q 5.515625 14.40625 5.515625 27.296875 
Q 5.515625 40.1875 11.734375 48.09375 
Q 17.96875 56 27.875 56 
Q 33.9375 56 38.25 53.625 
Q 42.578125 51.265625 45.40625 46.390625 
M 14.796875 27.296875 
Q 14.796875 17.390625 18.875 11.75 
Q 22.953125 6.109375 30.078125 6.109375 
Q 37.203125 6.109375 41.296875 11.75 
Q 45.40625 17.390625 45.40625 27.296875 
Q 45.40625 37.203125 41.296875 42.84375 
Q 37.203125 48.484375 30.078125 48.484375 
Q 22.953125 48.484375 18.875 42.84375 
Q 14.796875 37.203125 14.796875 27.296875 
" id="BitstreamVeraSans-Roman-64"/>
       <path d="M 34.28125 27.484375 
Q 23.390625 27.484375 19.1875 25 
Q 14.984375 22.515625 14.984375 16.5 
Q 14.984375 11.71875 18.140625 8.90625 
Q 21.296875 6.109375 26.703125 6.109375 
Q 34.1875 6.109375 38.703125 11.40625 
Q 43.21875 16.703125 43.21875 25.484375 
L 43.21875 27.484375 
z
M 52.203125 31.203125 
L 52.203125 0 
L 43.21875 0 
L 43.21875 8.296875 
Q 40.140625 3.328125 35.546875 0.953125 
Q 30.953125 -1.421875 24.3125 -1.421875 
Q 15.921875 -1.421875 10.953125 3.296875 
Q 6 8.015625 6 15.921875 
Q 6 25.140625 12.171875 29.828125 
Q 18.359375 34.515625 30.609375 34.515625 
L 43.21875 34.515625 
L 43.21875 35.40625 
Q 43.21875 41.609375 39.140625 45 
Q 35.0625 48.390625 27.6875 48.390625 
Q 23 48.390625 18.546875 47.265625 
Q 14.109375 46.140625 10.015625 43.890625 
L 10.015625 52.203125 
Q 14.9375 54.109375 19.578125 55.046875 
Q 24.21875 56 28.609375 56 
Q 40.484375 56 46.34375 49.84375 
Q 52.203125 43.703125 52.203125 31.203125 
" id="BitstreamVeraSans-Roman-61"/>
       <path d="M 48.78125 52.59375 
L 48.78125 44.1875 
Q 44.96875 46.296875 41.140625 47.34375 
Q 37.3125 48.390625 33.40625 48.390625 
Q 24.65625 48.390625 19.8125 42.84375 
Q 14.984375 37.3125 14.984375 27.296875 
Q 14.984375 17.28125 19.8125 11.734375 
Q 24.65625 6.203125 33.40625 6.203125 
Q 37.3125 6.203125 41.140625 7.25 
Q 44.96875 8.296875 48.78125 10.40625 
L 48.78125 2.09375 
Q 45.015625 0.34375 40.984375 -0.53125 
Q 36.96875 -1.421875 32.421875 -1.421875 
Q 20.0625 -1.421875 12.78125 6.34375 
Q 5.515625 14.109375 5.515625 27.296875 
Q 5.515625 40.671875 12.859375 48.328125 
Q 20.21875 56 33.015625 56 
Q 37.15625 56 41.109375 55.140625 
Q 45.0625 54.296875 48.78125 52.59375 
" id="BitstreamVeraSans-Roman-63"/>
      </defs>
      <g transform="translate(311.3746875 51.10125)scale(0.12 -0.12)">
       <use xlink:href="#BitstreamVeraSans-Roman-63"/>
       <use x="54.98046875" xlink:href="#BitstreamVeraSans-Roman-61"/>
       <use x="116.259765625" xlink:href="#BitstreamVeraSans-Roman-6e"/>
       <use x="179.638671875" xlink:href="#BitstreamVeraSans-Roman-64"/>
       <use x="243.115234375" xlink:href="#BitstreamVeraSans-Roman-6f"/>
       <use x="304.296875" xlink:href="#BitstreamVeraSans-Roman-72"/>
      </g>
     </g>
    </g>
    <g id="xtick_2">
     <g id="line2d_3">
      <path clip-path="url(#p5c48678cc7)" d="M 332.1 324 
L 254.505833 85.189709 
" style="fill:none;stroke:#000000;stroke-dasharray:1.000000,3.000000;stroke-dashoffset:0.0;stroke-width:0.5;"/>
     </g>
     <g id="text_2">
      <!-- sensuality -->
      <defs>
       <path d="M 9.421875 75.984375 
L 18.40625 75.984375 
L 18.40625 0 
L 9.421875 0 
z
" id="BitstreamVeraSans-Roman-6c"/>
       <path d="M 9.421875 54.6875 
L 18.40625 54.6875 
L 18.40625 0 
L 9.421875 0 
z
M 9.421875 75.984375 
L 18.40625 75.984375 
L 18.40625 64.59375 
L 9.421875 64.59375 
z
" id="BitstreamVeraSans-Roman-69"/>
       <path d="M 32.171875 -5.078125 
Q 28.375 -14.84375 24.75 -17.8125 
Q 21.140625 -20.796875 15.09375 -20.796875 
L 7.90625 -20.796875 
L 7.90625 -13.28125 
L 13.1875 -13.28125 
Q 16.890625 -13.28125 18.9375 -11.515625 
Q 21 -9.765625 23.484375 -3.21875 
L 25.09375 0.875 
L 2.984375 54.6875 
L 12.5 54.6875 
L 29.59375 11.921875 
L 46.6875 54.6875 
L 56.203125 54.6875 
z
" id="BitstreamVeraSans-Roman-79"/>
       <path d="M 56.203125 29.59375 
L 56.203125 25.203125 
L 14.890625 25.203125 
Q 15.484375 15.921875 20.484375 11.0625 
Q 25.484375 6.203125 34.421875 6.203125 
Q 39.59375 6.203125 44.453125 7.46875 
Q 49.3125 8.734375 54.109375 11.28125 
L 54.109375 2.78125 
Q 49.265625 0.734375 44.1875 -0.34375 
Q 39.109375 -1.421875 33.890625 -1.421875 
Q 20.796875 -1.421875 13.15625 6.1875 
Q 5.515625 13.8125 5.515625 26.8125 
Q 5.515625 40.234375 12.765625 48.109375 
Q 20.015625 56 32.328125 56 
Q 43.359375 56 49.78125 48.890625 
Q 56.203125 41.796875 56.203125 29.59375 
M 47.21875 32.234375 
Q 47.125 39.59375 43.09375 43.984375 
Q 39.0625 48.390625 32.421875 48.390625 
Q 24.90625 48.390625 20.390625 44.140625 
Q 15.875 39.890625 15.1875 32.171875 
z
" id="BitstreamVeraSans-Roman-65"/>
       <path d="M 18.3125 70.21875 
L 18.3125 54.6875 
L 36.8125 54.6875 
L 36.8125 47.703125 
L 18.3125 47.703125 
L 18.3125 18.015625 
Q 18.3125 11.328125 20.140625 9.421875 
Q 21.96875 7.515625 27.59375 7.515625 
L 36.8125 7.515625 
L 36.8125 0 
L 27.59375 0 
Q 17.1875 0 13.234375 3.875 
Q 9.28125 7.765625 9.28125 18.015625 
L 9.28125 47.703125 
L 2.6875 47.703125 
L 2.6875 54.6875 
L 9.28125 54.6875 
L 9.28125 70.21875 
z
" id="BitstreamVeraSans-Roman-74"/>
       <path d="M 8.5 21.578125 
L 8.5 54.6875 
L 17.484375 54.6875 
L 17.484375 21.921875 
Q 17.484375 14.15625 20.5 10.265625 
Q 23.53125 6.390625 29.59375 6.390625 
Q 36.859375 6.390625 41.078125 11.03125 
Q 45.3125 15.671875 45.3125 23.6875 
L 45.3125 54.6875 
L 54.296875 54.6875 
L 54.296875 0 
L 45.3125 0 
L 45.3125 8.40625 
Q 42.046875 3.421875 37.71875 1 
Q 33.40625 -1.421875 27.6875 -1.421875 
Q 18.265625 -1.421875 13.375 4.4375 
Q 8.5 10.296875 8.5 21.578125 
" id="BitstreamVeraSans-Roman-75"/>
       <path d="M 44.28125 53.078125 
L 44.28125 44.578125 
Q 40.484375 46.53125 36.375 47.5 
Q 32.28125 48.484375 27.875 48.484375 
Q 21.1875 48.484375 17.84375 46.4375 
Q 14.5 44.390625 14.5 40.28125 
Q 14.5 37.15625 16.890625 35.375 
Q 19.28125 33.59375 26.515625 31.984375 
L 29.59375 31.296875 
Q 39.15625 29.25 43.1875 25.515625 
Q 47.21875 21.78125 47.21875 15.09375 
Q 47.21875 7.46875 41.1875 3.015625 
Q 35.15625 -1.421875 24.609375 -1.421875 
Q 20.21875 -1.421875 15.453125 -0.5625 
Q 10.6875 0.296875 5.421875 2 
L 5.421875 11.28125 
Q 10.40625 8.6875 15.234375 7.390625 
Q 20.0625 6.109375 24.8125 6.109375 
Q 31.15625 6.109375 34.5625 8.28125 
Q 37.984375 10.453125 37.984375 14.40625 
Q 37.984375 18.0625 35.515625 20.015625 
Q 33.0625 21.96875 24.703125 23.78125 
L 21.578125 24.515625 
Q 13.234375 26.265625 9.515625 29.90625 
Q 5.8125 33.546875 5.8125 39.890625 
Q 5.8125 47.609375 11.28125 51.796875 
Q 16.75 56 26.8125 56 
Q 31.78125 56 36.171875 55.265625 
Q 40.578125 54.546875 44.28125 53.078125 
" id="BitstreamVeraSans-Roman-73"/>
      </defs>
      <g transform="translate(216.284228484 64.6199296341)scale(0.12 -0.12)">
       <use xlink:href="#BitstreamVeraSans-Roman-73"/>
       <use x="52.099609375" xlink:href="#BitstreamVeraSans-Roman-65"/>
       <use x="113.623046875" xlink:href="#BitstreamVeraSans-Roman-6e"/>
       <use x="177.001953125" xlink:href="#BitstreamVeraSans-Roman-73"/>
       <use x="229.1015625" xlink:href="#BitstreamVeraSans-Roman-75"/>
       <use x="292.48046875" xlink:href="#BitstreamVeraSans-Roman-61"/>
       <use x="353.759765625" xlink:href="#BitstreamVeraSans-Roman-6c"/>
       <use x="381.54296875" xlink:href="#BitstreamVeraSans-Roman-69"/>
       <use x="409.326171875" xlink:href="#BitstreamVeraSans-Roman-74"/>
       <use x="448.53515625" xlink:href="#BitstreamVeraSans-Roman-79"/>
      </g>
     </g>
    </g>
    <g id="xtick_3">
     <g id="line2d_4">
      <path clip-path="url(#p5c48678cc7)" d="M 332.1 324 
L 184.507123 120.855833 
" style="fill:none;stroke:#000000;stroke-dasharray:1.000000,3.000000;stroke-dashoffset:0.0;stroke-width:0.5;"/>
     </g>
     <g id="text_3">
      <!-- tenacity -->
      <g transform="translate(145.355022964 103.852665984)scale(0.12 -0.12)">
       <use xlink:href="#BitstreamVeraSans-Roman-74"/>
       <use x="39.208984375" xlink:href="#BitstreamVeraSans-Roman-65"/>
       <use x="100.732421875" xlink:href="#BitstreamVeraSans-Roman-6e"/>
       <use x="164.111328125" xlink:href="#BitstreamVeraSans-Roman-61"/>
       <use x="225.390625" xlink:href="#BitstreamVeraSans-Roman-63"/>
       <use x="280.37109375" xlink:href="#BitstreamVeraSans-Roman-69"/>
       <use x="308.154296875" xlink:href="#BitstreamVeraSans-Roman-74"/>
       <use x="347.36328125" xlink:href="#BitstreamVeraSans-Roman-79"/>
      </g>
     </g>
    </g>
    <g id="xtick_4">
     <g id="line2d_5">
      <path clip-path="url(#p5c48678cc7)" d="M 332.1 324 
L 128.955833 176.407123 
" style="fill:none;stroke:#000000;stroke-dasharray:1.000000,3.000000;stroke-dashoffset:0.0;stroke-width:0.5;"/>
     </g>
     <g id="text_4">
      <!-- cruelty -->
      <g transform="translate(87.8111034837 164.959085464)scale(0.12 -0.12)">
       <use xlink:href="#BitstreamVeraSans-Roman-63"/>
       <use x="54.98046875" xlink:href="#BitstreamVeraSans-Roman-72"/>
       <use x="96.09375" xlink:href="#BitstreamVeraSans-Roman-75"/>
       <use x="159.47265625" xlink:href="#BitstreamVeraSans-Roman-65"/>
       <use x="220.99609375" xlink:href="#BitstreamVeraSans-Roman-6c"/>
       <use x="248.779296875" xlink:href="#BitstreamVeraSans-Roman-74"/>
       <use x="287.98828125" xlink:href="#BitstreamVeraSans-Roman-79"/>
      </g>
     </g>
    </g>
    <g id="xtick_5">
     <g id="line2d_6">
      <path clip-path="url(#p5c48678cc7)" d="M 332.1 324 
L 93.289709 246.405833 
" style="fill:none;stroke:#000000;stroke-dasharray:1.000000,3.000000;stroke-dashoffset:0.0;stroke-width:0.5;"/>
     </g>
     <g id="text_5">
      <!-- loyalty -->
      <g transform="translate(49.2721171341 241.957665984)scale(0.12 -0.12)">
       <use xlink:href="#BitstreamVeraSans-Roman-6c"/>
       <use x="27.783203125" xlink:href="#BitstreamVeraSans-Roman-6f"/>
       <use x="88.96484375" xlink:href="#BitstreamVeraSans-Roman-79"/>
       <use x="148.14453125" xlink:href="#BitstreamVeraSans-Roman-61"/>
       <use x="209.423828125" xlink:href="#BitstreamVeraSans-Roman-6c"/>
       <use x="237.20703125" xlink:href="#BitstreamVeraSans-Roman-74"/>
       <use x="276.416015625" xlink:href="#BitstreamVeraSans-Roman-79"/>
      </g>
     </g>
    </g>
    <g id="xtick_6">
     <g id="line2d_7">
      <path clip-path="url(#p5c48678cc7)" d="M 332.1 324 
L 81 324 
" style="fill:none;stroke:#000000;stroke-dasharray:1.000000,3.000000;stroke-dashoffset:0.0;stroke-width:0.5;"/>
     </g>
     <g id="text_6">
      <!-- imagination -->
      <defs>
       <path d="M 52 44.1875 
Q 55.375 50.25 60.0625 53.125 
Q 64.75 56 71.09375 56 
Q 79.640625 56 84.28125 50.015625 
Q 88.921875 44.046875 88.921875 33.015625 
L 88.921875 0 
L 79.890625 0 
L 79.890625 32.71875 
Q 79.890625 40.578125 77.09375 44.375 
Q 74.3125 48.1875 68.609375 48.1875 
Q 61.625 48.1875 57.5625 43.546875 
Q 53.515625 38.921875 53.515625 30.90625 
L 53.515625 0 
L 44.484375 0 
L 44.484375 32.71875 
Q 44.484375 40.625 41.703125 44.40625 
Q 38.921875 48.1875 33.109375 48.1875 
Q 26.21875 48.1875 22.15625 43.53125 
Q 18.109375 38.875 18.109375 30.90625 
L 18.109375 0 
L 9.078125 0 
L 9.078125 54.6875 
L 18.109375 54.6875 
L 18.109375 46.1875 
Q 21.1875 51.21875 25.484375 53.609375 
Q 29.78125 56 35.6875 56 
Q 41.65625 56 45.828125 52.96875 
Q 50 49.953125 52 44.1875 
" id="BitstreamVeraSans-Roman-6d"/>
       <path d="M 45.40625 27.984375 
Q 45.40625 37.75 41.375 43.109375 
Q 37.359375 48.484375 30.078125 48.484375 
Q 22.859375 48.484375 18.828125 43.109375 
Q 14.796875 37.75 14.796875 27.984375 
Q 14.796875 18.265625 18.828125 12.890625 
Q 22.859375 7.515625 30.078125 7.515625 
Q 37.359375 7.515625 41.375 12.890625 
Q 45.40625 18.265625 45.40625 27.984375 
M 54.390625 6.78125 
Q 54.390625 -7.171875 48.1875 -13.984375 
Q 42 -20.796875 29.203125 -20.796875 
Q 24.46875 -20.796875 20.265625 -20.09375 
Q 16.0625 -19.390625 12.109375 -17.921875 
L 12.109375 -9.1875 
Q 16.0625 -11.328125 19.921875 -12.34375 
Q 23.78125 -13.375 27.78125 -13.375 
Q 36.625 -13.375 41.015625 -8.765625 
Q 45.40625 -4.15625 45.40625 5.171875 
L 45.40625 9.625 
Q 42.625 4.78125 38.28125 2.390625 
Q 33.9375 0 27.875 0 
Q 17.828125 0 11.671875 7.65625 
Q 5.515625 15.328125 5.515625 27.984375 
Q 5.515625 40.671875 11.671875 48.328125 
Q 17.828125 56 27.875 56 
Q 33.9375 56 38.28125 53.609375 
Q 42.625 51.21875 45.40625 46.390625 
L 45.40625 54.6875 
L 54.390625 54.6875 
z
" id="BitstreamVeraSans-Roman-67"/>
      </defs>
      <g transform="translate(20.25375 327.31125)scale(0.12 -0.12)">
       <use xlink:href="#BitstreamVeraSans-Roman-69"/>
       <use x="27.783203125" xlink:href="#BitstreamVeraSans-Roman-6d"/>
       <use x="125.1953125" xlink:href="#BitstreamVeraSans-Roman-61"/>
       <use x="186.474609375" xlink:href="#BitstreamVeraSans-Roman-67"/>
       <use x="249.951171875" xlink:href="#BitstreamVeraSans-Roman-69"/>
       <use x="277.734375" xlink:href="#BitstreamVeraSans-Roman-6e"/>
       <use x="341.11328125" xlink:href="#BitstreamVeraSans-Roman-61"/>
       <use x="402.392578125" xlink:href="#BitstreamVeraSans-Roman-74"/>
       <use x="441.6015625" xlink:href="#BitstreamVeraSans-Roman-69"/>
       <use x="469.384765625" xlink:href="#BitstreamVeraSans-Roman-6f"/>
       <use x="530.56640625" xlink:href="#BitstreamVeraSans-Roman-6e"/>
      </g>
     </g>
    </g>
    <g id="xtick_7">
     <g id="line2d_8">
      <path clip-path="url(#p5c48678cc7)" d="M 332.1 324 
L 93.289709 401.594167 
" style="fill:none;stroke:#000000;stroke-dasharray:1.000000,3.000000;stroke-dashoffset:0.0;stroke-width:0.5;"/>
     </g>
     <g id="text_7">
      <!-- courage -->
      <g transform="translate(44.9914921341 412.664834016)scale(0.12 -0.12)">
       <use xlink:href="#BitstreamVeraSans-Roman-63"/>
       <use x="54.98046875" xlink:href="#BitstreamVeraSans-Roman-6f"/>
       <use x="116.162109375" xlink:href="#BitstreamVeraSans-Roman-75"/>
       <use x="179.541015625" xlink:href="#BitstreamVeraSans-Roman-72"/>
       <use x="220.654296875" xlink:href="#BitstreamVeraSans-Roman-61"/>
       <use x="281.93359375" xlink:href="#BitstreamVeraSans-Roman-67"/>
       <use x="345.41015625" xlink:href="#BitstreamVeraSans-Roman-65"/>
      </g>
     </g>
    </g>
    <g id="xtick_8">
     <g id="line2d_9">
      <path clip-path="url(#p5c48678cc7)" d="M 332.1 324 
L 128.955833 471.592877 
" style="fill:none;stroke:#000000;stroke-dasharray:1.000000,3.000000;stroke-dashoffset:0.0;stroke-width:0.5;"/>
     </g>
     <g id="text_8">
      <!-- charm -->
      <defs>
       <path d="M 54.890625 33.015625 
L 54.890625 0 
L 45.90625 0 
L 45.90625 32.71875 
Q 45.90625 40.484375 42.875 44.328125 
Q 39.84375 48.1875 33.796875 48.1875 
Q 26.515625 48.1875 22.3125 43.546875 
Q 18.109375 38.921875 18.109375 30.90625 
L 18.109375 0 
L 9.078125 0 
L 9.078125 75.984375 
L 18.109375 75.984375 
L 18.109375 46.1875 
Q 21.34375 51.125 25.703125 53.5625 
Q 30.078125 56 35.796875 56 
Q 45.21875 56 50.046875 50.171875 
Q 54.890625 44.34375 54.890625 33.015625 
" id="BitstreamVeraSans-Roman-68"/>
      </defs>
      <g transform="translate(89.5529784837 489.663414536)scale(0.12 -0.12)">
       <use xlink:href="#BitstreamVeraSans-Roman-63"/>
       <use x="54.98046875" xlink:href="#BitstreamVeraSans-Roman-68"/>
       <use x="118.359375" xlink:href="#BitstreamVeraSans-Roman-61"/>
       <use x="179.638671875" xlink:href="#BitstreamVeraSans-Roman-72"/>
       <use x="220.736328125" xlink:href="#BitstreamVeraSans-Roman-6d"/>
      </g>
     </g>
    </g>
    <g id="xtick_9">
     <g id="line2d_10">
      <path clip-path="url(#p5c48678cc7)" d="M 332.1 324 
L 184.507123 527.144167 
" style="fill:none;stroke:#000000;stroke-dasharray:1.000000,3.000000;stroke-dashoffset:0.0;stroke-width:0.5;"/>
     </g>
     <g id="text_9">
      <!-- curiosity -->
      <g transform="translate(144.145647964 550.769834016)scale(0.12 -0.12)">
       <use xlink:href="#BitstreamVeraSans-Roman-63"/>
       <use x="54.98046875" xlink:href="#BitstreamVeraSans-Roman-75"/>
       <use x="118.359375" xlink:href="#BitstreamVeraSans-Roman-72"/>
       <use x="159.47265625" xlink:href="#BitstreamVeraSans-Roman-69"/>
       <use x="187.255859375" xlink:href="#BitstreamVeraSans-Roman-6f"/>
       <use x="248.4375" xlink:href="#BitstreamVeraSans-Roman-73"/>
       <use x="300.537109375" xlink:href="#BitstreamVeraSans-Roman-69"/>
       <use x="328.3203125" xlink:href="#BitstreamVeraSans-Roman-74"/>
       <use x="367.529296875" xlink:href="#BitstreamVeraSans-Roman-79"/>
      </g>
     </g>
    </g>
    <g id="xtick_10">
     <g id="line2d_11">
      <path clip-path="url(#p5c48678cc7)" d="M 332.1 324 
L 254.505833 562.810291 
" style="fill:none;stroke:#000000;stroke-dasharray:1.000000,3.000000;stroke-dashoffset:0.0;stroke-width:0.5;"/>
     </g>
     <g id="text_10">
      <!-- humility -->
      <g transform="translate(222.392978484 590.002570366)scale(0.12 -0.12)">
       <use xlink:href="#BitstreamVeraSans-Roman-68"/>
       <use x="63.37890625" xlink:href="#BitstreamVeraSans-Roman-75"/>
       <use x="126.7578125" xlink:href="#BitstreamVeraSans-Roman-6d"/>
       <use x="224.169921875" xlink:href="#BitstreamVeraSans-Roman-69"/>
       <use x="251.953125" xlink:href="#BitstreamVeraSans-Roman-6c"/>
       <use x="279.736328125" xlink:href="#BitstreamVeraSans-Roman-69"/>
       <use x="307.51953125" xlink:href="#BitstreamVeraSans-Roman-74"/>
       <use x="346.728515625" xlink:href="#BitstreamVeraSans-Roman-79"/>
      </g>
     </g>
    </g>
    <g id="xtick_11">
     <g id="line2d_12">
      <path clip-path="url(#p5c48678cc7)" d="M 332.1 324 
L 332.1 575.1 
" style="fill:none;stroke:#000000;stroke-dasharray:1.000000,3.000000;stroke-dashoffset:0.0;stroke-width:0.5;"/>
     </g>
     <g id="text_11">
      <!-- vivacity -->
      <defs>
       <path d="M 2.984375 54.6875 
L 12.5 54.6875 
L 29.59375 8.796875 
L 46.6875 54.6875 
L 56.203125 54.6875 
L 35.6875 0 
L 23.484375 0 
z
" id="BitstreamVeraSans-Roman-76"/>
      </defs>
      <g transform="translate(308.784375 603.52125)scale(0.12 -0.12)">
       <use xlink:href="#BitstreamVeraSans-Roman-76"/>
       <use x="59.1796875" xlink:href="#BitstreamVeraSans-Roman-69"/>
       <use x="86.962890625" xlink:href="#BitstreamVeraSans-Roman-76"/>
       <use x="146.142578125" xlink:href="#BitstreamVeraSans-Roman-61"/>
       <use x="207.421875" xlink:href="#BitstreamVeraSans-Roman-63"/>
       <use x="262.40234375" xlink:href="#BitstreamVeraSans-Roman-69"/>
       <use x="290.185546875" xlink:href="#BitstreamVeraSans-Roman-74"/>
       <use x="329.39453125" xlink:href="#BitstreamVeraSans-Roman-79"/>
      </g>
     </g>
    </g>
    <g id="xtick_12">
     <g id="line2d_13">
      <path clip-path="url(#p5c48678cc7)" d="M 332.1 324 
L 409.694167 562.810291 
" style="fill:none;stroke:#000000;stroke-dasharray:1.000000,3.000000;stroke-dashoffset:0.0;stroke-width:0.5;"/>
     </g>
     <g id="text_12">
      <!-- self_preservation -->
      <defs>
       <path d="M 37.109375 75.984375 
L 37.109375 68.5 
L 28.515625 68.5 
Q 23.6875 68.5 21.796875 66.546875 
Q 19.921875 64.59375 19.921875 59.515625 
L 19.921875 54.6875 
L 34.71875 54.6875 
L 34.71875 47.703125 
L 19.921875 47.703125 
L 19.921875 0 
L 10.890625 0 
L 10.890625 47.703125 
L 2.296875 47.703125 
L 2.296875 54.6875 
L 10.890625 54.6875 
L 10.890625 58.5 
Q 10.890625 67.625 15.140625 71.796875 
Q 19.390625 75.984375 28.609375 75.984375 
z
" id="BitstreamVeraSans-Roman-66"/>
       <path d="M 18.109375 8.203125 
L 18.109375 -20.796875 
L 9.078125 -20.796875 
L 9.078125 54.6875 
L 18.109375 54.6875 
L 18.109375 46.390625 
Q 20.953125 51.265625 25.265625 53.625 
Q 29.59375 56 35.59375 56 
Q 45.5625 56 51.78125 48.09375 
Q 58.015625 40.1875 58.015625 27.296875 
Q 58.015625 14.40625 51.78125 6.484375 
Q 45.5625 -1.421875 35.59375 -1.421875 
Q 29.59375 -1.421875 25.265625 0.953125 
Q 20.953125 3.328125 18.109375 8.203125 
M 48.6875 27.296875 
Q 48.6875 37.203125 44.609375 42.84375 
Q 40.53125 48.484375 33.40625 48.484375 
Q 26.265625 48.484375 22.1875 42.84375 
Q 18.109375 37.203125 18.109375 27.296875 
Q 18.109375 17.390625 22.1875 11.75 
Q 26.265625 6.109375 33.40625 6.109375 
Q 40.53125 6.109375 44.609375 11.75 
Q 48.6875 17.390625 48.6875 27.296875 
" id="BitstreamVeraSans-Roman-70"/>
       <path d="M 50.984375 -16.609375 
L 50.984375 -23.578125 
L -0.984375 -23.578125 
L -0.984375 -16.609375 
z
" id="BitstreamVeraSans-Roman-5f"/>
      </defs>
      <g transform="translate(365.886396516 589.835695366)scale(0.12 -0.12)">
       <use xlink:href="#BitstreamVeraSans-Roman-73"/>
       <use x="52.099609375" xlink:href="#BitstreamVeraSans-Roman-65"/>
       <use x="113.623046875" xlink:href="#BitstreamVeraSans-Roman-6c"/>
       <use x="141.40625" xlink:href="#BitstreamVeraSans-Roman-66"/>
       <use x="176.611328125" xlink:href="#BitstreamVeraSans-Roman-5f"/>
       <use x="226.611328125" xlink:href="#BitstreamVeraSans-Roman-70"/>
       <use x="290.087890625" xlink:href="#BitstreamVeraSans-Roman-72"/>
       <use x="331.169921875" xlink:href="#BitstreamVeraSans-Roman-65"/>
       <use x="392.693359375" xlink:href="#BitstreamVeraSans-Roman-73"/>
       <use x="444.79296875" xlink:href="#BitstreamVeraSans-Roman-65"/>
       <use x="506.31640625" xlink:href="#BitstreamVeraSans-Roman-72"/>
       <use x="547.4296875" xlink:href="#BitstreamVeraSans-Roman-76"/>
       <use x="606.609375" xlink:href="#BitstreamVeraSans-Roman-61"/>
       <use x="667.888671875" xlink:href="#BitstreamVeraSans-Roman-74"/>
       <use x="707.09765625" xlink:href="#BitstreamVeraSans-Roman-69"/>
       <use x="734.880859375" xlink:href="#BitstreamVeraSans-Roman-6f"/>
       <use x="796.0625" xlink:href="#BitstreamVeraSans-Roman-6e"/>
      </g>
     </g>
    </g>
    <g id="xtick_13">
     <g id="line2d_14">
      <path clip-path="url(#p5c48678cc7)" d="M 332.1 324 
L 479.692877 527.144167 
" style="fill:none;stroke:#000000;stroke-dasharray:1.000000,3.000000;stroke-dashoffset:0.0;stroke-width:0.5;"/>
     </g>
     <g id="text_13">
      <!-- dicisiveness -->
      <g transform="translate(458.229039536 550.769834016)scale(0.12 -0.12)">
       <use xlink:href="#BitstreamVeraSans-Roman-64"/>
       <use x="63.4765625" xlink:href="#BitstreamVeraSans-Roman-69"/>
       <use x="91.259765625" xlink:href="#BitstreamVeraSans-Roman-63"/>
       <use x="146.240234375" xlink:href="#BitstreamVeraSans-Roman-69"/>
       <use x="174.0234375" xlink:href="#BitstreamVeraSans-Roman-73"/>
       <use x="226.123046875" xlink:href="#BitstreamVeraSans-Roman-69"/>
       <use x="253.90625" xlink:href="#BitstreamVeraSans-Roman-76"/>
       <use x="313.0859375" xlink:href="#BitstreamVeraSans-Roman-65"/>
       <use x="374.609375" xlink:href="#BitstreamVeraSans-Roman-6e"/>
       <use x="437.98828125" xlink:href="#BitstreamVeraSans-Roman-65"/>
       <use x="499.51171875" xlink:href="#BitstreamVeraSans-Roman-73"/>
       <use x="551.611328125" xlink:href="#BitstreamVeraSans-Roman-73"/>
      </g>
     </g>
    </g>
    <g id="xtick_14">
     <g id="line2d_15">
      <path clip-path="url(#p5c48678cc7)" d="M 332.1 324 
L 535.244167 471.592877 
" style="fill:none;stroke:#000000;stroke-dasharray:1.000000,3.000000;stroke-dashoffset:0.0;stroke-width:0.5;"/>
     </g>
     <g id="text_14">
      <!-- coordination -->
      <g transform="translate(518.003271516 489.663414536)scale(0.12 -0.12)">
       <use xlink:href="#BitstreamVeraSans-Roman-63"/>
       <use x="54.98046875" xlink:href="#BitstreamVeraSans-Roman-6f"/>
       <use x="116.162109375" xlink:href="#BitstreamVeraSans-Roman-6f"/>
       <use x="177.34375" xlink:href="#BitstreamVeraSans-Roman-72"/>
       <use x="218.44140625" xlink:href="#BitstreamVeraSans-Roman-64"/>
       <use x="281.91796875" xlink:href="#BitstreamVeraSans-Roman-69"/>
       <use x="309.701171875" xlink:href="#BitstreamVeraSans-Roman-6e"/>
       <use x="373.080078125" xlink:href="#BitstreamVeraSans-Roman-61"/>
       <use x="434.359375" xlink:href="#BitstreamVeraSans-Roman-74"/>
       <use x="473.568359375" xlink:href="#BitstreamVeraSans-Roman-69"/>
       <use x="501.3515625" xlink:href="#BitstreamVeraSans-Roman-6f"/>
       <use x="562.533203125" xlink:href="#BitstreamVeraSans-Roman-6e"/>
      </g>
     </g>
    </g>
    <g id="xtick_15">
     <g id="line2d_16">
      <path clip-path="url(#p5c48678cc7)" d="M 332.1 324 
L 570.910291 401.594167 
" style="fill:none;stroke:#000000;stroke-dasharray:1.000000,3.000000;stroke-dashoffset:0.0;stroke-width:0.5;"/>
     </g>
     <g id="text_15">
      <!-- aggression -->
      <g transform="translate(561.947882866 412.664834016)scale(0.12 -0.12)">
       <use xlink:href="#BitstreamVeraSans-Roman-61"/>
       <use x="61.279296875" xlink:href="#BitstreamVeraSans-Roman-67"/>
       <use x="124.755859375" xlink:href="#BitstreamVeraSans-Roman-67"/>
       <use x="188.232421875" xlink:href="#BitstreamVeraSans-Roman-72"/>
       <use x="229.314453125" xlink:href="#BitstreamVeraSans-Roman-65"/>
       <use x="290.837890625" xlink:href="#BitstreamVeraSans-Roman-73"/>
       <use x="342.9375" xlink:href="#BitstreamVeraSans-Roman-73"/>
       <use x="395.037109375" xlink:href="#BitstreamVeraSans-Roman-69"/>
       <use x="422.8203125" xlink:href="#BitstreamVeraSans-Roman-6f"/>
       <use x="484.001953125" xlink:href="#BitstreamVeraSans-Roman-6e"/>
      </g>
     </g>
    </g>
    <g id="xtick_16">
     <g id="line2d_17">
      <path clip-path="url(#p5c48678cc7)" d="M 332.1 324 
L 583.2 324 
" style="fill:none;stroke:#000000;stroke-dasharray:1.000000,3.000000;stroke-dashoffset:0.0;stroke-width:0.5;"/>
     </g>
     <g id="text_16">
      <!-- empathy -->
      <g transform="translate(581.581875 327.31125)scale(0.12 -0.12)">
       <use xlink:href="#BitstreamVeraSans-Roman-65"/>
       <use x="61.5234375" xlink:href="#BitstreamVeraSans-Roman-6d"/>
       <use x="158.935546875" xlink:href="#BitstreamVeraSans-Roman-70"/>
       <use x="222.412109375" xlink:href="#BitstreamVeraSans-Roman-61"/>
       <use x="283.69140625" xlink:href="#BitstreamVeraSans-Roman-74"/>
       <use x="322.900390625" xlink:href="#BitstreamVeraSans-Roman-68"/>
       <use x="386.279296875" xlink:href="#BitstreamVeraSans-Roman-79"/>
      </g>
     </g>
    </g>
    <g id="xtick_17">
     <g id="line2d_18">
      <path clip-path="url(#p5c48678cc7)" d="M 332.1 324 
L 570.910291 246.405833 
" style="fill:none;stroke:#000000;stroke-dasharray:1.000000,3.000000;stroke-dashoffset:0.0;stroke-width:0.5;"/>
     </g>
     <g id="text_17">
      <!-- humor -->
      <g transform="translate(575.204132866 241.957665984)scale(0.12 -0.12)">
       <use xlink:href="#BitstreamVeraSans-Roman-68"/>
       <use x="63.37890625" xlink:href="#BitstreamVeraSans-Roman-75"/>
       <use x="126.7578125" xlink:href="#BitstreamVeraSans-Roman-6d"/>
       <use x="224.169921875" xlink:href="#BitstreamVeraSans-Roman-6f"/>
       <use x="285.3515625" xlink:href="#BitstreamVeraSans-Roman-72"/>
      </g>
     </g>
    </g>
    <g id="xtick_18">
     <g id="line2d_19">
      <path clip-path="url(#p5c48678cc7)" d="M 332.1 324 
L 535.244167 176.407123 
" style="fill:none;stroke:#000000;stroke-dasharray:1.000000,3.000000;stroke-dashoffset:0.0;stroke-width:0.5;"/>
     </g>
     <g id="text_18">
      <!-- patience -->
      <g transform="translate(529.568271516 164.959085464)scale(0.12 -0.12)">
       <use xlink:href="#BitstreamVeraSans-Roman-70"/>
       <use x="63.4765625" xlink:href="#BitstreamVeraSans-Roman-61"/>
       <use x="124.755859375" xlink:href="#BitstreamVeraSans-Roman-74"/>
       <use x="163.96484375" xlink:href="#BitstreamVeraSans-Roman-69"/>
       <use x="191.748046875" xlink:href="#BitstreamVeraSans-Roman-65"/>
       <use x="253.271484375" xlink:href="#BitstreamVeraSans-Roman-6e"/>
       <use x="316.650390625" xlink:href="#BitstreamVeraSans-Roman-63"/>
       <use x="371.630859375" xlink:href="#BitstreamVeraSans-Roman-65"/>
      </g>
     </g>
    </g>
    <g id="xtick_19">
     <g id="line2d_20">
      <path clip-path="url(#p5c48678cc7)" d="M 332.1 324 
L 479.692877 120.855833 
" style="fill:none;stroke:#000000;stroke-dasharray:1.000000,3.000000;stroke-dashoffset:0.0;stroke-width:0.5;"/>
     </g>
     <g id="text_19">
      <!-- bulk_apperception -->
      <defs>
       <path d="M 9.078125 75.984375 
L 18.109375 75.984375 
L 18.109375 31.109375 
L 44.921875 54.6875 
L 56.390625 54.6875 
L 27.390625 29.109375 
L 57.625 0 
L 45.90625 0 
L 18.109375 26.703125 
L 18.109375 0 
L 9.078125 0 
z
" id="BitstreamVeraSans-Roman-6b"/>
       <path d="M 48.6875 27.296875 
Q 48.6875 37.203125 44.609375 42.84375 
Q 40.53125 48.484375 33.40625 48.484375 
Q 26.265625 48.484375 22.1875 42.84375 
Q 18.109375 37.203125 18.109375 27.296875 
Q 18.109375 17.390625 22.1875 11.75 
Q 26.265625 6.109375 33.40625 6.109375 
Q 40.53125 6.109375 44.609375 11.75 
Q 48.6875 17.390625 48.6875 27.296875 
M 18.109375 46.390625 
Q 20.953125 51.265625 25.265625 53.625 
Q 29.59375 56 35.59375 56 
Q 45.5625 56 51.78125 48.09375 
Q 58.015625 40.1875 58.015625 27.296875 
Q 58.015625 14.40625 51.78125 6.484375 
Q 45.5625 -1.421875 35.59375 -1.421875 
Q 29.59375 -1.421875 25.265625 0.953125 
Q 20.953125 3.328125 18.109375 8.203125 
L 18.109375 0 
L 9.078125 0 
L 9.078125 75.984375 
L 18.109375 75.984375 
z
" id="BitstreamVeraSans-Roman-62"/>
      </defs>
      <g transform="translate(438.954977036 103.685790984)scale(0.12 -0.12)">
       <use xlink:href="#BitstreamVeraSans-Roman-62"/>
       <use x="63.4765625" xlink:href="#BitstreamVeraSans-Roman-75"/>
       <use x="126.85546875" xlink:href="#BitstreamVeraSans-Roman-6c"/>
       <use x="154.638671875" xlink:href="#BitstreamVeraSans-Roman-6b"/>
       <use x="212.548828125" xlink:href="#BitstreamVeraSans-Roman-5f"/>
       <use x="262.548828125" xlink:href="#BitstreamVeraSans-Roman-61"/>
       <use x="323.828125" xlink:href="#BitstreamVeraSans-Roman-70"/>
       <use x="387.3046875" xlink:href="#BitstreamVeraSans-Roman-70"/>
       <use x="450.78125" xlink:href="#BitstreamVeraSans-Roman-65"/>
       <use x="512.3046875" xlink:href="#BitstreamVeraSans-Roman-72"/>
       <use x="553.38671875" xlink:href="#BitstreamVeraSans-Roman-63"/>
       <use x="608.3671875" xlink:href="#BitstreamVeraSans-Roman-65"/>
       <use x="669.890625" xlink:href="#BitstreamVeraSans-Roman-70"/>
       <use x="733.3671875" xlink:href="#BitstreamVeraSans-Roman-74"/>
       <use x="772.576171875" xlink:href="#BitstreamVeraSans-Roman-69"/>
       <use x="800.359375" xlink:href="#BitstreamVeraSans-Roman-6f"/>
       <use x="861.541015625" xlink:href="#BitstreamVeraSans-Roman-6e"/>
      </g>
     </g>
    </g>
    <g id="xtick_20">
     <g id="line2d_21">
      <path clip-path="url(#p5c48678cc7)" d="M 332.1 324 
L 409.694167 85.189709 
" style="fill:none;stroke:#000000;stroke-dasharray:1.000000,3.000000;stroke-dashoffset:0.0;stroke-width:0.5;"/>
     </g>
     <g id="text_20">
      <!-- meekness -->
      <g transform="translate(387.005459016 64.6199296341)scale(0.12 -0.12)">
       <use xlink:href="#BitstreamVeraSans-Roman-6d"/>
       <use x="97.412109375" xlink:href="#BitstreamVeraSans-Roman-65"/>
       <use x="158.935546875" xlink:href="#BitstreamVeraSans-Roman-65"/>
       <use x="220.458984375" xlink:href="#BitstreamVeraSans-Roman-6b"/>
       <use x="278.369140625" xlink:href="#BitstreamVeraSans-Roman-6e"/>
       <use x="341.748046875" xlink:href="#BitstreamVeraSans-Roman-65"/>
       <use x="403.271484375" xlink:href="#BitstreamVeraSans-Roman-73"/>
       <use x="455.37109375" xlink:href="#BitstreamVeraSans-Roman-73"/>
      </g>
     </g>
    </g>
   </g>
   <g id="matplotlib.axis_2">
    <g id="ytick_1">
     <g id="line2d_22">
      <path clip-path="url(#p5c48678cc7)" d="M 370.64719 324 
L 370.623708 322.654722 
L 370.553291 321.311084 
L 370.272052 318.635268 
L 369.804842 315.985588 
L 369.153938 313.374954 
L 368.32251 310.816084 
L 367.314611 308.321445 
L 366.135149 305.90319 
L 364.789871 303.573101 
L 363.285332 301.34253 
L 361.628861 299.222344 
L 359.828528 297.222872 
L 357.893105 295.353855 
L 355.83202 293.624399 
L 353.655315 292.042931 
L 351.373595 290.617154 
L 348.997976 289.354015 
L 346.540032 288.259667 
L 344.011737 287.339443 
L 341.425409 286.597826 
L 338.793649 286.038428 
L 336.129279 285.663975 
L 333.445278 285.476292 
L 330.754722 285.476292 
L 328.070721 285.663975 
L 325.406351 286.038428 
L 322.774591 286.597826 
L 320.188263 287.339443 
L 317.659968 288.259667 
L 315.202024 289.354015 
L 312.826405 290.617154 
L 310.544685 292.042931 
L 308.36798 293.624399 
L 306.306895 295.353855 
L 304.371472 297.222872 
L 302.571139 299.222344 
L 300.914668 301.34253 
L 299.410129 303.573101 
L 298.064851 305.90319 
L 296.885389 308.321445 
L 295.87749 310.816084 
L 295.046062 313.374954 
L 294.395158 315.985588 
L 293.927948 318.635268 
L 293.646709 321.311084 
L 293.55281 324 
L 293.646709 326.688916 
L 293.927948 329.364732 
L 294.395158 332.014412 
L 295.046062 334.625046 
L 295.87749 337.183916 
L 296.885389 339.678555 
L 298.064851 342.09681 
L 299.410129 344.426899 
L 300.914668 346.65747 
L 302.571139 348.777656 
L 304.371472 350.777128 
L 306.306895 352.646145 
L 308.36798 354.375601 
L 310.544685 355.957069 
L 312.826405 357.382846 
L 315.202024 358.645985 
L 317.659968 359.740333 
L 320.188263 360.660557 
L 322.774591 361.402174 
L 325.406351 361.961572 
L 328.070721 362.336025 
L 330.754722 362.523708 
L 333.445278 362.523708 
L 336.129279 362.336025 
L 338.793649 361.961572 
L 341.425409 361.402174 
L 344.011737 360.660557 
L 346.540032 359.740333 
L 348.997976 358.645985 
L 351.373595 357.382846 
L 353.655315 355.957069 
L 355.83202 354.375601 
L 357.893105 352.646145 
L 359.828528 350.777128 
L 361.628861 348.777656 
L 363.285332 346.65747 
L 364.789871 344.426899 
L 366.135149 342.09681 
L 367.314611 339.678555 
L 368.32251 337.183916 
L 369.153938 334.625046 
L 369.804842 332.014412 
L 370.272052 329.364732 
L 370.553291 326.688916 
L 370.64719 324 
L 370.64719 324 
" style="fill:none;stroke:#000000;stroke-dasharray:1.000000,3.000000;stroke-dashoffset:0.0;stroke-width:0.5;"/>
     </g>
     <g id="text_21">
      <!-- 0.2 -->
      <defs>
       <path d="M 19.1875 8.296875 
L 53.609375 8.296875 
L 53.609375 0 
L 7.328125 0 
L 7.328125 8.296875 
Q 12.9375 14.109375 22.625 23.890625 
Q 32.328125 33.6875 34.8125 36.53125 
Q 39.546875 41.84375 41.421875 45.53125 
Q 43.3125 49.21875 43.3125 52.78125 
Q 43.3125 58.59375 39.234375 62.25 
Q 35.15625 65.921875 28.609375 65.921875 
Q 23.96875 65.921875 18.8125 64.3125 
Q 13.671875 62.703125 7.8125 59.421875 
L 7.8125 69.390625 
Q 13.765625 71.78125 18.9375 73 
Q 24.125 74.21875 28.421875 74.21875 
Q 39.75 74.21875 46.484375 68.546875 
Q 53.21875 62.890625 53.21875 53.421875 
Q 53.21875 48.921875 51.53125 44.890625 
Q 49.859375 40.875 45.40625 35.40625 
Q 44.1875 33.984375 37.640625 27.21875 
Q 31.109375 20.453125 19.1875 8.296875 
" id="BitstreamVeraSans-Roman-32"/>
       <path d="M 31.78125 66.40625 
Q 24.171875 66.40625 20.328125 58.90625 
Q 16.5 51.421875 16.5 36.375 
Q 16.5 21.390625 20.328125 13.890625 
Q 24.171875 6.390625 31.78125 6.390625 
Q 39.453125 6.390625 43.28125 13.890625 
Q 47.125 21.390625 47.125 36.375 
Q 47.125 51.421875 43.28125 58.90625 
Q 39.453125 66.40625 31.78125 66.40625 
M 31.78125 74.21875 
Q 44.046875 74.21875 50.515625 64.515625 
Q 56.984375 54.828125 56.984375 36.375 
Q 56.984375 17.96875 50.515625 8.265625 
Q 44.046875 -1.421875 31.78125 -1.421875 
Q 19.53125 -1.421875 13.0625 8.265625 
Q 6.59375 17.96875 6.59375 36.375 
Q 6.59375 54.828125 13.0625 64.515625 
Q 19.53125 74.21875 31.78125 74.21875 
" id="BitstreamVeraSans-Roman-30"/>
       <path d="M 10.6875 12.40625 
L 21 12.40625 
L 21 0 
L 10.6875 0 
z
" id="BitstreamVeraSans-Roman-2e"/>
      </defs>
      <g transform="translate(367.712960225 306.753003878)scale(0.12 -0.12)">
       <use xlink:href="#BitstreamVeraSans-Roman-30"/>
       <use x="63.623046875" xlink:href="#BitstreamVeraSans-Roman-2e"/>
       <use x="95.41015625" xlink:href="#BitstreamVeraSans-Roman-32"/>
      </g>
     </g>
    </g>
    <g id="ytick_2">
     <g id="line2d_23">
      <path clip-path="url(#p5c48678cc7)" d="M 424.914183 324 
L 424.857643 320.760832 
L 424.688092 317.52561 
L 424.405737 314.298276 
L 424.010922 311.082762 
L 423.504127 307.882986 
L 422.88597 304.702846 
L 422.157205 301.546217 
L 421.318719 298.416944 
L 420.371534 295.31884 
L 419.316803 292.25568 
L 418.155812 289.231195 
L 416.889975 286.249071 
L 415.520835 283.31294 
L 414.050059 280.42638 
L 412.47944 277.592909 
L 410.810891 274.815976 
L 409.046445 272.098968 
L 407.188251 269.445192 
L 405.238574 266.857883 
L 403.199789 264.340193 
L 401.07438 261.895189 
L 398.864936 259.525851 
L 396.574149 257.235064 
L 394.204811 255.02562 
L 391.759807 252.900211 
L 389.242117 250.861426 
L 386.654808 248.911749 
L 384.001032 247.053555 
L 381.284024 245.289109 
L 378.507091 243.62056 
L 375.67362 242.049941 
L 372.78706 240.579165 
L 369.850929 239.210025 
L 366.868805 237.944188 
L 363.84432 236.783197 
L 360.78116 235.728466 
L 357.683056 234.781281 
L 354.553783 233.942795 
L 351.397154 233.21403 
L 348.217014 232.595873 
L 345.017238 232.089078 
L 341.801724 231.694263 
L 338.57439 231.411908 
L 335.339168 231.242357 
L 332.1 231.185817 
L 328.860832 231.242357 
L 325.62561 231.411908 
L 322.398276 231.694263 
L 319.182762 232.089078 
L 315.982986 232.595873 
L 312.802846 233.21403 
L 309.646217 233.942795 
L 306.516944 234.781281 
L 303.41884 235.728466 
L 300.35568 236.783197 
L 297.331195 237.944188 
L 294.349071 239.210025 
L 291.41294 240.579165 
L 288.52638 242.049941 
L 285.692909 243.62056 
L 282.915976 245.289109 
L 280.198968 247.053555 
L 277.545192 248.911749 
L 274.957883 250.861426 
L 272.440193 252.900211 
L 269.995189 255.02562 
L 267.625851 257.235064 
L 265.335064 259.525851 
L 263.12562 261.895189 
L 261.000211 264.340193 
L 258.961426 266.857883 
L 257.011749 269.445192 
L 255.153555 272.098968 
L 253.389109 274.815976 
L 251.72056 277.592909 
L 250.149941 280.42638 
L 248.679165 283.31294 
L 247.310025 286.249071 
L 246.044188 289.231195 
L 244.883197 292.25568 
L 243.828466 295.31884 
L 242.881281 298.416944 
L 242.042795 301.546217 
L 241.31403 304.702846 
L 240.695873 307.882986 
L 240.189078 311.082762 
L 239.794263 314.298276 
L 239.511908 317.52561 
L 239.342357 320.760832 
L 239.285817 324 
L 239.342357 327.239168 
L 239.511908 330.47439 
L 239.794263 333.701724 
L 240.189078 336.917238 
L 240.695873 340.117014 
L 241.31403 343.297154 
L 242.042795 346.453783 
L 242.881281 349.583056 
L 243.828466 352.68116 
L 244.883197 355.74432 
L 246.044188 358.768805 
L 247.310025 361.750929 
L 248.679165 364.68706 
L 250.149941 367.57362 
L 251.72056 370.407091 
L 253.389109 373.184024 
L 255.153555 375.901032 
L 257.011749 378.554808 
L 258.961426 381.142117 
L 261.000211 383.659807 
L 263.12562 386.104811 
L 265.335064 388.474149 
L 267.625851 390.764936 
L 269.995189 392.97438 
L 272.440193 395.099789 
L 274.957883 397.138574 
L 277.545192 399.088251 
L 280.198968 400.946445 
L 282.915976 402.710891 
L 285.692909 404.37944 
L 288.52638 405.950059 
L 291.41294 407.420835 
L 294.349071 408.789975 
L 297.331195 410.055812 
L 300.35568 411.216803 
L 303.41884 412.271534 
L 306.516944 413.218719 
L 309.646217 414.057205 
L 312.802846 414.78597 
L 315.982986 415.404127 
L 319.182762 415.910922 
L 322.398276 416.305737 
L 325.62561 416.588092 
L 328.860832 416.757643 
L 332.1 416.814183 
L 335.339168 416.757643 
L 338.57439 416.588092 
L 341.801724 416.305737 
L 345.017238 415.910922 
L 348.217014 415.404127 
L 351.397154 414.78597 
L 354.553783 414.057205 
L 357.683056 413.218719 
L 360.78116 412.271534 
L 363.84432 411.216803 
L 366.868805 410.055812 
L 369.850929 408.789975 
L 372.78706 407.420835 
L 375.67362 405.950059 
L 378.507091 404.37944 
L 381.284024 402.710891 
L 384.001032 400.946445 
L 386.654808 399.088251 
L 389.242117 397.138574 
L 391.759807 395.099789 
L 394.204811 392.97438 
L 396.574149 390.764936 
L 398.864936 388.474149 
L 401.07438 386.104811 
L 403.199789 383.659807 
L 405.238574 381.142117 
L 407.188251 378.554808 
L 409.046445 375.901032 
L 410.810891 373.184024 
L 412.47944 370.407091 
L 414.050059 367.57362 
L 415.520835 364.68706 
L 416.889975 361.750929 
L 418.155812 358.768805 
L 419.316803 355.74432 
L 420.371534 352.68116 
L 421.318719 349.583056 
L 422.157205 346.453783 
L 422.88597 343.297154 
L 423.504127 340.117014 
L 424.010922 336.917238 
L 424.405737 333.701724 
L 424.688092 330.47439 
L 424.857643 327.239168 
L 424.914183 324 
L 424.914183 324 
" style="fill:none;stroke:#000000;stroke-dasharray:1.000000,3.000000;stroke-dashoffset:0.0;stroke-width:0.5;"/>
     </g>
     <g id="text_22">
      <!-- 0.4 -->
      <defs>
       <path d="M 37.796875 64.3125 
L 12.890625 25.390625 
L 37.796875 25.390625 
z
M 35.203125 72.90625 
L 47.609375 72.90625 
L 47.609375 25.390625 
L 58.015625 25.390625 
L 58.015625 17.1875 
L 47.609375 17.1875 
L 47.609375 0 
L 37.796875 0 
L 37.796875 17.1875 
L 4.890625 17.1875 
L 4.890625 26.703125 
z
" id="BitstreamVeraSans-Roman-34"/>
      </defs>
      <g transform="translate(417.849123967 285.985924891)scale(0.12 -0.12)">
       <use xlink:href="#BitstreamVeraSans-Roman-30"/>
       <use x="63.623046875" xlink:href="#BitstreamVeraSans-Roman-2e"/>
       <use x="95.41015625" xlink:href="#BitstreamVeraSans-Roman-34"/>
      </g>
     </g>
    </g>
    <g id="ytick_3">
     <g id="line2d_24">
      <path clip-path="url(#p5c48678cc7)" d="M 479.181176 324 
L 479.091578 318.866941 
L 478.822893 313.740136 
L 478.375449 308.625831 
L 477.749792 303.530257 
L 476.946682 298.459622 
L 475.967099 293.420104 
L 474.812236 288.417843 
L 473.4835 283.458934 
L 471.98251 278.549417 
L 470.311095 273.695275 
L 468.471291 268.902422 
L 466.46534 264.176696 
L 464.295685 259.523856 
L 461.96497 254.949571 
L 459.476034 250.459412 
L 456.831911 246.058852 
L 454.035821 241.75325 
L 451.091171 237.547854 
L 448.001548 233.447786 
L 444.770717 229.458043 
L 441.402615 225.583484 
L 437.901343 221.82883 
L 434.27117 218.198657 
L 430.516516 214.697385 
L 426.641957 211.329283 
L 422.652214 208.098452 
L 418.552146 205.008829 
L 414.34675 202.064179 
L 410.041148 199.268089 
L 405.640588 196.623966 
L 401.150429 194.13503 
L 396.576144 191.804315 
L 391.923304 189.63466 
L 387.197578 187.628709 
L 382.404725 185.788905 
L 377.550583 184.11749 
L 372.641066 182.6165 
L 367.682157 181.287764 
L 362.679896 180.132901 
L 357.640378 179.153318 
L 352.569743 178.350208 
L 347.474169 177.724551 
L 342.359864 177.277107 
L 337.233059 177.008422 
L 332.1 176.918824 
L 326.966941 177.008422 
L 321.840136 177.277107 
L 316.725831 177.724551 
L 311.630257 178.350208 
L 306.559622 179.153318 
L 301.520104 180.132901 
L 296.517843 181.287764 
L 291.558934 182.6165 
L 286.649417 184.11749 
L 281.795275 185.788905 
L 277.002422 187.628709 
L 272.276696 189.63466 
L 267.623856 191.804315 
L 263.049571 194.13503 
L 258.559412 196.623966 
L 254.158852 199.268089 
L 249.85325 202.064179 
L 245.647854 205.008829 
L 241.547786 208.098452 
L 237.558043 211.329283 
L 233.683484 214.697385 
L 229.92883 218.198657 
L 226.298657 221.82883 
L 222.797385 225.583484 
L 219.429283 229.458043 
L 216.198452 233.447786 
L 213.108829 237.547854 
L 210.164179 241.75325 
L 207.368089 246.058852 
L 204.723966 250.459412 
L 202.23503 254.949571 
L 199.904315 259.523856 
L 197.73466 264.176696 
L 195.728709 268.902422 
L 193.888905 273.695275 
L 192.21749 278.549417 
L 190.7165 283.458934 
L 189.387764 288.417843 
L 188.232901 293.420104 
L 187.253318 298.459622 
L 186.450208 303.530257 
L 185.824551 308.625831 
L 185.377107 313.740136 
L 185.108422 318.866941 
L 185.018824 324 
L 185.108422 329.133059 
L 185.377107 334.259864 
L 185.824551 339.374169 
L 186.450208 344.469743 
L 187.253318 349.540378 
L 188.232901 354.579896 
L 189.387764 359.582157 
L 190.7165 364.541066 
L 192.21749 369.450583 
L 193.888905 374.304725 
L 195.728709 379.097578 
L 197.73466 383.823304 
L 199.904315 388.476144 
L 202.23503 393.050429 
L 204.723966 397.540588 
L 207.368089 401.941148 
L 210.164179 406.24675 
L 213.108829 410.452146 
L 216.198452 414.552214 
L 219.429283 418.541957 
L 222.797385 422.416516 
L 226.298657 426.17117 
L 229.92883 429.801343 
L 233.683484 433.302615 
L 237.558043 436.670717 
L 241.547786 439.901548 
L 245.647854 442.991171 
L 249.85325 445.935821 
L 254.158852 448.731911 
L 258.559412 451.376034 
L 263.049571 453.86497 
L 267.623856 456.195685 
L 272.276696 458.36534 
L 277.002422 460.371291 
L 281.795275 462.211095 
L 286.649417 463.88251 
L 291.558934 465.3835 
L 296.517843 466.712236 
L 301.520104 467.867099 
L 306.559622 468.846682 
L 311.630257 469.649792 
L 316.725831 470.275449 
L 321.840136 470.722893 
L 326.966941 470.991578 
L 332.1 471.081176 
L 337.233059 470.991578 
L 342.359864 470.722893 
L 347.474169 470.275449 
L 352.569743 469.649792 
L 357.640378 468.846682 
L 362.679896 467.867099 
L 367.682157 466.712236 
L 372.641066 465.3835 
L 377.550583 463.88251 
L 382.404725 462.211095 
L 387.197578 460.371291 
L 391.923304 458.36534 
L 396.576144 456.195685 
L 401.150429 453.86497 
L 405.640588 451.376034 
L 410.041148 448.731911 
L 414.34675 445.935821 
L 418.552146 442.991171 
L 422.652214 439.901548 
L 426.641957 436.670717 
L 430.516516 433.302615 
L 434.27117 429.801343 
L 437.901343 426.17117 
L 441.402615 422.416516 
L 444.770717 418.541957 
L 448.001548 414.552214 
L 451.091171 410.452146 
L 454.035821 406.24675 
L 456.831911 401.941148 
L 459.476034 397.540588 
L 461.96497 393.050429 
L 464.295685 388.476144 
L 466.46534 383.823304 
L 468.471291 379.097578 
L 470.311095 374.304725 
L 471.98251 369.450583 
L 473.4835 364.541066 
L 474.812236 359.582157 
L 475.967099 354.579896 
L 476.946682 349.540378 
L 477.749792 344.469743 
L 478.375449 339.374169 
L 478.822893 334.259864 
L 479.091578 329.133059 
L 479.181176 324 
L 479.181176 324 
" style="fill:none;stroke:#000000;stroke-dasharray:1.000000,3.000000;stroke-dashoffset:0.0;stroke-width:0.5;"/>
     </g>
     <g id="text_23">
      <!-- 0.6 -->
      <defs>
       <path d="M 33.015625 40.375 
Q 26.375 40.375 22.484375 35.828125 
Q 18.609375 31.296875 18.609375 23.390625 
Q 18.609375 15.53125 22.484375 10.953125 
Q 26.375 6.390625 33.015625 6.390625 
Q 39.65625 6.390625 43.53125 10.953125 
Q 47.40625 15.53125 47.40625 23.390625 
Q 47.40625 31.296875 43.53125 35.828125 
Q 39.65625 40.375 33.015625 40.375 
M 52.59375 71.296875 
L 52.59375 62.3125 
Q 48.875 64.0625 45.09375 64.984375 
Q 41.3125 65.921875 37.59375 65.921875 
Q 27.828125 65.921875 22.671875 59.328125 
Q 17.53125 52.734375 16.796875 39.40625 
Q 19.671875 43.65625 24.015625 45.921875 
Q 28.375 48.1875 33.59375 48.1875 
Q 44.578125 48.1875 50.953125 41.515625 
Q 57.328125 34.859375 57.328125 23.390625 
Q 57.328125 12.15625 50.6875 5.359375 
Q 44.046875 -1.421875 33.015625 -1.421875 
Q 20.359375 -1.421875 13.671875 8.265625 
Q 6.984375 17.96875 6.984375 36.375 
Q 6.984375 53.65625 15.1875 63.9375 
Q 23.390625 74.21875 37.203125 74.21875 
Q 40.921875 74.21875 44.703125 73.484375 
Q 48.484375 72.75 52.59375 71.296875 
" id="BitstreamVeraSans-Roman-36"/>
      </defs>
      <g transform="translate(467.985287708 265.218845904)scale(0.12 -0.12)">
       <use xlink:href="#BitstreamVeraSans-Roman-30"/>
       <use x="63.623046875" xlink:href="#BitstreamVeraSans-Roman-2e"/>
       <use x="95.41015625" xlink:href="#BitstreamVeraSans-Roman-36"/>
      </g>
     </g>
    </g>
    <g id="ytick_4">
     <g id="line2d_25">
      <path clip-path="url(#p5c48678cc7)" d="M 533.448168 324 
L 533.325512 316.97305 
L 532.957694 309.954662 
L 532.345162 302.953385 
L 531.488662 295.977751 
L 530.389237 289.036258 
L 529.048228 282.137362 
L 527.467267 275.289469 
L 525.648282 268.500923 
L 523.593487 261.779994 
L 521.305388 255.134871 
L 518.786771 248.573649 
L 516.040704 242.104322 
L 513.070535 235.734773 
L 509.87988 229.472761 
L 506.472629 223.325916 
L 502.852931 217.301727 
L 499.025197 211.407533 
L 494.99409 205.650516 
L 490.764522 200.03769 
L 486.341645 194.575892 
L 481.730849 189.271778 
L 476.937751 184.13181 
L 471.96819 179.162249 
L 466.828222 174.369151 
L 461.524108 169.758355 
L 456.06231 165.335478 
L 450.449484 161.10591 
L 444.692467 157.074803 
L 438.798273 153.247069 
L 432.774084 149.627371 
L 426.627239 146.22012 
L 420.365227 143.029465 
L 413.995678 140.059296 
L 407.526351 137.313229 
L 400.965129 134.794612 
L 394.320006 132.506513 
L 387.599077 130.451718 
L 380.810531 128.632733 
L 373.962638 127.051772 
L 367.063742 125.710763 
L 360.122249 124.611338 
L 353.146615 123.754838 
L 346.145338 123.142306 
L 339.12695 122.774488 
L 332.1 122.651832 
L 325.07305 122.774488 
L 318.054662 123.142306 
L 311.053385 123.754838 
L 304.077751 124.611338 
L 297.136258 125.710763 
L 290.237362 127.051772 
L 283.389469 128.632733 
L 276.600923 130.451718 
L 269.879994 132.506513 
L 263.234871 134.794612 
L 256.673649 137.313229 
L 250.204322 140.059296 
L 243.834773 143.029465 
L 237.572761 146.22012 
L 231.425916 149.627371 
L 225.401727 153.247069 
L 219.507533 157.074803 
L 213.750516 161.10591 
L 208.13769 165.335478 
L 202.675892 169.758355 
L 197.371778 174.369151 
L 192.23181 179.162249 
L 187.262249 184.13181 
L 182.469151 189.271778 
L 177.858355 194.575892 
L 173.435478 200.03769 
L 169.20591 205.650516 
L 165.174803 211.407533 
L 161.347069 217.301727 
L 157.727371 223.325916 
L 154.32012 229.472761 
L 151.129465 235.734773 
L 148.159296 242.104322 
L 145.413229 248.573649 
L 142.894612 255.134871 
L 140.606513 261.779994 
L 138.551718 268.500923 
L 136.732733 275.289469 
L 135.151772 282.137362 
L 133.810763 289.036258 
L 132.711338 295.977751 
L 131.854838 302.953385 
L 131.242306 309.954662 
L 130.874488 316.97305 
L 130.751832 324 
L 130.874488 331.02695 
L 131.242306 338.045338 
L 131.854838 345.046615 
L 132.711338 352.022249 
L 133.810763 358.963742 
L 135.151772 365.862638 
L 136.732733 372.710531 
L 138.551718 379.499077 
L 140.606513 386.220006 
L 142.894612 392.865129 
L 145.413229 399.426351 
L 148.159296 405.895678 
L 151.129465 412.265227 
L 154.32012 418.527239 
L 157.727371 424.674084 
L 161.347069 430.698273 
L 165.174803 436.592467 
L 169.20591 442.349484 
L 173.435478 447.96231 
L 177.858355 453.424108 
L 182.469151 458.728222 
L 187.262249 463.86819 
L 192.23181 468.837751 
L 197.371778 473.630849 
L 202.675892 478.241645 
L 208.13769 482.664522 
L 213.750516 486.89409 
L 219.507533 490.925197 
L 225.401727 494.752931 
L 231.425916 498.372629 
L 237.572761 501.77988 
L 243.834773 504.970535 
L 250.204322 507.940704 
L 256.673649 510.686771 
L 263.234871 513.205388 
L 269.879994 515.493487 
L 276.600923 517.548282 
L 283.389469 519.367267 
L 290.237362 520.948228 
L 297.136258 522.289237 
L 304.077751 523.388662 
L 311.053385 524.245162 
L 318.054662 524.857694 
L 325.07305 525.225512 
L 332.1 525.348168 
L 339.12695 525.225512 
L 346.145338 524.857694 
L 353.146615 524.245162 
L 360.122249 523.388662 
L 367.063742 522.289237 
L 373.962638 520.948228 
L 380.810531 519.367267 
L 387.599077 517.548282 
L 394.320006 515.493487 
L 400.965129 513.205388 
L 407.526351 510.686771 
L 413.995678 507.940704 
L 420.365227 504.970535 
L 426.627239 501.77988 
L 432.774084 498.372629 
L 438.798273 494.752931 
L 444.692467 490.925197 
L 450.449484 486.89409 
L 456.06231 482.664522 
L 461.524108 478.241645 
L 466.828222 473.630849 
L 471.96819 468.837751 
L 476.937751 463.86819 
L 481.730849 458.728222 
L 486.341645 453.424108 
L 490.764522 447.96231 
L 494.99409 442.349484 
L 499.025197 436.592467 
L 502.852931 430.698273 
L 506.472629 424.674084 
L 509.87988 418.527239 
L 513.070535 412.265227 
L 516.040704 405.895678 
L 518.786771 399.426351 
L 521.305388 392.865129 
L 523.593487 386.220006 
L 525.648282 379.499077 
L 527.467267 372.710531 
L 529.048228 365.862638 
L 530.389237 358.963742 
L 531.488662 352.022249 
L 532.345162 345.046615 
L 532.957694 338.045338 
L 533.325512 331.02695 
L 533.448168 324 
L 533.448168 324 
" style="fill:none;stroke:#000000;stroke-dasharray:1.000000,3.000000;stroke-dashoffset:0.0;stroke-width:0.5;"/>
     </g>
     <g id="text_24">
      <!-- 0.8 -->
      <defs>
       <path d="M 31.78125 34.625 
Q 24.75 34.625 20.71875 30.859375 
Q 16.703125 27.09375 16.703125 20.515625 
Q 16.703125 13.921875 20.71875 10.15625 
Q 24.75 6.390625 31.78125 6.390625 
Q 38.8125 6.390625 42.859375 10.171875 
Q 46.921875 13.96875 46.921875 20.515625 
Q 46.921875 27.09375 42.890625 30.859375 
Q 38.875 34.625 31.78125 34.625 
M 21.921875 38.8125 
Q 15.578125 40.375 12.03125 44.71875 
Q 8.5 49.078125 8.5 55.328125 
Q 8.5 64.0625 14.71875 69.140625 
Q 20.953125 74.21875 31.78125 74.21875 
Q 42.671875 74.21875 48.875 69.140625 
Q 55.078125 64.0625 55.078125 55.328125 
Q 55.078125 49.078125 51.53125 44.71875 
Q 48 40.375 41.703125 38.8125 
Q 48.828125 37.15625 52.796875 32.3125 
Q 56.78125 27.484375 56.78125 20.515625 
Q 56.78125 9.90625 50.3125 4.234375 
Q 43.84375 -1.421875 31.78125 -1.421875 
Q 19.734375 -1.421875 13.25 4.234375 
Q 6.78125 9.90625 6.78125 20.515625 
Q 6.78125 27.484375 10.78125 32.3125 
Q 14.796875 37.15625 21.921875 38.8125 
M 18.3125 54.390625 
Q 18.3125 48.734375 21.84375 45.5625 
Q 25.390625 42.390625 31.78125 42.390625 
Q 38.140625 42.390625 41.71875 45.5625 
Q 45.3125 48.734375 45.3125 54.390625 
Q 45.3125 60.0625 41.71875 63.234375 
Q 38.140625 66.40625 31.78125 66.40625 
Q 25.390625 66.40625 21.84375 63.234375 
Q 18.3125 60.0625 18.3125 54.390625 
" id="BitstreamVeraSans-Roman-38"/>
      </defs>
      <g transform="translate(518.12145145 244.451766917)scale(0.12 -0.12)">
       <use xlink:href="#BitstreamVeraSans-Roman-30"/>
       <use x="63.623046875" xlink:href="#BitstreamVeraSans-Roman-2e"/>
       <use x="95.41015625" xlink:href="#BitstreamVeraSans-Roman-38"/>
      </g>
     </g>
    </g>
   </g>
  </g>
 </g>
 <defs>
  <clipPath id="p5c48678cc7">
   <path d="M 332.1 575.1 
C 398.692498 575.1 462.566506 548.64252 509.654513 501.554513 
C 556.74252 454.466506 583.2 390.592498 583.2 324 
C 583.2 257.407502 556.74252 193.533494 509.654513 146.445487 
C 462.566506 99.35748 398.692498 72.9 332.1 72.9 
C 265.507502 72.9 201.633494 99.35748 154.545487 146.445487 
C 107.45748 193.533494 81 257.407502 81 324 
C 81 390.592498 107.45748 454.466506 154.545487 501.554513 
C 201.633494 548.64252 265.507502 575.1 332.1 575.1 
z
"/>
  </clipPath>
 </defs>
</svg>
