<?xml version="1.0" encoding="utf-8" standalone="no"?>
<!DOCTYPE svg PUBLIC "-//W3C//DTD SVG 1.1//EN"
  "http://www.w3.org/Graphics/SVG/1.1/DTD/svg11.dtd">
<!-- Created with matplotlib (http://matplotlib.org/) -->
<svg height="648pt" version="1.1" viewBox="0 0 648 648" width="648pt" xmlns="http://www.w3.org/2000/svg" xmlns:xlink="http://www.w3.org/1999/xlink">
 <defs>
  <style type="text/css">
*{stroke-linecap:butt;stroke-linejoin:round;stroke-miterlimit:100000;}
  </style>
 </defs>
 <g id="figure_1">
  <g id="patch_1">
   <path d="M 0 648 
L 648 648 
L 648 0 
L 0 0 
z
" style="fill:#ffffff;"/>
  </g>
  <g id="axes_1">
   <g id="patch_2">
    <path d="M 332.1 575.1 
C 398.692498 575.1 462.566506 548.64252 509.654513 501.554513 
C 556.74252 454.466506 583.2 390.592498 583.2 324 
C 583.2 257.407502 556.74252 193.533494 509.654513 146.445487 
C 462.566506 99.35748 398.692498 72.9 332.1 72.9 
C 265.507502 72.9 201.633494 99.35748 154.545487 146.445487 
C 107.45748 193.533494 81 257.407502 81 324 
C 81 390.592498 107.45748 454.466506 154.545487 501.554513 
C 201.633494 548.64252 265.507502 575.1 332.1 575.1 
z
" style="fill:#ffffff;"/>
   </g>
   <g id="patch_3">
    <path clip-path="url(#p987aef2cb1)" d="M 332.1 247.004598 
L 259.650474 101.023286 
L 243.522229 202.083157 
L 300.363749 300.942264 
L 170.5692 271.515462 
L 106.628781 324 
L 251.054522 350.333272 
L 330.531519 325.139568 
L 259.412041 424.046393 
L 290.696382 451.427235 
L 332.1 361.8292 
L 369.268873 438.39403 
L 352.540401 352.133799 
L 513.576807 455.850618 
L 332.1 324 
L 583.2 324 
L 396.568232 303.053002 
L 475.768694 219.618584 
L 472.786037 130.362283 
L 398.412165 119.912142 
z
" style="fill:#0000ff;opacity:0.25;stroke:#000000;stroke-linejoin:miter;"/>
   </g>
   <g id="line2d_1">
    <path clip-path="url(#p987aef2cb1)" d="M 332.1 247.004598 
L 259.650474 101.023286 
L 243.522229 202.083157 
L 300.363749 300.942264 
L 170.5692 271.515462 
L 106.628781 324 
L 251.054522 350.333272 
L 330.531519 325.139568 
L 259.412041 424.046393 
L 290.696382 451.427235 
L 332.1 361.8292 
L 369.268873 438.39403 
L 352.540401 352.133799 
L 513.576807 455.850618 
L 332.1 324 
L 583.2 324 
L 396.568232 303.053002 
L 475.768694 219.618584 
L 472.786037 130.362283 
L 398.412165 119.912142 
L 332.1 247.004598 
" style="fill:none;stroke:#0000ff;stroke-linecap:square;"/>
   </g>
   <g id="patch_4">
    <path d="M 332.1 575.1 
C 398.692498 575.1 462.566506 548.64252 509.654513 501.554513 
C 556.74252 454.466506 583.2 390.592498 583.2 324 
C 583.2 257.407502 556.74252 193.533494 509.654513 146.445487 
C 462.566506 99.35748 398.692498 72.9 332.1 72.9 
C 265.507502 72.9 201.633494 99.35748 154.545487 146.445487 
C 107.45748 193.533494 81 257.407502 81 324 
C 81 390.592498 107.45748 454.466506 154.545487 501.554513 
C 201.633494 548.64252 265.507502 575.1 332.1 575.1 
L 332.1 575.1 
z
" style="fill:none;stroke:#000000;stroke-linecap:square;stroke-linejoin:miter;"/>
   </g>
   <g id="matplotlib.axis_1">
    <g id="xtick_1">
     <g id="line2d_2">
      <path clip-path="url(#p987aef2cb1)" d="M 332.1 324 
L 332.1 72.9 
" style="fill:none;stroke:#000000;stroke-dasharray:1.000000,3.000000;stroke-dashoffset:0.0;stroke-width:0.5;"/>
     </g>
     <g id="text_1">
      <!-- candor -->
      <defs>
       <path d="M 54.890625 33.015625 
L 54.890625 0 
L 45.90625 0 
L 45.90625 32.71875 
Q 45.90625 40.484375 42.875 44.328125 
Q 39.84375 48.1875 33.796875 48.1875 
Q 26.515625 48.1875 22.3125 43.546875 
Q 18.109375 38.921875 18.109375 30.90625 
L 18.109375 0 
L 9.078125 0 
L 9.078125 54.6875 
L 18.109375 54.6875 
L 18.109375 46.1875 
Q 21.34375 51.125 25.703125 53.5625 
Q 30.078125 56 35.796875 56 
Q 45.21875 56 50.046875 50.171875 
Q 54.890625 44.34375 54.890625 33.015625 
" id="BitstreamVeraSans-Roman-6e"/>
       <path d="M 41.109375 46.296875 
Q 39.59375 47.171875 37.8125 47.578125 
Q 36.03125 48 33.890625 48 
Q 26.265625 48 22.1875 43.046875 
Q 18.109375 38.09375 18.109375 28.8125 
L 18.109375 0 
L 9.078125 0 
L 9.078125 54.6875 
L 18.109375 54.6875 
L 18.109375 46.1875 
Q 20.953125 51.171875 25.484375 53.578125 
Q 30.03125 56 36.53125 56 
Q 37.453125 56 38.578125 55.875 
Q 39.703125 55.765625 41.0625 55.515625 
z
" id="BitstreamVeraSans-Roman-72"/>
       <path d="M 30.609375 48.390625 
Q 23.390625 48.390625 19.1875 42.75 
Q 14.984375 37.109375 14.984375 27.296875 
Q 14.984375 17.484375 19.15625 11.84375 
Q 23.34375 6.203125 30.609375 6.203125 
Q 37.796875 6.203125 41.984375 11.859375 
Q 46.1875 17.53125 46.1875 27.296875 
Q 46.1875 37.015625 41.984375 42.703125 
Q 37.796875 48.390625 30.609375 48.390625 
M 30.609375 56 
Q 42.328125 56 49.015625 48.375 
Q 55.71875 40.765625 55.71875 27.296875 
Q 55.71875 13.875 49.015625 6.21875 
Q 42.328125 -1.421875 30.609375 -1.421875 
Q 18.84375 -1.421875 12.171875 6.21875 
Q 5.515625 13.875 5.515625 27.296875 
Q 5.515625 40.765625 12.171875 48.375 
Q 18.84375 56 30.609375 56 
" id="BitstreamVeraSans-Roman-6f"/>
       <path d="M 45.40625 46.390625 
L 45.40625 75.984375 
L 54.390625 75.984375 
L 54.390625 0 
L 45.40625 0 
L 45.40625 8.203125 
Q 42.578125 3.328125 38.25 0.953125 
Q 33.9375 -1.421875 27.875 -1.421875 
Q 17.96875 -1.421875 11.734375 6.484375 
Q 5.515625 14.40625 5.515625 27.296875 
Q 5.515625 40.1875 11.734375 48.09375 
Q 17.96875 56 27.875 56 
Q 33.9375 56 38.25 53.625 
Q 42.578125 51.265625 45.40625 46.390625 
M 14.796875 27.296875 
Q 14.796875 17.390625 18.875 11.75 
Q 22.953125 6.109375 30.078125 6.109375 
Q 37.203125 6.109375 41.296875 11.75 
Q 45.40625 17.390625 45.40625 27.296875 
Q 45.40625 37.203125 41.296875 42.84375 
Q 37.203125 48.484375 30.078125 48.484375 
Q 22.953125 48.484375 18.875 42.84375 
Q 14.796875 37.203125 14.796875 27.296875 
" id="BitstreamVeraSans-Roman-64"/>
       <path d="M 34.28125 27.484375 
Q 23.390625 27.484375 19.1875 25 
Q 14.984375 22.515625 14.984375 16.5 
Q 14.984375 11.71875 18.140625 8.90625 
Q 21.296875 6.109375 26.703125 6.109375 
Q 34.1875 6.109375 38.703125 11.40625 
Q 43.21875 16.703125 43.21875 25.484375 
L 43.21875 27.484375 
z
M 52.203125 31.203125 
L 52.203125 0 
L 43.21875 0 
L 43.21875 8.296875 
Q 40.140625 3.328125 35.546875 0.953125 
Q 30.953125 -1.421875 24.3125 -1.421875 
Q 15.921875 -1.421875 10.953125 3.296875 
Q 6 8.015625 6 15.921875 
Q 6 25.140625 12.171875 29.828125 
Q 18.359375 34.515625 30.609375 34.515625 
L 43.21875 34.515625 
L 43.21875 35.40625 
Q 43.21875 41.609375 39.140625 45 
Q 35.0625 48.390625 27.6875 48.390625 
Q 23 48.390625 18.546875 47.265625 
Q 14.109375 46.140625 10.015625 43.890625 
L 10.015625 52.203125 
Q 14.9375 54.109375 19.578125 55.046875 
Q 24.21875 56 28.609375 56 
Q 40.484375 56 46.34375 49.84375 
Q 52.203125 43.703125 52.203125 31.203125 
" id="BitstreamVeraSans-Roman-61"/>
       <path d="M 48.78125 52.59375 
L 48.78125 44.1875 
Q 44.96875 46.296875 41.140625 47.34375 
Q 37.3125 48.390625 33.40625 48.390625 
Q 24.65625 48.390625 19.8125 42.84375 
Q 14.984375 37.3125 14.984375 27.296875 
Q 14.984375 17.28125 19.8125 11.734375 
Q 24.65625 6.203125 33.40625 6.203125 
Q 37.3125 6.203125 41.140625 7.25 
Q 44.96875 8.296875 48.78125 10.40625 
L 48.78125 2.09375 
Q 45.015625 0.34375 40.984375 -0.53125 
Q 36.96875 -1.421875 32.421875 -1.421875 
Q 20.0625 -1.421875 12.78125 6.34375 
Q 5.515625 14.109375 5.515625 27.296875 
Q 5.515625 40.671875 12.859375 48.328125 
Q 20.21875 56 33.015625 56 
Q 37.15625 56 41.109375 55.140625 
Q 45.0625 54.296875 48.78125 52.59375 
" id="BitstreamVeraSans-Roman-63"/>
      </defs>
      <g transform="translate(311.3746875 51.10125)scale(0.12 -0.12)">
       <use xlink:href="#BitstreamVeraSans-Roman-63"/>
       <use x="54.98046875" xlink:href="#BitstreamVeraSans-Roman-61"/>
       <use x="116.259765625" xlink:href="#BitstreamVeraSans-Roman-6e"/>
       <use x="179.638671875" xlink:href="#BitstreamVeraSans-Roman-64"/>
       <use x="243.115234375" xlink:href="#BitstreamVeraSans-Roman-6f"/>
       <use x="304.296875" xlink:href="#BitstreamVeraSans-Roman-72"/>
      </g>
     </g>
    </g>
    <g id="xtick_2">
     <g id="line2d_3">
      <path clip-path="url(#p987aef2cb1)" d="M 332.1 324 
L 254.505833 85.189709 
" style="fill:none;stroke:#000000;stroke-dasharray:1.000000,3.000000;stroke-dashoffset:0.0;stroke-width:0.5;"/>
     </g>
     <g id="text_2">
      <!-- sensuality -->
      <defs>
       <path d="M 9.421875 75.984375 
L 18.40625 75.984375 
L 18.40625 0 
L 9.421875 0 
z
" id="BitstreamVeraSans-Roman-6c"/>
       <path d="M 9.421875 54.6875 
L 18.40625 54.6875 
L 18.40625 0 
L 9.421875 0 
z
M 9.421875 75.984375 
L 18.40625 75.984375 
L 18.40625 64.59375 
L 9.421875 64.59375 
z
" id="BitstreamVeraSans-Roman-69"/>
       <path d="M 32.171875 -5.078125 
Q 28.375 -14.84375 24.75 -17.8125 
Q 21.140625 -20.796875 15.09375 -20.796875 
L 7.90625 -20.796875 
L 7.90625 -13.28125 
L 13.1875 -13.28125 
Q 16.890625 -13.28125 18.9375 -11.515625 
Q 21 -9.765625 23.484375 -3.21875 
L 25.09375 0.875 
L 2.984375 54.6875 
L 12.5 54.6875 
L 29.59375 11.921875 
L 46.6875 54.6875 
L 56.203125 54.6875 
z
" id="BitstreamVeraSans-Roman-79"/>
       <path d="M 56.203125 29.59375 
L 56.203125 25.203125 
L 14.890625 25.203125 
Q 15.484375 15.921875 20.484375 11.0625 
Q 25.484375 6.203125 34.421875 6.203125 
Q 39.59375 6.203125 44.453125 7.46875 
Q 49.3125 8.734375 54.109375 11.28125 
L 54.109375 2.78125 
Q 49.265625 0.734375 44.1875 -0.34375 
Q 39.109375 -1.421875 33.890625 -1.421875 
Q 20.796875 -1.421875 13.15625 6.1875 
Q 5.515625 13.8125 5.515625 26.8125 
Q 5.515625 40.234375 12.765625 48.109375 
Q 20.015625 56 32.328125 56 
Q 43.359375 56 49.78125 48.890625 
Q 56.203125 41.796875 56.203125 29.59375 
M 47.21875 32.234375 
Q 47.125 39.59375 43.09375 43.984375 
Q 39.0625 48.390625 32.421875 48.390625 
Q 24.90625 48.390625 20.390625 44.140625 
Q 15.875 39.890625 15.1875 32.171875 
z
" id="BitstreamVeraSans-Roman-65"/>
       <path d="M 18.3125 70.21875 
L 18.3125 54.6875 
L 36.8125 54.6875 
L 36.8125 47.703125 
L 18.3125 47.703125 
L 18.3125 18.015625 
Q 18.3125 11.328125 20.140625 9.421875 
Q 21.96875 7.515625 27.59375 7.515625 
L 36.8125 7.515625 
L 36.8125 0 
L 27.59375 0 
Q 17.1875 0 13.234375 3.875 
Q 9.28125 7.765625 9.28125 18.015625 
L 9.28125 47.703125 
L 2.6875 47.703125 
L 2.6875 54.6875 
L 9.28125 54.6875 
L 9.28125 70.21875 
z
" id="BitstreamVeraSans-Roman-74"/>
       <path d="M 8.5 21.578125 
L 8.5 54.6875 
L 17.484375 54.6875 
L 17.484375 21.921875 
Q 17.484375 14.15625 20.5 10.265625 
Q 23.53125 6.390625 29.59375 6.390625 
Q 36.859375 6.390625 41.078125 11.03125 
Q 45.3125 15.671875 45.3125 23.6875 
L 45.3125 54.6875 
L 54.296875 54.6875 
L 54.296875 0 
L 45.3125 0 
L 45.3125 8.40625 
Q 42.046875 3.421875 37.71875 1 
Q 33.40625 -1.421875 27.6875 -1.421875 
Q 18.265625 -1.421875 13.375 4.4375 
Q 8.5 10.296875 8.5 21.578125 
" id="BitstreamVeraSans-Roman-75"/>
       <path d="M 44.28125 53.078125 
L 44.28125 44.578125 
Q 40.484375 46.53125 36.375 47.5 
Q 32.28125 48.484375 27.875 48.484375 
Q 21.1875 48.484375 17.84375 46.4375 
Q 14.5 44.390625 14.5 40.28125 
Q 14.5 37.15625 16.890625 35.375 
Q 19.28125 33.59375 26.515625 31.984375 
L 29.59375 31.296875 
Q 39.15625 29.25 43.1875 25.515625 
Q 47.21875 21.78125 47.21875 15.09375 
Q 47.21875 7.46875 41.1875 3.015625 
Q 35.15625 -1.421875 24.609375 -1.421875 
Q 20.21875 -1.421875 15.453125 -0.5625 
Q 10.6875 0.296875 5.421875 2 
L 5.421875 11.28125 
Q 10.40625 8.6875 15.234375 7.390625 
Q 20.0625 6.109375 24.8125 6.109375 
Q 31.15625 6.109375 34.5625 8.28125 
Q 37.984375 10.453125 37.984375 14.40625 
Q 37.984375 18.0625 35.515625 20.015625 
Q 33.0625 21.96875 24.703125 23.78125 
L 21.578125 24.515625 
Q 13.234375 26.265625 9.515625 29.90625 
Q 5.8125 33.546875 5.8125 39.890625 
Q 5.8125 47.609375 11.28125 51.796875 
Q 16.75 56 26.8125 56 
Q 31.78125 56 36.171875 55.265625 
Q 40.578125 54.546875 44.28125 53.078125 
" id="BitstreamVeraSans-Roman-73"/>
      </defs>
      <g transform="translate(216.284228484 64.6199296341)scale(0.12 -0.12)">
       <use xlink:href="#BitstreamVeraSans-Roman-73"/>
       <use x="52.099609375" xlink:href="#BitstreamVeraSans-Roman-65"/>
       <use x="113.623046875" xlink:href="#BitstreamVeraSans-Roman-6e"/>
       <use x="177.001953125" xlink:href="#BitstreamVeraSans-Roman-73"/>
       <use x="229.1015625" xlink:href="#BitstreamVeraSans-Roman-75"/>
       <use x="292.48046875" xlink:href="#BitstreamVeraSans-Roman-61"/>
       <use x="353.759765625" xlink:href="#BitstreamVeraSans-Roman-6c"/>
       <use x="381.54296875" xlink:href="#BitstreamVeraSans-Roman-69"/>
       <use x="409.326171875" xlink:href="#BitstreamVeraSans-Roman-74"/>
       <use x="448.53515625" xlink:href="#BitstreamVeraSans-Roman-79"/>
      </g>
     </g>
    </g>
    <g id="xtick_3">
     <g id="line2d_4">
      <path clip-path="url(#p987aef2cb1)" d="M 332.1 324 
L 184.507123 120.855833 
" style="fill:none;stroke:#000000;stroke-dasharray:1.000000,3.000000;stroke-dashoffset:0.0;stroke-width:0.5;"/>
     </g>
     <g id="text_3">
      <!-- tenacity -->
      <g transform="translate(145.355022964 103.852665984)scale(0.12 -0.12)">
       <use xlink:href="#BitstreamVeraSans-Roman-74"/>
       <use x="39.208984375" xlink:href="#BitstreamVeraSans-Roman-65"/>
       <use x="100.732421875" xlink:href="#BitstreamVeraSans-Roman-6e"/>
       <use x="164.111328125" xlink:href="#BitstreamVeraSans-Roman-61"/>
       <use x="225.390625" xlink:href="#BitstreamVeraSans-Roman-63"/>
       <use x="280.37109375" xlink:href="#BitstreamVeraSans-Roman-69"/>
       <use x="308.154296875" xlink:href="#BitstreamVeraSans-Roman-74"/>
       <use x="347.36328125" xlink:href="#BitstreamVeraSans-Roman-79"/>
      </g>
     </g>
    </g>
    <g id="xtick_4">
     <g id="line2d_5">
      <path clip-path="url(#p987aef2cb1)" d="M 332.1 324 
L 128.955833 176.407123 
" style="fill:none;stroke:#000000;stroke-dasharray:1.000000,3.000000;stroke-dashoffset:0.0;stroke-width:0.5;"/>
     </g>
     <g id="text_4">
      <!-- cruelty -->
      <g transform="translate(87.8111034837 164.959085464)scale(0.12 -0.12)">
       <use xlink:href="#BitstreamVeraSans-Roman-63"/>
       <use x="54.98046875" xlink:href="#BitstreamVeraSans-Roman-72"/>
       <use x="96.09375" xlink:href="#BitstreamVeraSans-Roman-75"/>
       <use x="159.47265625" xlink:href="#BitstreamVeraSans-Roman-65"/>
       <use x="220.99609375" xlink:href="#BitstreamVeraSans-Roman-6c"/>
       <use x="248.779296875" xlink:href="#BitstreamVeraSans-Roman-74"/>
       <use x="287.98828125" xlink:href="#BitstreamVeraSans-Roman-79"/>
      </g>
     </g>
    </g>
    <g id="xtick_5">
     <g id="line2d_6">
      <path clip-path="url(#p987aef2cb1)" d="M 332.1 324 
L 93.289709 246.405833 
" style="fill:none;stroke:#000000;stroke-dasharray:1.000000,3.000000;stroke-dashoffset:0.0;stroke-width:0.5;"/>
     </g>
     <g id="text_5">
      <!-- loyalty -->
      <g transform="translate(49.2721171341 241.957665984)scale(0.12 -0.12)">
       <use xlink:href="#BitstreamVeraSans-Roman-6c"/>
       <use x="27.783203125" xlink:href="#BitstreamVeraSans-Roman-6f"/>
       <use x="88.96484375" xlink:href="#BitstreamVeraSans-Roman-79"/>
       <use x="148.14453125" xlink:href="#BitstreamVeraSans-Roman-61"/>
       <use x="209.423828125" xlink:href="#BitstreamVeraSans-Roman-6c"/>
       <use x="237.20703125" xlink:href="#BitstreamVeraSans-Roman-74"/>
       <use x="276.416015625" xlink:href="#BitstreamVeraSans-Roman-79"/>
      </g>
     </g>
    </g>
    <g id="xtick_6">
     <g id="line2d_7">
      <path clip-path="url(#p987aef2cb1)" d="M 332.1 324 
L 81 324 
" style="fill:none;stroke:#000000;stroke-dasharray:1.000000,3.000000;stroke-dashoffset:0.0;stroke-width:0.5;"/>
     </g>
     <g id="text_6">
      <!-- imagination -->
      <defs>
       <path d="M 52 44.1875 
Q 55.375 50.25 60.0625 53.125 
Q 64.75 56 71.09375 56 
Q 79.640625 56 84.28125 50.015625 
Q 88.921875 44.046875 88.921875 33.015625 
L 88.921875 0 
L 79.890625 0 
L 79.890625 32.71875 
Q 79.890625 40.578125 77.09375 44.375 
Q 74.3125 48.1875 68.609375 48.1875 
Q 61.625 48.1875 57.5625 43.546875 
Q 53.515625 38.921875 53.515625 30.90625 
L 53.515625 0 
L 44.484375 0 
L 44.484375 32.71875 
Q 44.484375 40.625 41.703125 44.40625 
Q 38.921875 48.1875 33.109375 48.1875 
Q 26.21875 48.1875 22.15625 43.53125 
Q 18.109375 38.875 18.109375 30.90625 
L 18.109375 0 
L 9.078125 0 
L 9.078125 54.6875 
L 18.109375 54.6875 
L 18.109375 46.1875 
Q 21.1875 51.21875 25.484375 53.609375 
Q 29.78125 56 35.6875 56 
Q 41.65625 56 45.828125 52.96875 
Q 50 49.953125 52 44.1875 
" id="BitstreamVeraSans-Roman-6d"/>
       <path d="M 45.40625 27.984375 
Q 45.40625 37.75 41.375 43.109375 
Q 37.359375 48.484375 30.078125 48.484375 
Q 22.859375 48.484375 18.828125 43.109375 
Q 14.796875 37.75 14.796875 27.984375 
Q 14.796875 18.265625 18.828125 12.890625 
Q 22.859375 7.515625 30.078125 7.515625 
Q 37.359375 7.515625 41.375 12.890625 
Q 45.40625 18.265625 45.40625 27.984375 
M 54.390625 6.78125 
Q 54.390625 -7.171875 48.1875 -13.984375 
Q 42 -20.796875 29.203125 -20.796875 
Q 24.46875 -20.796875 20.265625 -20.09375 
Q 16.0625 -19.390625 12.109375 -17.921875 
L 12.109375 -9.1875 
Q 16.0625 -11.328125 19.921875 -12.34375 
Q 23.78125 -13.375 27.78125 -13.375 
Q 36.625 -13.375 41.015625 -8.765625 
Q 45.40625 -4.15625 45.40625 5.171875 
L 45.40625 9.625 
Q 42.625 4.78125 38.28125 2.390625 
Q 33.9375 0 27.875 0 
Q 17.828125 0 11.671875 7.65625 
Q 5.515625 15.328125 5.515625 27.984375 
Q 5.515625 40.671875 11.671875 48.328125 
Q 17.828125 56 27.875 56 
Q 33.9375 56 38.28125 53.609375 
Q 42.625 51.21875 45.40625 46.390625 
L 45.40625 54.6875 
L 54.390625 54.6875 
z
" id="BitstreamVeraSans-Roman-67"/>
      </defs>
      <g transform="translate(20.25375 327.31125)scale(0.12 -0.12)">
       <use xlink:href="#BitstreamVeraSans-Roman-69"/>
       <use x="27.783203125" xlink:href="#BitstreamVeraSans-Roman-6d"/>
       <use x="125.1953125" xlink:href="#BitstreamVeraSans-Roman-61"/>
       <use x="186.474609375" xlink:href="#BitstreamVeraSans-Roman-67"/>
       <use x="249.951171875" xlink:href="#BitstreamVeraSans-Roman-69"/>
       <use x="277.734375" xlink:href="#BitstreamVeraSans-Roman-6e"/>
       <use x="341.11328125" xlink:href="#BitstreamVeraSans-Roman-61"/>
       <use x="402.392578125" xlink:href="#BitstreamVeraSans-Roman-74"/>
       <use x="441.6015625" xlink:href="#BitstreamVeraSans-Roman-69"/>
       <use x="469.384765625" xlink:href="#BitstreamVeraSans-Roman-6f"/>
       <use x="530.56640625" xlink:href="#BitstreamVeraSans-Roman-6e"/>
      </g>
     </g>
    </g>
    <g id="xtick_7">
     <g id="line2d_8">
      <path clip-path="url(#p987aef2cb1)" d="M 332.1 324 
L 93.289709 401.594167 
" style="fill:none;stroke:#000000;stroke-dasharray:1.000000,3.000000;stroke-dashoffset:0.0;stroke-width:0.5;"/>
     </g>
     <g id="text_7">
      <!-- courage -->
      <g transform="translate(44.9914921341 412.664834016)scale(0.12 -0.12)">
       <use xlink:href="#BitstreamVeraSans-Roman-63"/>
       <use x="54.98046875" xlink:href="#BitstreamVeraSans-Roman-6f"/>
       <use x="116.162109375" xlink:href="#BitstreamVeraSans-Roman-75"/>
       <use x="179.541015625" xlink:href="#BitstreamVeraSans-Roman-72"/>
       <use x="220.654296875" xlink:href="#BitstreamVeraSans-Roman-61"/>
       <use x="281.93359375" xlink:href="#BitstreamVeraSans-Roman-67"/>
       <use x="345.41015625" xlink:href="#BitstreamVeraSans-Roman-65"/>
      </g>
     </g>
    </g>
    <g id="xtick_8">
     <g id="line2d_9">
      <path clip-path="url(#p987aef2cb1)" d="M 332.1 324 
L 128.955833 471.592877 
" style="fill:none;stroke:#000000;stroke-dasharray:1.000000,3.000000;stroke-dashoffset:0.0;stroke-width:0.5;"/>
     </g>
     <g id="text_8">
      <!-- charm -->
      <defs>
       <path d="M 54.890625 33.015625 
L 54.890625 0 
L 45.90625 0 
L 45.90625 32.71875 
Q 45.90625 40.484375 42.875 44.328125 
Q 39.84375 48.1875 33.796875 48.1875 
Q 26.515625 48.1875 22.3125 43.546875 
Q 18.109375 38.921875 18.109375 30.90625 
L 18.109375 0 
L 9.078125 0 
L 9.078125 75.984375 
L 18.109375 75.984375 
L 18.109375 46.1875 
Q 21.34375 51.125 25.703125 53.5625 
Q 30.078125 56 35.796875 56 
Q 45.21875 56 50.046875 50.171875 
Q 54.890625 44.34375 54.890625 33.015625 
" id="BitstreamVeraSans-Roman-68"/>
      </defs>
      <g transform="translate(89.5529784837 489.663414536)scale(0.12 -0.12)">
       <use xlink:href="#BitstreamVeraSans-Roman-63"/>
       <use x="54.98046875" xlink:href="#BitstreamVeraSans-Roman-68"/>
       <use x="118.359375" xlink:href="#BitstreamVeraSans-Roman-61"/>
       <use x="179.638671875" xlink:href="#BitstreamVeraSans-Roman-72"/>
       <use x="220.736328125" xlink:href="#BitstreamVeraSans-Roman-6d"/>
      </g>
     </g>
    </g>
    <g id="xtick_9">
     <g id="line2d_10">
      <path clip-path="url(#p987aef2cb1)" d="M 332.1 324 
L 184.507123 527.144167 
" style="fill:none;stroke:#000000;stroke-dasharray:1.000000,3.000000;stroke-dashoffset:0.0;stroke-width:0.5;"/>
     </g>
     <g id="text_9">
      <!-- curiosity -->
      <g transform="translate(144.145647964 550.769834016)scale(0.12 -0.12)">
       <use xlink:href="#BitstreamVeraSans-Roman-63"/>
       <use x="54.98046875" xlink:href="#BitstreamVeraSans-Roman-75"/>
       <use x="118.359375" xlink:href="#BitstreamVeraSans-Roman-72"/>
       <use x="159.47265625" xlink:href="#BitstreamVeraSans-Roman-69"/>
       <use x="187.255859375" xlink:href="#BitstreamVeraSans-Roman-6f"/>
       <use x="248.4375" xlink:href="#BitstreamVeraSans-Roman-73"/>
       <use x="300.537109375" xlink:href="#BitstreamVeraSans-Roman-69"/>
       <use x="328.3203125" xlink:href="#BitstreamVeraSans-Roman-74"/>
       <use x="367.529296875" xlink:href="#BitstreamVeraSans-Roman-79"/>
      </g>
     </g>
    </g>
    <g id="xtick_10">
     <g id="line2d_11">
      <path clip-path="url(#p987aef2cb1)" d="M 332.1 324 
L 254.505833 562.810291 
" style="fill:none;stroke:#000000;stroke-dasharray:1.000000,3.000000;stroke-dashoffset:0.0;stroke-width:0.5;"/>
     </g>
     <g id="text_10">
      <!-- humility -->
      <g transform="translate(222.392978484 590.002570366)scale(0.12 -0.12)">
       <use xlink:href="#BitstreamVeraSans-Roman-68"/>
       <use x="63.37890625" xlink:href="#BitstreamVeraSans-Roman-75"/>
       <use x="126.7578125" xlink:href="#BitstreamVeraSans-Roman-6d"/>
       <use x="224.169921875" xlink:href="#BitstreamVeraSans-Roman-69"/>
       <use x="251.953125" xlink:href="#BitstreamVeraSans-Roman-6c"/>
       <use x="279.736328125" xlink:href="#BitstreamVeraSans-Roman-69"/>
       <use x="307.51953125" xlink:href="#BitstreamVeraSans-Roman-74"/>
       <use x="346.728515625" xlink:href="#BitstreamVeraSans-Roman-79"/>
      </g>
     </g>
    </g>
    <g id="xtick_11">
     <g id="line2d_12">
      <path clip-path="url(#p987aef2cb1)" d="M 332.1 324 
L 332.1 575.1 
" style="fill:none;stroke:#000000;stroke-dasharray:1.000000,3.000000;stroke-dashoffset:0.0;stroke-width:0.5;"/>
     </g>
     <g id="text_11">
      <!-- vivacity -->
      <defs>
       <path d="M 2.984375 54.6875 
L 12.5 54.6875 
L 29.59375 8.796875 
L 46.6875 54.6875 
L 56.203125 54.6875 
L 35.6875 0 
L 23.484375 0 
z
" id="BitstreamVeraSans-Roman-76"/>
      </defs>
      <g transform="translate(308.784375 603.52125)scale(0.12 -0.12)">
       <use xlink:href="#BitstreamVeraSans-Roman-76"/>
       <use x="59.1796875" xlink:href="#BitstreamVeraSans-Roman-69"/>
       <use x="86.962890625" xlink:href="#BitstreamVeraSans-Roman-76"/>
       <use x="146.142578125" xlink:href="#BitstreamVeraSans-Roman-61"/>
       <use x="207.421875" xlink:href="#BitstreamVeraSans-Roman-63"/>
       <use x="262.40234375" xlink:href="#BitstreamVeraSans-Roman-69"/>
       <use x="290.185546875" xlink:href="#BitstreamVeraSans-Roman-74"/>
       <use x="329.39453125" xlink:href="#BitstreamVeraSans-Roman-79"/>
      </g>
     </g>
    </g>
    <g id="xtick_12">
     <g id="line2d_13">
      <path clip-path="url(#p987aef2cb1)" d="M 332.1 324 
L 409.694167 562.810291 
" style="fill:none;stroke:#000000;stroke-dasharray:1.000000,3.000000;stroke-dashoffset:0.0;stroke-width:0.5;"/>
     </g>
     <g id="text_12">
      <!-- self_preservation -->
      <defs>
       <path d="M 37.109375 75.984375 
L 37.109375 68.5 
L 28.515625 68.5 
Q 23.6875 68.5 21.796875 66.546875 
Q 19.921875 64.59375 19.921875 59.515625 
L 19.921875 54.6875 
L 34.71875 54.6875 
L 34.71875 47.703125 
L 19.921875 47.703125 
L 19.921875 0 
L 10.890625 0 
L 10.890625 47.703125 
L 2.296875 47.703125 
L 2.296875 54.6875 
L 10.890625 54.6875 
L 10.890625 58.5 
Q 10.890625 67.625 15.140625 71.796875 
Q 19.390625 75.984375 28.609375 75.984375 
z
" id="BitstreamVeraSans-Roman-66"/>
       <path d="M 18.109375 8.203125 
L 18.109375 -20.796875 
L 9.078125 -20.796875 
L 9.078125 54.6875 
L 18.109375 54.6875 
L 18.109375 46.390625 
Q 20.953125 51.265625 25.265625 53.625 
Q 29.59375 56 35.59375 56 
Q 45.5625 56 51.78125 48.09375 
Q 58.015625 40.1875 58.015625 27.296875 
Q 58.015625 14.40625 51.78125 6.484375 
Q 45.5625 -1.421875 35.59375 -1.421875 
Q 29.59375 -1.421875 25.265625 0.953125 
Q 20.953125 3.328125 18.109375 8.203125 
M 48.6875 27.296875 
Q 48.6875 37.203125 44.609375 42.84375 
Q 40.53125 48.484375 33.40625 48.484375 
Q 26.265625 48.484375 22.1875 42.84375 
Q 18.109375 37.203125 18.109375 27.296875 
Q 18.109375 17.390625 22.1875 11.75 
Q 26.265625 6.109375 33.40625 6.109375 
Q 40.53125 6.109375 44.609375 11.75 
Q 48.6875 17.390625 48.6875 27.296875 
" id="BitstreamVeraSans-Roman-70"/>
       <path d="M 50.984375 -16.609375 
L 50.984375 -23.578125 
L -0.984375 -23.578125 
L -0.984375 -16.609375 
z
" id="BitstreamVeraSans-Roman-5f"/>
      </defs>
      <g transform="translate(365.886396516 589.835695366)scale(0.12 -0.12)">
       <use xlink:href="#BitstreamVeraSans-Roman-73"/>
       <use x="52.099609375" xlink:href="#BitstreamVeraSans-Roman-65"/>
       <use x="113.623046875" xlink:href="#BitstreamVeraSans-Roman-6c"/>
       <use x="141.40625" xlink:href="#BitstreamVeraSans-Roman-66"/>
       <use x="176.611328125" xlink:href="#BitstreamVeraSans-Roman-5f"/>
       <use x="226.611328125" xlink:href="#BitstreamVeraSans-Roman-70"/>
       <use x="290.087890625" xlink:href="#BitstreamVeraSans-Roman-72"/>
       <use x="331.169921875" xlink:href="#BitstreamVeraSans-Roman-65"/>
       <use x="392.693359375" xlink:href="#BitstreamVeraSans-Roman-73"/>
       <use x="444.79296875" xlink:href="#BitstreamVeraSans-Roman-65"/>
       <use x="506.31640625" xlink:href="#BitstreamVeraSans-Roman-72"/>
       <use x="547.4296875" xlink:href="#BitstreamVeraSans-Roman-76"/>
       <use x="606.609375" xlink:href="#BitstreamVeraSans-Roman-61"/>
       <use x="667.888671875" xlink:href="#BitstreamVeraSans-Roman-74"/>
       <use x="707.09765625" xlink:href="#BitstreamVeraSans-Roman-69"/>
       <use x="734.880859375" xlink:href="#BitstreamVeraSans-Roman-6f"/>
       <use x="796.0625" xlink:href="#BitstreamVeraSans-Roman-6e"/>
      </g>
     </g>
    </g>
    <g id="xtick_13">
     <g id="line2d_14">
      <path clip-path="url(#p987aef2cb1)" d="M 332.1 324 
L 479.692877 527.144167 
" style="fill:none;stroke:#000000;stroke-dasharray:1.000000,3.000000;stroke-dashoffset:0.0;stroke-width:0.5;"/>
     </g>
     <g id="text_13">
      <!-- dicisiveness -->
      <g transform="translate(458.229039536 550.769834016)scale(0.12 -0.12)">
       <use xlink:href="#BitstreamVeraSans-Roman-64"/>
       <use x="63.4765625" xlink:href="#BitstreamVeraSans-Roman-69"/>
       <use x="91.259765625" xlink:href="#BitstreamVeraSans-Roman-63"/>
       <use x="146.240234375" xlink:href="#BitstreamVeraSans-Roman-69"/>
       <use x="174.0234375" xlink:href="#BitstreamVeraSans-Roman-73"/>
       <use x="226.123046875" xlink:href="#BitstreamVeraSans-Roman-69"/>
       <use x="253.90625" xlink:href="#BitstreamVeraSans-Roman-76"/>
       <use x="313.0859375" xlink:href="#BitstreamVeraSans-Roman-65"/>
       <use x="374.609375" xlink:href="#BitstreamVeraSans-Roman-6e"/>
       <use x="437.98828125" xlink:href="#BitstreamVeraSans-Roman-65"/>
       <use x="499.51171875" xlink:href="#BitstreamVeraSans-Roman-73"/>
       <use x="551.611328125" xlink:href="#BitstreamVeraSans-Roman-73"/>
      </g>
     </g>
    </g>
    <g id="xtick_14">
     <g id="line2d_15">
      <path clip-path="url(#p987aef2cb1)" d="M 332.1 324 
L 535.244167 471.592877 
" style="fill:none;stroke:#000000;stroke-dasharray:1.000000,3.000000;stroke-dashoffset:0.0;stroke-width:0.5;"/>
     </g>
     <g id="text_14">
      <!-- coordination -->
      <g transform="translate(518.003271516 489.663414536)scale(0.12 -0.12)">
       <use xlink:href="#BitstreamVeraSans-Roman-63"/>
       <use x="54.98046875" xlink:href="#BitstreamVeraSans-Roman-6f"/>
       <use x="116.162109375" xlink:href="#BitstreamVeraSans-Roman-6f"/>
       <use x="177.34375" xlink:href="#BitstreamVeraSans-Roman-72"/>
       <use x="218.44140625" xlink:href="#BitstreamVeraSans-Roman-64"/>
       <use x="281.91796875" xlink:href="#BitstreamVeraSans-Roman-69"/>
       <use x="309.701171875" xlink:href="#BitstreamVeraSans-Roman-6e"/>
       <use x="373.080078125" xlink:href="#BitstreamVeraSans-Roman-61"/>
       <use x="434.359375" xlink:href="#BitstreamVeraSans-Roman-74"/>
       <use x="473.568359375" xlink:href="#BitstreamVeraSans-Roman-69"/>
       <use x="501.3515625" xlink:href="#BitstreamVeraSans-Roman-6f"/>
       <use x="562.533203125" xlink:href="#BitstreamVeraSans-Roman-6e"/>
      </g>
     </g>
    </g>
    <g id="xtick_15">
     <g id="line2d_16">
      <path clip-path="url(#p987aef2cb1)" d="M 332.1 324 
L 570.910291 401.594167 
" style="fill:none;stroke:#000000;stroke-dasharray:1.000000,3.000000;stroke-dashoffset:0.0;stroke-width:0.5;"/>
     </g>
     <g id="text_15">
      <!-- aggression -->
      <g transform="translate(561.947882866 412.664834016)scale(0.12 -0.12)">
       <use xlink:href="#BitstreamVeraSans-Roman-61"/>
       <use x="61.279296875" xlink:href="#BitstreamVeraSans-Roman-67"/>
       <use x="124.755859375" xlink:href="#BitstreamVeraSans-Roman-67"/>
       <use x="188.232421875" xlink:href="#BitstreamVeraSans-Roman-72"/>
       <use x="229.314453125" xlink:href="#BitstreamVeraSans-Roman-65"/>
       <use x="290.837890625" xlink:href="#BitstreamVeraSans-Roman-73"/>
       <use x="342.9375" xlink:href="#BitstreamVeraSans-Roman-73"/>
       <use x="395.037109375" xlink:href="#BitstreamVeraSans-Roman-69"/>
       <use x="422.8203125" xlink:href="#BitstreamVeraSans-Roman-6f"/>
       <use x="484.001953125" xlink:href="#BitstreamVeraSans-Roman-6e"/>
      </g>
     </g>
    </g>
    <g id="xtick_16">
     <g id="line2d_17">
      <path clip-path="url(#p987aef2cb1)" d="M 332.1 324 
L 583.2 324 
" style="fill:none;stroke:#000000;stroke-dasharray:1.000000,3.000000;stroke-dashoffset:0.0;stroke-width:0.5;"/>
     </g>
     <g id="text_16">
      <!-- empathy -->
      <g transform="translate(581.581875 327.31125)scale(0.12 -0.12)">
       <use xlink:href="#BitstreamVeraSans-Roman-65"/>
       <use x="61.5234375" xlink:href="#BitstreamVeraSans-Roman-6d"/>
       <use x="158.935546875" xlink:href="#BitstreamVeraSans-Roman-70"/>
       <use x="222.412109375" xlink:href="#BitstreamVeraSans-Roman-61"/>
       <use x="283.69140625" xlink:href="#BitstreamVeraSans-Roman-74"/>
       <use x="322.900390625" xlink:href="#BitstreamVeraSans-Roman-68"/>
       <use x="386.279296875" xlink:href="#BitstreamVeraSans-Roman-79"/>
      </g>
     </g>
    </g>
    <g id="xtick_17">
     <g id="line2d_18">
      <path clip-path="url(#p987aef2cb1)" d="M 332.1 324 
L 570.910291 246.405833 
" style="fill:none;stroke:#000000;stroke-dasharray:1.000000,3.000000;stroke-dashoffset:0.0;stroke-width:0.5;"/>
     </g>
     <g id="text_17">
      <!-- humor -->
      <g transform="translate(575.204132866 241.957665984)scale(0.12 -0.12)">
       <use xlink:href="#BitstreamVeraSans-Roman-68"/>
       <use x="63.37890625" xlink:href="#BitstreamVeraSans-Roman-75"/>
       <use x="126.7578125" xlink:href="#BitstreamVeraSans-Roman-6d"/>
       <use x="224.169921875" xlink:href="#BitstreamVeraSans-Roman-6f"/>
       <use x="285.3515625" xlink:href="#BitstreamVeraSans-Roman-72"/>
      </g>
     </g>
    </g>
    <g id="xtick_18">
     <g id="line2d_19">
      <path clip-path="url(#p987aef2cb1)" d="M 332.1 324 
L 535.244167 176.407123 
" style="fill:none;stroke:#000000;stroke-dasharray:1.000000,3.000000;stroke-dashoffset:0.0;stroke-width:0.5;"/>
     </g>
     <g id="text_18">
      <!-- patience -->
      <g transform="translate(529.568271516 164.959085464)scale(0.12 -0.12)">
       <use xlink:href="#BitstreamVeraSans-Roman-70"/>
       <use x="63.4765625" xlink:href="#BitstreamVeraSans-Roman-61"/>
       <use x="124.755859375" xlink:href="#BitstreamVeraSans-Roman-74"/>
       <use x="163.96484375" xlink:href="#BitstreamVeraSans-Roman-69"/>
       <use x="191.748046875" xlink:href="#BitstreamVeraSans-Roman-65"/>
       <use x="253.271484375" xlink:href="#BitstreamVeraSans-Roman-6e"/>
       <use x="316.650390625" xlink:href="#BitstreamVeraSans-Roman-63"/>
       <use x="371.630859375" xlink:href="#BitstreamVeraSans-Roman-65"/>
      </g>
     </g>
    </g>
    <g id="xtick_19">
     <g id="line2d_20">
      <path clip-path="url(#p987aef2cb1)" d="M 332.1 324 
L 479.692877 120.855833 
" style="fill:none;stroke:#000000;stroke-dasharray:1.000000,3.000000;stroke-dashoffset:0.0;stroke-width:0.5;"/>
     </g>
     <g id="text_19">
      <!-- bulk_apperception -->
      <defs>
       <path d="M 9.078125 75.984375 
L 18.109375 75.984375 
L 18.109375 31.109375 
L 44.921875 54.6875 
L 56.390625 54.6875 
L 27.390625 29.109375 
L 57.625 0 
L 45.90625 0 
L 18.109375 26.703125 
L 18.109375 0 
L 9.078125 0 
z
" id="BitstreamVeraSans-Roman-6b"/>
       <path d="M 48.6875 27.296875 
Q 48.6875 37.203125 44.609375 42.84375 
Q 40.53125 48.484375 33.40625 48.484375 
Q 26.265625 48.484375 22.1875 42.84375 
Q 18.109375 37.203125 18.109375 27.296875 
Q 18.109375 17.390625 22.1875 11.75 
Q 26.265625 6.109375 33.40625 6.109375 
Q 40.53125 6.109375 44.609375 11.75 
Q 48.6875 17.390625 48.6875 27.296875 
M 18.109375 46.390625 
Q 20.953125 51.265625 25.265625 53.625 
Q 29.59375 56 35.59375 56 
Q 45.5625 56 51.78125 48.09375 
Q 58.015625 40.1875 58.015625 27.296875 
Q 58.015625 14.40625 51.78125 6.484375 
Q 45.5625 -1.421875 35.59375 -1.421875 
Q 29.59375 -1.421875 25.265625 0.953125 
Q 20.953125 3.328125 18.109375 8.203125 
L 18.109375 0 
L 9.078125 0 
L 9.078125 75.984375 
L 18.109375 75.984375 
z
" id="BitstreamVeraSans-Roman-62"/>
      </defs>
      <g transform="translate(438.954977036 103.685790984)scale(0.12 -0.12)">
       <use xlink:href="#BitstreamVeraSans-Roman-62"/>
       <use x="63.4765625" xlink:href="#BitstreamVeraSans-Roman-75"/>
       <use x="126.85546875" xlink:href="#BitstreamVeraSans-Roman-6c"/>
       <use x="154.638671875" xlink:href="#BitstreamVeraSans-Roman-6b"/>
       <use x="212.548828125" xlink:href="#BitstreamVeraSans-Roman-5f"/>
       <use x="262.548828125" xlink:href="#BitstreamVeraSans-Roman-61"/>
       <use x="323.828125" xlink:href="#BitstreamVeraSans-Roman-70"/>
       <use x="387.3046875" xlink:href="#BitstreamVeraSans-Roman-70"/>
       <use x="450.78125" xlink:href="#BitstreamVeraSans-Roman-65"/>
       <use x="512.3046875" xlink:href="#BitstreamVeraSans-Roman-72"/>
       <use x="553.38671875" xlink:href="#BitstreamVeraSans-Roman-63"/>
       <use x="608.3671875" xlink:href="#BitstreamVeraSans-Roman-65"/>
       <use x="669.890625" xlink:href="#BitstreamVeraSans-Roman-70"/>
       <use x="733.3671875" xlink:href="#BitstreamVeraSans-Roman-74"/>
       <use x="772.576171875" xlink:href="#BitstreamVeraSans-Roman-69"/>
       <use x="800.359375" xlink:href="#BitstreamVeraSans-Roman-6f"/>
       <use x="861.541015625" xlink:href="#BitstreamVeraSans-Roman-6e"/>
      </g>
     </g>
    </g>
    <g id="xtick_20">
     <g id="line2d_21">
      <path clip-path="url(#p987aef2cb1)" d="M 332.1 324 
L 409.694167 85.189709 
" style="fill:none;stroke:#000000;stroke-dasharray:1.000000,3.000000;stroke-dashoffset:0.0;stroke-width:0.5;"/>
     </g>
     <g id="text_20">
      <!-- meekness -->
      <g transform="translate(387.005459016 64.6199296341)scale(0.12 -0.12)">
       <use xlink:href="#BitstreamVeraSans-Roman-6d"/>
       <use x="97.412109375" xlink:href="#BitstreamVeraSans-Roman-65"/>
       <use x="158.935546875" xlink:href="#BitstreamVeraSans-Roman-65"/>
       <use x="220.458984375" xlink:href="#BitstreamVeraSans-Roman-6b"/>
       <use x="278.369140625" xlink:href="#BitstreamVeraSans-Roman-6e"/>
       <use x="341.748046875" xlink:href="#BitstreamVeraSans-Roman-65"/>
       <use x="403.271484375" xlink:href="#BitstreamVeraSans-Roman-73"/>
       <use x="455.37109375" xlink:href="#BitstreamVeraSans-Roman-73"/>
      </g>
     </g>
    </g>
   </g>
   <g id="matplotlib.axis_2">
    <g id="ytick_1">
     <g id="line2d_22">
      <path clip-path="url(#p987aef2cb1)" d="M 383.405098 324 
L 383.373844 322.209478 
L 383.280121 320.421137 
L 382.9058 316.85971 
L 382.283958 313.33307 
L 381.417625 309.858399 
L 380.311022 306.452623 
L 378.969539 303.132337 
L 377.399713 299.913716 
L 375.60919 296.81244 
L 373.606696 293.84362 
L 371.401985 291.021719 
L 369.005799 288.360484 
L 366.429811 285.872882 
L 363.686572 283.571031 
L 360.789447 281.466146 
L 357.752549 279.568482 
L 354.590675 277.887284 
L 351.319228 276.430742 
L 347.954147 275.205952 
L 344.511827 274.218883 
L 341.009037 273.474342 
L 337.462843 272.975957 
L 333.890522 272.726156 
L 330.309478 272.726156 
L 326.737157 272.975957 
L 323.190963 273.474342 
L 319.688173 274.218883 
L 316.245853 275.205952 
L 312.880772 276.430742 
L 309.609325 277.887284 
L 306.447451 279.568482 
L 303.410553 281.466146 
L 300.513428 283.571031 
L 297.770189 285.872882 
L 295.194201 288.360484 
L 292.798015 291.021719 
L 290.593304 293.84362 
L 288.59081 296.81244 
L 286.800287 299.913716 
L 285.230461 303.132337 
L 283.888978 306.452623 
L 282.782375 309.858399 
L 281.916042 313.33307 
L 281.2942 316.85971 
L 280.919879 320.421137 
L 280.794902 324 
L 280.919879 327.578863 
L 281.2942 331.14029 
L 281.916042 334.66693 
L 282.782375 338.141601 
L 283.888978 341.547377 
L 285.230461 344.867663 
L 286.800287 348.086284 
L 288.59081 351.18756 
L 290.593304 354.15638 
L 292.798015 356.978281 
L 295.194201 359.639516 
L 297.770189 362.127118 
L 300.513428 364.428969 
L 303.410553 366.533854 
L 306.447451 368.431518 
L 309.609325 370.112716 
L 312.880772 371.569258 
L 316.245853 372.794048 
L 319.688173 373.781117 
L 323.190963 374.525658 
L 326.737157 375.024043 
L 330.309478 375.273844 
L 333.890522 375.273844 
L 337.462843 375.024043 
L 341.009037 374.525658 
L 344.511827 373.781117 
L 347.954147 372.794048 
L 351.319228 371.569258 
L 354.590675 370.112716 
L 357.752549 368.431518 
L 360.789447 366.533854 
L 363.686572 364.428969 
L 366.429811 362.127118 
L 369.005799 359.639516 
L 371.401985 356.978281 
L 373.606696 354.15638 
L 375.60919 351.18756 
L 377.399713 348.086284 
L 378.969539 344.867663 
L 380.311022 341.547377 
L 381.417625 338.141601 
L 382.283958 334.66693 
L 382.9058 331.14029 
L 383.280121 327.578863 
L 383.405098 324 
L 383.405098 324 
" style="fill:none;stroke:#000000;stroke-dasharray:1.000000,3.000000;stroke-dashoffset:0.0;stroke-width:0.5;"/>
     </g>
     <g id="text_21">
      <!-- 0.2 -->
      <defs>
       <path d="M 19.1875 8.296875 
L 53.609375 8.296875 
L 53.609375 0 
L 7.328125 0 
L 7.328125 8.296875 
Q 12.9375 14.109375 22.625 23.890625 
Q 32.328125 33.6875 34.8125 36.53125 
Q 39.546875 41.84375 41.421875 45.53125 
Q 43.3125 49.21875 43.3125 52.78125 
Q 43.3125 58.59375 39.234375 62.25 
Q 35.15625 65.921875 28.609375 65.921875 
Q 23.96875 65.921875 18.8125 64.3125 
Q 13.671875 62.703125 7.8125 59.421875 
L 7.8125 69.390625 
Q 13.765625 71.78125 18.9375 73 
Q 24.125 74.21875 28.421875 74.21875 
Q 39.75 74.21875 46.484375 68.546875 
Q 53.21875 62.890625 53.21875 53.421875 
Q 53.21875 48.921875 51.53125 44.890625 
Q 49.859375 40.875 45.40625 35.40625 
Q 44.1875 33.984375 37.640625 27.21875 
Q 31.109375 20.453125 19.1875 8.296875 
" id="BitstreamVeraSans-Roman-32"/>
       <path d="M 31.78125 66.40625 
Q 24.171875 66.40625 20.328125 58.90625 
Q 16.5 51.421875 16.5 36.375 
Q 16.5 21.390625 20.328125 13.890625 
Q 24.171875 6.390625 31.78125 6.390625 
Q 39.453125 6.390625 43.28125 13.890625 
Q 47.125 21.390625 47.125 36.375 
Q 47.125 51.421875 43.28125 58.90625 
Q 39.453125 66.40625 31.78125 66.40625 
M 31.78125 74.21875 
Q 44.046875 74.21875 50.515625 64.515625 
Q 56.984375 54.828125 56.984375 36.375 
Q 56.984375 17.96875 50.515625 8.265625 
Q 44.046875 -1.421875 31.78125 -1.421875 
Q 19.53125 -1.421875 13.0625 8.265625 
Q 6.59375 17.96875 6.59375 36.375 
Q 6.59375 54.828125 13.0625 64.515625 
Q 19.53125 74.21875 31.78125 74.21875 
" id="BitstreamVeraSans-Roman-30"/>
       <path d="M 10.6875 12.40625 
L 21 12.40625 
L 21 0 
L 10.6875 0 
z
" id="BitstreamVeraSans-Roman-2e"/>
      </defs>
      <g transform="translate(379.499729757 301.870764082)scale(0.12 -0.12)">
       <use xlink:href="#BitstreamVeraSans-Roman-30"/>
       <use x="63.623046875" xlink:href="#BitstreamVeraSans-Roman-2e"/>
       <use x="95.41015625" xlink:href="#BitstreamVeraSans-Roman-32"/>
      </g>
     </g>
    </g>
    <g id="ytick_2">
     <g id="line2d_23">
      <path clip-path="url(#p987aef2cb1)" d="M 434.903021 324 
L 434.840396 320.412226 
L 434.652598 316.828824 
L 434.339855 313.254158 
L 433.902549 309.692585 
L 433.341212 306.148443 
L 432.656528 302.62605 
L 431.849332 299.129698 
L 430.920606 295.663647 
L 429.871483 292.23212 
L 428.70324 288.839296 
L 427.417301 285.489311 
L 426.015233 282.186244 
L 424.498743 278.934122 
L 422.86968 275.736905 
L 421.130028 272.59849 
L 419.281906 269.522699 
L 417.327567 266.51328 
L 415.269391 263.573901 
L 413.109886 260.708141 
L 410.851683 257.919492 
L 408.497533 255.211352 
L 406.050304 252.587021 
L 403.512979 250.049696 
L 400.888648 247.602467 
L 398.180508 245.248317 
L 395.391859 242.990114 
L 392.526099 240.830609 
L 389.58672 238.772433 
L 386.577301 236.818094 
L 383.50151 234.969972 
L 380.363095 233.23032 
L 377.165878 231.601257 
L 373.913756 230.084767 
L 370.610689 228.682699 
L 367.260704 227.39676 
L 363.86788 226.228517 
L 360.436353 225.179394 
L 356.970302 224.250668 
L 353.47395 223.443472 
L 349.951557 222.758788 
L 346.407415 222.197451 
L 342.845842 221.760145 
L 339.271176 221.447402 
L 335.687774 221.259604 
L 332.1 221.196979 
L 328.512226 221.259604 
L 324.928824 221.447402 
L 321.354158 221.760145 
L 317.792585 222.197451 
L 314.248443 222.758788 
L 310.72605 223.443472 
L 307.229698 224.250668 
L 303.763647 225.179394 
L 300.33212 226.228517 
L 296.939296 227.39676 
L 293.589311 228.682699 
L 290.286244 230.084767 
L 287.034122 231.601257 
L 283.836905 233.23032 
L 280.69849 234.969972 
L 277.622699 236.818094 
L 274.61328 238.772433 
L 271.673901 240.830609 
L 268.808141 242.990114 
L 266.019492 245.248317 
L 263.311352 247.602467 
L 260.687021 250.049696 
L 258.149696 252.587021 
L 255.702467 255.211352 
L 253.348317 257.919492 
L 251.090114 260.708141 
L 248.930609 263.573901 
L 246.872433 266.51328 
L 244.918094 269.522699 
L 243.069972 272.59849 
L 241.33032 275.736905 
L 239.701257 278.934122 
L 238.184767 282.186244 
L 236.782699 285.489311 
L 235.49676 288.839296 
L 234.328517 292.23212 
L 233.279394 295.663647 
L 232.350668 299.129698 
L 231.543472 302.62605 
L 230.858788 306.148443 
L 230.297451 309.692585 
L 229.860145 313.254158 
L 229.547402 316.828824 
L 229.359604 320.412226 
L 229.296979 324 
L 229.359604 327.587774 
L 229.547402 331.171176 
L 229.860145 334.745842 
L 230.297451 338.307415 
L 230.858788 341.851557 
L 231.543472 345.37395 
L 232.350668 348.870302 
L 233.279394 352.336353 
L 234.328517 355.76788 
L 235.49676 359.160704 
L 236.782699 362.510689 
L 238.184767 365.813756 
L 239.701257 369.065878 
L 241.33032 372.263095 
L 243.069972 375.40151 
L 244.918094 378.477301 
L 246.872433 381.48672 
L 248.930609 384.426099 
L 251.090114 387.291859 
L 253.348317 390.080508 
L 255.702467 392.788648 
L 258.149696 395.412979 
L 260.687021 397.950304 
L 263.311352 400.397533 
L 266.019492 402.751683 
L 268.808141 405.009886 
L 271.673901 407.169391 
L 274.61328 409.227567 
L 277.622699 411.181906 
L 280.69849 413.030028 
L 283.836905 414.76968 
L 287.034122 416.398743 
L 290.286244 417.915233 
L 293.589311 419.317301 
L 296.939296 420.60324 
L 300.33212 421.771483 
L 303.763647 422.820606 
L 307.229698 423.749332 
L 310.72605 424.556528 
L 314.248443 425.241212 
L 317.792585 425.802549 
L 321.354158 426.239855 
L 324.928824 426.552598 
L 328.512226 426.740396 
L 332.1 426.803021 
L 335.687774 426.740396 
L 339.271176 426.552598 
L 342.845842 426.239855 
L 346.407415 425.802549 
L 349.951557 425.241212 
L 353.47395 424.556528 
L 356.970302 423.749332 
L 360.436353 422.820606 
L 363.86788 421.771483 
L 367.260704 420.60324 
L 370.610689 419.317301 
L 373.913756 417.915233 
L 377.165878 416.398743 
L 380.363095 414.76968 
L 383.50151 413.030028 
L 386.577301 411.181906 
L 389.58672 409.227567 
L 392.526099 407.169391 
L 395.391859 405.009886 
L 398.180508 402.751683 
L 400.888648 400.397533 
L 403.512979 397.950304 
L 406.050304 395.412979 
L 408.497533 392.788648 
L 410.851683 390.080508 
L 413.109886 387.291859 
L 415.269391 384.426099 
L 417.327567 381.48672 
L 419.281906 378.477301 
L 421.130028 375.40151 
L 422.86968 372.263095 
L 424.498743 369.065878 
L 426.015233 365.813756 
L 427.417301 362.510689 
L 428.70324 359.160704 
L 429.871483 355.76788 
L 430.920606 352.336353 
L 431.849332 348.870302 
L 432.656528 345.37395 
L 433.341212 341.851557 
L 433.902549 338.307415 
L 434.339855 334.745842 
L 434.652598 331.171176 
L 434.840396 327.587774 
L 434.903021 324 
L 434.903021 324 
" style="fill:none;stroke:#000000;stroke-dasharray:1.000000,3.000000;stroke-dashoffset:0.0;stroke-width:0.5;"/>
     </g>
     <g id="text_22">
      <!-- 0.4 -->
      <defs>
       <path d="M 37.796875 64.3125 
L 12.890625 25.390625 
L 37.796875 25.390625 
z
M 35.203125 72.90625 
L 47.609375 72.90625 
L 47.609375 25.390625 
L 58.015625 25.390625 
L 58.015625 17.1875 
L 47.609375 17.1875 
L 47.609375 0 
L 37.796875 0 
L 37.796875 17.1875 
L 4.890625 17.1875 
L 4.890625 26.703125 
z
" id="BitstreamVeraSans-Roman-34"/>
      </defs>
      <g transform="translate(427.077606696 282.163362185)scale(0.12 -0.12)">
       <use xlink:href="#BitstreamVeraSans-Roman-30"/>
       <use x="63.623046875" xlink:href="#BitstreamVeraSans-Roman-2e"/>
       <use x="95.41015625" xlink:href="#BitstreamVeraSans-Roman-34"/>
      </g>
     </g>
    </g>
    <g id="ytick_3">
     <g id="line2d_24">
      <path clip-path="url(#p987aef2cb1)" d="M 486.400944 324 
L 486.306948 318.614975 
L 486.025074 313.23651 
L 485.555667 307.871159 
L 484.899297 302.525459 
L 484.056766 297.205922 
L 483.029098 291.91903 
L 481.817546 286.671223 
L 480.423587 281.468896 
L 478.848918 276.318386 
L 477.095458 271.225969 
L 475.165344 266.197849 
L 473.060926 261.240152 
L 470.784769 256.358918 
L 468.339647 251.560095 
L 465.728537 246.849528 
L 462.954621 242.232957 
L 460.02128 237.716007 
L 456.932086 233.304181 
L 453.690803 229.002853 
L 450.30138 224.817265 
L 446.767948 220.752516 
L 443.09481 216.813558 
L 439.286442 213.00519 
L 435.347484 209.332052 
L 431.282735 205.79862 
L 427.097147 202.409197 
L 422.795819 199.167914 
L 418.383993 196.07872 
L 413.867043 193.145379 
L 409.250472 190.371463 
L 404.539905 187.760353 
L 399.741082 185.315231 
L 394.859848 183.039074 
L 389.902151 180.934656 
L 384.874031 179.004542 
L 379.781614 177.251082 
L 374.631104 175.676413 
L 369.428777 174.282454 
L 364.18097 173.070902 
L 358.894078 172.043234 
L 353.574541 171.200703 
L 348.228841 170.544333 
L 342.86349 170.074926 
L 337.485025 169.793052 
L 332.1 169.699056 
L 326.714975 169.793052 
L 321.33651 170.074926 
L 315.971159 170.544333 
L 310.625459 171.200703 
L 305.305922 172.043234 
L 300.01903 173.070902 
L 294.771223 174.282454 
L 289.568896 175.676413 
L 284.418386 177.251082 
L 279.325969 179.004542 
L 274.297849 180.934656 
L 269.340152 183.039074 
L 264.458918 185.315231 
L 259.660095 187.760353 
L 254.949528 190.371463 
L 250.332957 193.145379 
L 245.816007 196.07872 
L 241.404181 199.167914 
L 237.102853 202.409197 
L 232.917265 205.79862 
L 228.852516 209.332052 
L 224.913558 213.00519 
L 221.10519 216.813558 
L 217.432052 220.752516 
L 213.89862 224.817265 
L 210.509197 229.002853 
L 207.267914 233.304181 
L 204.17872 237.716007 
L 201.245379 242.232957 
L 198.471463 246.849528 
L 195.860353 251.560095 
L 193.415231 256.358918 
L 191.139074 261.240152 
L 189.034656 266.197849 
L 187.104542 271.225969 
L 185.351082 276.318386 
L 183.776413 281.468896 
L 182.382454 286.671223 
L 181.170902 291.91903 
L 180.143234 297.205922 
L 179.300703 302.525459 
L 178.644333 307.871159 
L 178.174926 313.23651 
L 177.893052 318.614975 
L 177.799056 324 
L 177.893052 329.385025 
L 178.174926 334.76349 
L 178.644333 340.128841 
L 179.300703 345.474541 
L 180.143234 350.794078 
L 181.170902 356.08097 
L 182.382454 361.328777 
L 183.776413 366.531104 
L 185.351082 371.681614 
L 187.104542 376.774031 
L 189.034656 381.802151 
L 191.139074 386.759848 
L 193.415231 391.641082 
L 195.860353 396.439905 
L 198.471463 401.150472 
L 201.245379 405.767043 
L 204.17872 410.283993 
L 207.267914 414.695819 
L 210.509197 418.997147 
L 213.89862 423.182735 
L 217.432052 427.247484 
L 221.10519 431.186442 
L 224.913558 434.99481 
L 228.852516 438.667948 
L 232.917265 442.20138 
L 237.102853 445.590803 
L 241.404181 448.832086 
L 245.816007 451.92128 
L 250.332957 454.854621 
L 254.949528 457.628537 
L 259.660095 460.239647 
L 264.458918 462.684769 
L 269.340152 464.960926 
L 274.297849 467.065344 
L 279.325969 468.995458 
L 284.418386 470.748918 
L 289.568896 472.323587 
L 294.771223 473.717546 
L 300.01903 474.929098 
L 305.305922 475.956766 
L 310.625459 476.799297 
L 315.971159 477.455667 
L 321.33651 477.925074 
L 326.714975 478.206948 
L 332.1 478.300944 
L 337.485025 478.206948 
L 342.86349 477.925074 
L 348.228841 477.455667 
L 353.574541 476.799297 
L 358.894078 475.956766 
L 364.18097 474.929098 
L 369.428777 473.717546 
L 374.631104 472.323587 
L 379.781614 470.748918 
L 384.874031 468.995458 
L 389.902151 467.065344 
L 394.859848 464.960926 
L 399.741082 462.684769 
L 404.539905 460.239647 
L 409.250472 457.628537 
L 413.867043 454.854621 
L 418.383993 451.92128 
L 422.795819 448.832086 
L 427.097147 445.590803 
L 431.282735 442.20138 
L 435.347484 438.667948 
L 439.286442 434.99481 
L 443.09481 431.186442 
L 446.767948 427.247484 
L 450.30138 423.182735 
L 453.690803 418.997147 
L 456.932086 414.695819 
L 460.02128 410.283993 
L 462.954621 405.767043 
L 465.728537 401.150472 
L 468.339647 396.439905 
L 470.784769 391.641082 
L 473.060926 386.759848 
L 475.165344 381.802151 
L 477.095458 376.774031 
L 478.848918 371.681614 
L 480.423587 366.531104 
L 481.817546 361.328777 
L 483.029098 356.08097 
L 484.056766 350.794078 
L 484.899297 345.474541 
L 485.555667 340.128841 
L 486.025074 334.76349 
L 486.306948 329.385025 
L 486.400944 324 
L 486.400944 324 
" style="fill:none;stroke:#000000;stroke-dasharray:1.000000,3.000000;stroke-dashoffset:0.0;stroke-width:0.5;"/>
     </g>
     <g id="text_23">
      <!-- 0.6 -->
      <defs>
       <path d="M 33.015625 40.375 
Q 26.375 40.375 22.484375 35.828125 
Q 18.609375 31.296875 18.609375 23.390625 
Q 18.609375 15.53125 22.484375 10.953125 
Q 26.375 6.390625 33.015625 6.390625 
Q 39.65625 6.390625 43.53125 10.953125 
Q 47.40625 15.53125 47.40625 23.390625 
Q 47.40625 31.296875 43.53125 35.828125 
Q 39.65625 40.375 33.015625 40.375 
M 52.59375 71.296875 
L 52.59375 62.3125 
Q 48.875 64.0625 45.09375 64.984375 
Q 41.3125 65.921875 37.59375 65.921875 
Q 27.828125 65.921875 22.671875 59.328125 
Q 17.53125 52.734375 16.796875 39.40625 
Q 19.671875 43.65625 24.015625 45.921875 
Q 28.375 48.1875 33.59375 48.1875 
Q 44.578125 48.1875 50.953125 41.515625 
Q 57.328125 34.859375 57.328125 23.390625 
Q 57.328125 12.15625 50.6875 5.359375 
Q 44.046875 -1.421875 33.015625 -1.421875 
Q 20.359375 -1.421875 13.671875 8.265625 
Q 6.984375 17.96875 6.984375 36.375 
Q 6.984375 53.65625 15.1875 63.9375 
Q 23.390625 74.21875 37.203125 74.21875 
Q 40.921875 74.21875 44.703125 73.484375 
Q 48.484375 72.75 52.59375 71.296875 
" id="BitstreamVeraSans-Roman-36"/>
      </defs>
      <g transform="translate(474.655483635 262.455960288)scale(0.12 -0.12)">
       <use xlink:href="#BitstreamVeraSans-Roman-30"/>
       <use x="63.623046875" xlink:href="#BitstreamVeraSans-Roman-2e"/>
       <use x="95.41015625" xlink:href="#BitstreamVeraSans-Roman-36"/>
      </g>
     </g>
    </g>
    <g id="ytick_4">
     <g id="line2d_25">
      <path clip-path="url(#p987aef2cb1)" d="M 537.898867 324 
L 537.773499 316.817723 
L 537.397551 309.644197 
L 536.771479 302.488161 
L 535.896046 295.358334 
L 534.772319 288.263402 
L 533.401668 281.21201 
L 531.785761 274.212748 
L 529.926567 267.274145 
L 527.826353 260.404653 
L 525.487676 253.612642 
L 522.913386 246.906388 
L 520.10662 240.29406 
L 517.070796 233.783715 
L 513.809614 227.383285 
L 510.327046 221.100567 
L 506.627337 214.943216 
L 502.714993 208.918734 
L 498.59478 203.034461 
L 494.27172 197.297566 
L 489.751078 191.715039 
L 485.038363 186.29368 
L 480.139316 181.040095 
L 475.059905 175.960684 
L 469.80632 171.061637 
L 464.384961 166.348922 
L 458.802434 161.82828 
L 453.065539 157.50522 
L 447.181266 153.385007 
L 441.156784 149.472663 
L 434.999433 145.772954 
L 428.716715 142.290386 
L 422.316285 139.029204 
L 415.80594 135.99338 
L 409.193612 133.186614 
L 402.487358 130.612324 
L 395.695347 128.273647 
L 388.825855 126.173433 
L 381.887252 124.314239 
L 374.88799 122.698332 
L 367.836598 121.327681 
L 360.741666 120.203954 
L 353.611839 119.328521 
L 346.455803 118.702449 
L 339.282277 118.326501 
L 332.1 118.201133 
L 324.917723 118.326501 
L 317.744197 118.702449 
L 310.588161 119.328521 
L 303.458334 120.203954 
L 296.363402 121.327681 
L 289.31201 122.698332 
L 282.312748 124.314239 
L 275.374145 126.173433 
L 268.504653 128.273647 
L 261.712642 130.612324 
L 255.006388 133.186614 
L 248.39406 135.99338 
L 241.883715 139.029204 
L 235.483285 142.290386 
L 229.200567 145.772954 
L 223.043216 149.472663 
L 217.018734 153.385007 
L 211.134461 157.50522 
L 205.397566 161.82828 
L 199.815039 166.348922 
L 194.39368 171.061637 
L 189.140095 175.960684 
L 184.060684 181.040095 
L 179.161637 186.29368 
L 174.448922 191.715039 
L 169.92828 197.297566 
L 165.60522 203.034461 
L 161.485007 208.918734 
L 157.572663 214.943216 
L 153.872954 221.100567 
L 150.390386 227.383285 
L 147.129204 233.783715 
L 144.09338 240.29406 
L 141.286614 246.906388 
L 138.712324 253.612642 
L 136.373647 260.404653 
L 134.273433 267.274145 
L 132.414239 274.212748 
L 130.798332 281.21201 
L 129.427681 288.263402 
L 128.303954 295.358334 
L 127.428521 302.488161 
L 126.802449 309.644197 
L 126.426501 316.817723 
L 126.301133 324 
L 126.426501 331.182277 
L 126.802449 338.355803 
L 127.428521 345.511839 
L 128.303954 352.641666 
L 129.427681 359.736598 
L 130.798332 366.78799 
L 132.414239 373.787252 
L 134.273433 380.725855 
L 136.373647 387.595347 
L 138.712324 394.387358 
L 141.286614 401.093612 
L 144.09338 407.70594 
L 147.129204 414.216285 
L 150.390386 420.616715 
L 153.872954 426.899433 
L 157.572663 433.056784 
L 161.485007 439.081266 
L 165.60522 444.965539 
L 169.92828 450.702434 
L 174.448922 456.284961 
L 179.161637 461.70632 
L 184.060684 466.959905 
L 189.140095 472.039316 
L 194.39368 476.938363 
L 199.815039 481.651078 
L 205.397566 486.17172 
L 211.134461 490.49478 
L 217.018734 494.614993 
L 223.043216 498.527337 
L 229.200567 502.227046 
L 235.483285 505.709614 
L 241.883715 508.970796 
L 248.39406 512.00662 
L 255.006388 514.813386 
L 261.712642 517.387676 
L 268.504653 519.726353 
L 275.374145 521.826567 
L 282.312748 523.685761 
L 289.31201 525.301668 
L 296.363402 526.672319 
L 303.458334 527.796046 
L 310.588161 528.671479 
L 317.744197 529.297551 
L 324.917723 529.673499 
L 332.1 529.798867 
L 339.282277 529.673499 
L 346.455803 529.297551 
L 353.611839 528.671479 
L 360.741666 527.796046 
L 367.836598 526.672319 
L 374.88799 525.301668 
L 381.887252 523.685761 
L 388.825855 521.826567 
L 395.695347 519.726353 
L 402.487358 517.387676 
L 409.193612 514.813386 
L 415.80594 512.00662 
L 422.316285 508.970796 
L 428.716715 505.709614 
L 434.999433 502.227046 
L 441.156784 498.527337 
L 447.181266 494.614993 
L 453.065539 490.49478 
L 458.802434 486.17172 
L 464.384961 481.651078 
L 469.80632 476.938363 
L 475.059905 472.039316 
L 480.139316 466.959905 
L 485.038363 461.70632 
L 489.751078 456.284961 
L 494.27172 450.702434 
L 498.59478 444.965539 
L 502.714993 439.081266 
L 506.627337 433.056784 
L 510.327046 426.899433 
L 513.809614 420.616715 
L 517.070796 414.216285 
L 520.10662 407.70594 
L 522.913386 401.093612 
L 525.487676 394.387358 
L 527.826353 387.595347 
L 529.926567 380.725855 
L 531.785761 373.787252 
L 533.401668 366.78799 
L 534.772319 359.736598 
L 535.896046 352.641666 
L 536.771479 345.511839 
L 537.397551 338.355803 
L 537.773499 331.182277 
L 537.898867 324 
L 537.898867 324 
" style="fill:none;stroke:#000000;stroke-dasharray:1.000000,3.000000;stroke-dashoffset:0.0;stroke-width:0.5;"/>
     </g>
     <g id="text_24">
      <!-- 0.8 -->
      <defs>
       <path d="M 31.78125 34.625 
Q 24.75 34.625 20.71875 30.859375 
Q 16.703125 27.09375 16.703125 20.515625 
Q 16.703125 13.921875 20.71875 10.15625 
Q 24.75 6.390625 31.78125 6.390625 
Q 38.8125 6.390625 42.859375 10.171875 
Q 46.921875 13.96875 46.921875 20.515625 
Q 46.921875 27.09375 42.890625 30.859375 
Q 38.875 34.625 31.78125 34.625 
M 21.921875 38.8125 
Q 15.578125 40.375 12.03125 44.71875 
Q 8.5 49.078125 8.5 55.328125 
Q 8.5 64.0625 14.71875 69.140625 
Q 20.953125 74.21875 31.78125 74.21875 
Q 42.671875 74.21875 48.875 69.140625 
Q 55.078125 64.0625 55.078125 55.328125 
Q 55.078125 49.078125 51.53125 44.71875 
Q 48 40.375 41.703125 38.8125 
Q 48.828125 37.15625 52.796875 32.3125 
Q 56.78125 27.484375 56.78125 20.515625 
Q 56.78125 9.90625 50.3125 4.234375 
Q 43.84375 -1.421875 31.78125 -1.421875 
Q 19.734375 -1.421875 13.25 4.234375 
Q 6.78125 9.90625 6.78125 20.515625 
Q 6.78125 27.484375 10.78125 32.3125 
Q 14.796875 37.15625 21.921875 38.8125 
M 18.3125 54.390625 
Q 18.3125 48.734375 21.84375 45.5625 
Q 25.390625 42.390625 31.78125 42.390625 
Q 38.140625 42.390625 41.71875 45.5625 
Q 45.3125 48.734375 45.3125 54.390625 
Q 45.3125 60.0625 41.71875 63.234375 
Q 38.140625 66.40625 31.78125 66.40625 
Q 25.390625 66.40625 21.84375 63.234375 
Q 18.3125 60.0625 18.3125 54.390625 
" id="BitstreamVeraSans-Roman-38"/>
      </defs>
      <g transform="translate(522.233360574 242.748558391)scale(0.12 -0.12)">
       <use xlink:href="#BitstreamVeraSans-Roman-30"/>
       <use x="63.623046875" xlink:href="#BitstreamVeraSans-Roman-2e"/>
       <use x="95.41015625" xlink:href="#BitstreamVeraSans-Roman-38"/>
      </g>
     </g>
    </g>
   </g>
  </g>
 </g>
 <defs>
  <clipPath id="p987aef2cb1">
   <path d="M 332.1 575.1 
C 398.692498 575.1 462.566506 548.64252 509.654513 501.554513 
C 556.74252 454.466506 583.2 390.592498 583.2 324 
C 583.2 257.407502 556.74252 193.533494 509.654513 146.445487 
C 462.566506 99.35748 398.692498 72.9 332.1 72.9 
C 265.507502 72.9 201.633494 99.35748 154.545487 146.445487 
C 107.45748 193.533494 81 257.407502 81 324 
C 81 390.592498 107.45748 454.466506 154.545487 501.554513 
C 201.633494 548.64252 265.507502 575.1 332.1 575.1 
z
"/>
  </clipPath>
 </defs>
</svg>
