<?xml version="1.0" encoding="utf-8" standalone="no"?>
<!DOCTYPE svg PUBLIC "-//W3C//DTD SVG 1.1//EN"
  "http://www.w3.org/Graphics/SVG/1.1/DTD/svg11.dtd">
<!-- Created with matplotlib (http://matplotlib.org/) -->
<svg height="648pt" version="1.1" viewBox="0 0 648 648" width="648pt" xmlns="http://www.w3.org/2000/svg" xmlns:xlink="http://www.w3.org/1999/xlink">
 <defs>
  <style type="text/css">
*{stroke-linecap:butt;stroke-linejoin:round;stroke-miterlimit:100000;}
  </style>
 </defs>
 <g id="figure_1">
  <g id="patch_1">
   <path d="M 0 648 
L 648 648 
L 648 0 
L 0 0 
z
" style="fill:#ffffff;"/>
  </g>
  <g id="axes_1">
   <g id="patch_2">
    <path d="M 332.1 575.1 
C 398.692498 575.1 462.566506 548.64252 509.654513 501.554513 
C 556.74252 454.466506 583.2 390.592498 583.2 324 
C 583.2 257.407502 556.74252 193.533494 509.654513 146.445487 
C 462.566506 99.35748 398.692498 72.9 332.1 72.9 
C 265.507502 72.9 201.633494 99.35748 154.545487 146.445487 
C 107.45748 193.533494 81 257.407502 81 324 
C 81 390.592498 107.45748 454.466506 154.545487 501.554513 
C 201.633494 548.64252 265.507502 575.1 332.1 575.1 
z
" style="fill:#ffffff;"/>
   </g>
   <g id="patch_3">
    <path clip-path="url(#p12f173d819)" d="M 332.1 73.878967 
L 271.878537 138.657396 
L 307.821189 290.583084 
L 303.596803 303.291215 
L 254.997689 298.947941 
L 199.345964 324 
L 246.769452 351.725576 
L 286.091877 357.426858 
L 290.038423 381.892794 
L 268.319656 520.295715 
L 332.1 324 
L 409.694167 562.810291 
L 404.568978 423.744991 
L 392.083243 367.580377 
L 367.213536 335.409079 
L 479.459909 324 
L 516.341049 264.136454 
L 346.25207 313.717919 
L 360.052635 285.526498 
L 396.991377 124.284878 
z
" style="fill:#0000ff;opacity:0.25;stroke:#000000;stroke-linejoin:miter;"/>
   </g>
   <g id="line2d_1">
    <path clip-path="url(#p12f173d819)" d="M 332.1 73.878967 
L 271.878537 138.657396 
L 307.821189 290.583084 
L 303.596803 303.291215 
L 254.997689 298.947941 
L 199.345964 324 
L 246.769452 351.725576 
L 286.091877 357.426858 
L 290.038423 381.892794 
L 268.319656 520.295715 
L 332.1 324 
L 409.694167 562.810291 
L 404.568978 423.744991 
L 392.083243 367.580377 
L 367.213536 335.409079 
L 479.459909 324 
L 516.341049 264.136454 
L 346.25207 313.717919 
L 360.052635 285.526498 
L 396.991377 124.284878 
L 332.1 73.878967 
" style="fill:none;stroke:#0000ff;stroke-linecap:square;"/>
   </g>
   <g id="patch_4">
    <path d="M 332.1 575.1 
C 398.692498 575.1 462.566506 548.64252 509.654513 501.554513 
C 556.74252 454.466506 583.2 390.592498 583.2 324 
C 583.2 257.407502 556.74252 193.533494 509.654513 146.445487 
C 462.566506 99.35748 398.692498 72.9 332.1 72.9 
C 265.507502 72.9 201.633494 99.35748 154.545487 146.445487 
C 107.45748 193.533494 81 257.407502 81 324 
C 81 390.592498 107.45748 454.466506 154.545487 501.554513 
C 201.633494 548.64252 265.507502 575.1 332.1 575.1 
L 332.1 575.1 
z
" style="fill:none;stroke:#000000;stroke-linecap:square;stroke-linejoin:miter;"/>
   </g>
   <g id="matplotlib.axis_1">
    <g id="xtick_1">
     <g id="line2d_2">
      <path clip-path="url(#p12f173d819)" d="M 332.1 324 
L 332.1 72.9 
" style="fill:none;stroke:#000000;stroke-dasharray:1.000000,3.000000;stroke-dashoffset:0.0;stroke-width:0.5;"/>
     </g>
     <g id="text_1">
      <!-- candor -->
      <defs>
       <path d="M 54.890625 33.015625 
L 54.890625 0 
L 45.90625 0 
L 45.90625 32.71875 
Q 45.90625 40.484375 42.875 44.328125 
Q 39.84375 48.1875 33.796875 48.1875 
Q 26.515625 48.1875 22.3125 43.546875 
Q 18.109375 38.921875 18.109375 30.90625 
L 18.109375 0 
L 9.078125 0 
L 9.078125 54.6875 
L 18.109375 54.6875 
L 18.109375 46.1875 
Q 21.34375 51.125 25.703125 53.5625 
Q 30.078125 56 35.796875 56 
Q 45.21875 56 50.046875 50.171875 
Q 54.890625 44.34375 54.890625 33.015625 
" id="BitstreamVeraSans-Roman-6e"/>
       <path d="M 41.109375 46.296875 
Q 39.59375 47.171875 37.8125 47.578125 
Q 36.03125 48 33.890625 48 
Q 26.265625 48 22.1875 43.046875 
Q 18.109375 38.09375 18.109375 28.8125 
L 18.109375 0 
L 9.078125 0 
L 9.078125 54.6875 
L 18.109375 54.6875 
L 18.109375 46.1875 
Q 20.953125 51.171875 25.484375 53.578125 
Q 30.03125 56 36.53125 56 
Q 37.453125 56 38.578125 55.875 
Q 39.703125 55.765625 41.0625 55.515625 
z
" id="BitstreamVeraSans-Roman-72"/>
       <path d="M 30.609375 48.390625 
Q 23.390625 48.390625 19.1875 42.75 
Q 14.984375 37.109375 14.984375 27.296875 
Q 14.984375 17.484375 19.15625 11.84375 
Q 23.34375 6.203125 30.609375 6.203125 
Q 37.796875 6.203125 41.984375 11.859375 
Q 46.1875 17.53125 46.1875 27.296875 
Q 46.1875 37.015625 41.984375 42.703125 
Q 37.796875 48.390625 30.609375 48.390625 
M 30.609375 56 
Q 42.328125 56 49.015625 48.375 
Q 55.71875 40.765625 55.71875 27.296875 
Q 55.71875 13.875 49.015625 6.21875 
Q 42.328125 -1.421875 30.609375 -1.421875 
Q 18.84375 -1.421875 12.171875 6.21875 
Q 5.515625 13.875 5.515625 27.296875 
Q 5.515625 40.765625 12.171875 48.375 
Q 18.84375 56 30.609375 56 
" id="BitstreamVeraSans-Roman-6f"/>
       <path d="M 45.40625 46.390625 
L 45.40625 75.984375 
L 54.390625 75.984375 
L 54.390625 0 
L 45.40625 0 
L 45.40625 8.203125 
Q 42.578125 3.328125 38.25 0.953125 
Q 33.9375 -1.421875 27.875 -1.421875 
Q 17.96875 -1.421875 11.734375 6.484375 
Q 5.515625 14.40625 5.515625 27.296875 
Q 5.515625 40.1875 11.734375 48.09375 
Q 17.96875 56 27.875 56 
Q 33.9375 56 38.25 53.625 
Q 42.578125 51.265625 45.40625 46.390625 
M 14.796875 27.296875 
Q 14.796875 17.390625 18.875 11.75 
Q 22.953125 6.109375 30.078125 6.109375 
Q 37.203125 6.109375 41.296875 11.75 
Q 45.40625 17.390625 45.40625 27.296875 
Q 45.40625 37.203125 41.296875 42.84375 
Q 37.203125 48.484375 30.078125 48.484375 
Q 22.953125 48.484375 18.875 42.84375 
Q 14.796875 37.203125 14.796875 27.296875 
" id="BitstreamVeraSans-Roman-64"/>
       <path d="M 34.28125 27.484375 
Q 23.390625 27.484375 19.1875 25 
Q 14.984375 22.515625 14.984375 16.5 
Q 14.984375 11.71875 18.140625 8.90625 
Q 21.296875 6.109375 26.703125 6.109375 
Q 34.1875 6.109375 38.703125 11.40625 
Q 43.21875 16.703125 43.21875 25.484375 
L 43.21875 27.484375 
z
M 52.203125 31.203125 
L 52.203125 0 
L 43.21875 0 
L 43.21875 8.296875 
Q 40.140625 3.328125 35.546875 0.953125 
Q 30.953125 -1.421875 24.3125 -1.421875 
Q 15.921875 -1.421875 10.953125 3.296875 
Q 6 8.015625 6 15.921875 
Q 6 25.140625 12.171875 29.828125 
Q 18.359375 34.515625 30.609375 34.515625 
L 43.21875 34.515625 
L 43.21875 35.40625 
Q 43.21875 41.609375 39.140625 45 
Q 35.0625 48.390625 27.6875 48.390625 
Q 23 48.390625 18.546875 47.265625 
Q 14.109375 46.140625 10.015625 43.890625 
L 10.015625 52.203125 
Q 14.9375 54.109375 19.578125 55.046875 
Q 24.21875 56 28.609375 56 
Q 40.484375 56 46.34375 49.84375 
Q 52.203125 43.703125 52.203125 31.203125 
" id="BitstreamVeraSans-Roman-61"/>
       <path d="M 48.78125 52.59375 
L 48.78125 44.1875 
Q 44.96875 46.296875 41.140625 47.34375 
Q 37.3125 48.390625 33.40625 48.390625 
Q 24.65625 48.390625 19.8125 42.84375 
Q 14.984375 37.3125 14.984375 27.296875 
Q 14.984375 17.28125 19.8125 11.734375 
Q 24.65625 6.203125 33.40625 6.203125 
Q 37.3125 6.203125 41.140625 7.25 
Q 44.96875 8.296875 48.78125 10.40625 
L 48.78125 2.09375 
Q 45.015625 0.34375 40.984375 -0.53125 
Q 36.96875 -1.421875 32.421875 -1.421875 
Q 20.0625 -1.421875 12.78125 6.34375 
Q 5.515625 14.109375 5.515625 27.296875 
Q 5.515625 40.671875 12.859375 48.328125 
Q 20.21875 56 33.015625 56 
Q 37.15625 56 41.109375 55.140625 
Q 45.0625 54.296875 48.78125 52.59375 
" id="BitstreamVeraSans-Roman-63"/>
      </defs>
      <g transform="translate(311.3746875 51.10125)scale(0.12 -0.12)">
       <use xlink:href="#BitstreamVeraSans-Roman-63"/>
       <use x="54.98046875" xlink:href="#BitstreamVeraSans-Roman-61"/>
       <use x="116.259765625" xlink:href="#BitstreamVeraSans-Roman-6e"/>
       <use x="179.638671875" xlink:href="#BitstreamVeraSans-Roman-64"/>
       <use x="243.115234375" xlink:href="#BitstreamVeraSans-Roman-6f"/>
       <use x="304.296875" xlink:href="#BitstreamVeraSans-Roman-72"/>
      </g>
     </g>
    </g>
    <g id="xtick_2">
     <g id="line2d_3">
      <path clip-path="url(#p12f173d819)" d="M 332.1 324 
L 254.505833 85.189709 
" style="fill:none;stroke:#000000;stroke-dasharray:1.000000,3.000000;stroke-dashoffset:0.0;stroke-width:0.5;"/>
     </g>
     <g id="text_2">
      <!-- sensuality -->
      <defs>
       <path d="M 9.421875 75.984375 
L 18.40625 75.984375 
L 18.40625 0 
L 9.421875 0 
z
" id="BitstreamVeraSans-Roman-6c"/>
       <path d="M 9.421875 54.6875 
L 18.40625 54.6875 
L 18.40625 0 
L 9.421875 0 
z
M 9.421875 75.984375 
L 18.40625 75.984375 
L 18.40625 64.59375 
L 9.421875 64.59375 
z
" id="BitstreamVeraSans-Roman-69"/>
       <path d="M 32.171875 -5.078125 
Q 28.375 -14.84375 24.75 -17.8125 
Q 21.140625 -20.796875 15.09375 -20.796875 
L 7.90625 -20.796875 
L 7.90625 -13.28125 
L 13.1875 -13.28125 
Q 16.890625 -13.28125 18.9375 -11.515625 
Q 21 -9.765625 23.484375 -3.21875 
L 25.09375 0.875 
L 2.984375 54.6875 
L 12.5 54.6875 
L 29.59375 11.921875 
L 46.6875 54.6875 
L 56.203125 54.6875 
z
" id="BitstreamVeraSans-Roman-79"/>
       <path d="M 56.203125 29.59375 
L 56.203125 25.203125 
L 14.890625 25.203125 
Q 15.484375 15.921875 20.484375 11.0625 
Q 25.484375 6.203125 34.421875 6.203125 
Q 39.59375 6.203125 44.453125 7.46875 
Q 49.3125 8.734375 54.109375 11.28125 
L 54.109375 2.78125 
Q 49.265625 0.734375 44.1875 -0.34375 
Q 39.109375 -1.421875 33.890625 -1.421875 
Q 20.796875 -1.421875 13.15625 6.1875 
Q 5.515625 13.8125 5.515625 26.8125 
Q 5.515625 40.234375 12.765625 48.109375 
Q 20.015625 56 32.328125 56 
Q 43.359375 56 49.78125 48.890625 
Q 56.203125 41.796875 56.203125 29.59375 
M 47.21875 32.234375 
Q 47.125 39.59375 43.09375 43.984375 
Q 39.0625 48.390625 32.421875 48.390625 
Q 24.90625 48.390625 20.390625 44.140625 
Q 15.875 39.890625 15.1875 32.171875 
z
" id="BitstreamVeraSans-Roman-65"/>
       <path d="M 18.3125 70.21875 
L 18.3125 54.6875 
L 36.8125 54.6875 
L 36.8125 47.703125 
L 18.3125 47.703125 
L 18.3125 18.015625 
Q 18.3125 11.328125 20.140625 9.421875 
Q 21.96875 7.515625 27.59375 7.515625 
L 36.8125 7.515625 
L 36.8125 0 
L 27.59375 0 
Q 17.1875 0 13.234375 3.875 
Q 9.28125 7.765625 9.28125 18.015625 
L 9.28125 47.703125 
L 2.6875 47.703125 
L 2.6875 54.6875 
L 9.28125 54.6875 
L 9.28125 70.21875 
z
" id="BitstreamVeraSans-Roman-74"/>
       <path d="M 8.5 21.578125 
L 8.5 54.6875 
L 17.484375 54.6875 
L 17.484375 21.921875 
Q 17.484375 14.15625 20.5 10.265625 
Q 23.53125 6.390625 29.59375 6.390625 
Q 36.859375 6.390625 41.078125 11.03125 
Q 45.3125 15.671875 45.3125 23.6875 
L 45.3125 54.6875 
L 54.296875 54.6875 
L 54.296875 0 
L 45.3125 0 
L 45.3125 8.40625 
Q 42.046875 3.421875 37.71875 1 
Q 33.40625 -1.421875 27.6875 -1.421875 
Q 18.265625 -1.421875 13.375 4.4375 
Q 8.5 10.296875 8.5 21.578125 
" id="BitstreamVeraSans-Roman-75"/>
       <path d="M 44.28125 53.078125 
L 44.28125 44.578125 
Q 40.484375 46.53125 36.375 47.5 
Q 32.28125 48.484375 27.875 48.484375 
Q 21.1875 48.484375 17.84375 46.4375 
Q 14.5 44.390625 14.5 40.28125 
Q 14.5 37.15625 16.890625 35.375 
Q 19.28125 33.59375 26.515625 31.984375 
L 29.59375 31.296875 
Q 39.15625 29.25 43.1875 25.515625 
Q 47.21875 21.78125 47.21875 15.09375 
Q 47.21875 7.46875 41.1875 3.015625 
Q 35.15625 -1.421875 24.609375 -1.421875 
Q 20.21875 -1.421875 15.453125 -0.5625 
Q 10.6875 0.296875 5.421875 2 
L 5.421875 11.28125 
Q 10.40625 8.6875 15.234375 7.390625 
Q 20.0625 6.109375 24.8125 6.109375 
Q 31.15625 6.109375 34.5625 8.28125 
Q 37.984375 10.453125 37.984375 14.40625 
Q 37.984375 18.0625 35.515625 20.015625 
Q 33.0625 21.96875 24.703125 23.78125 
L 21.578125 24.515625 
Q 13.234375 26.265625 9.515625 29.90625 
Q 5.8125 33.546875 5.8125 39.890625 
Q 5.8125 47.609375 11.28125 51.796875 
Q 16.75 56 26.8125 56 
Q 31.78125 56 36.171875 55.265625 
Q 40.578125 54.546875 44.28125 53.078125 
" id="BitstreamVeraSans-Roman-73"/>
      </defs>
      <g transform="translate(216.284228484 64.6199296341)scale(0.12 -0.12)">
       <use xlink:href="#BitstreamVeraSans-Roman-73"/>
       <use x="52.099609375" xlink:href="#BitstreamVeraSans-Roman-65"/>
       <use x="113.623046875" xlink:href="#BitstreamVeraSans-Roman-6e"/>
       <use x="177.001953125" xlink:href="#BitstreamVeraSans-Roman-73"/>
       <use x="229.1015625" xlink:href="#BitstreamVeraSans-Roman-75"/>
       <use x="292.48046875" xlink:href="#BitstreamVeraSans-Roman-61"/>
       <use x="353.759765625" xlink:href="#BitstreamVeraSans-Roman-6c"/>
       <use x="381.54296875" xlink:href="#BitstreamVeraSans-Roman-69"/>
       <use x="409.326171875" xlink:href="#BitstreamVeraSans-Roman-74"/>
       <use x="448.53515625" xlink:href="#BitstreamVeraSans-Roman-79"/>
      </g>
     </g>
    </g>
    <g id="xtick_3">
     <g id="line2d_4">
      <path clip-path="url(#p12f173d819)" d="M 332.1 324 
L 184.507123 120.855833 
" style="fill:none;stroke:#000000;stroke-dasharray:1.000000,3.000000;stroke-dashoffset:0.0;stroke-width:0.5;"/>
     </g>
     <g id="text_3">
      <!-- tenacity -->
      <g transform="translate(145.355022964 103.852665984)scale(0.12 -0.12)">
       <use xlink:href="#BitstreamVeraSans-Roman-74"/>
       <use x="39.208984375" xlink:href="#BitstreamVeraSans-Roman-65"/>
       <use x="100.732421875" xlink:href="#BitstreamVeraSans-Roman-6e"/>
       <use x="164.111328125" xlink:href="#BitstreamVeraSans-Roman-61"/>
       <use x="225.390625" xlink:href="#BitstreamVeraSans-Roman-63"/>
       <use x="280.37109375" xlink:href="#BitstreamVeraSans-Roman-69"/>
       <use x="308.154296875" xlink:href="#BitstreamVeraSans-Roman-74"/>
       <use x="347.36328125" xlink:href="#BitstreamVeraSans-Roman-79"/>
      </g>
     </g>
    </g>
    <g id="xtick_4">
     <g id="line2d_5">
      <path clip-path="url(#p12f173d819)" d="M 332.1 324 
L 128.955833 176.407123 
" style="fill:none;stroke:#000000;stroke-dasharray:1.000000,3.000000;stroke-dashoffset:0.0;stroke-width:0.5;"/>
     </g>
     <g id="text_4">
      <!-- cruelty -->
      <g transform="translate(87.8111034837 164.959085464)scale(0.12 -0.12)">
       <use xlink:href="#BitstreamVeraSans-Roman-63"/>
       <use x="54.98046875" xlink:href="#BitstreamVeraSans-Roman-72"/>
       <use x="96.09375" xlink:href="#BitstreamVeraSans-Roman-75"/>
       <use x="159.47265625" xlink:href="#BitstreamVeraSans-Roman-65"/>
       <use x="220.99609375" xlink:href="#BitstreamVeraSans-Roman-6c"/>
       <use x="248.779296875" xlink:href="#BitstreamVeraSans-Roman-74"/>
       <use x="287.98828125" xlink:href="#BitstreamVeraSans-Roman-79"/>
      </g>
     </g>
    </g>
    <g id="xtick_5">
     <g id="line2d_6">
      <path clip-path="url(#p12f173d819)" d="M 332.1 324 
L 93.289709 246.405833 
" style="fill:none;stroke:#000000;stroke-dasharray:1.000000,3.000000;stroke-dashoffset:0.0;stroke-width:0.5;"/>
     </g>
     <g id="text_5">
      <!-- loyalty -->
      <g transform="translate(49.2721171341 241.957665984)scale(0.12 -0.12)">
       <use xlink:href="#BitstreamVeraSans-Roman-6c"/>
       <use x="27.783203125" xlink:href="#BitstreamVeraSans-Roman-6f"/>
       <use x="88.96484375" xlink:href="#BitstreamVeraSans-Roman-79"/>
       <use x="148.14453125" xlink:href="#BitstreamVeraSans-Roman-61"/>
       <use x="209.423828125" xlink:href="#BitstreamVeraSans-Roman-6c"/>
       <use x="237.20703125" xlink:href="#BitstreamVeraSans-Roman-74"/>
       <use x="276.416015625" xlink:href="#BitstreamVeraSans-Roman-79"/>
      </g>
     </g>
    </g>
    <g id="xtick_6">
     <g id="line2d_7">
      <path clip-path="url(#p12f173d819)" d="M 332.1 324 
L 81 324 
" style="fill:none;stroke:#000000;stroke-dasharray:1.000000,3.000000;stroke-dashoffset:0.0;stroke-width:0.5;"/>
     </g>
     <g id="text_6">
      <!-- imagination -->
      <defs>
       <path d="M 52 44.1875 
Q 55.375 50.25 60.0625 53.125 
Q 64.75 56 71.09375 56 
Q 79.640625 56 84.28125 50.015625 
Q 88.921875 44.046875 88.921875 33.015625 
L 88.921875 0 
L 79.890625 0 
L 79.890625 32.71875 
Q 79.890625 40.578125 77.09375 44.375 
Q 74.3125 48.1875 68.609375 48.1875 
Q 61.625 48.1875 57.5625 43.546875 
Q 53.515625 38.921875 53.515625 30.90625 
L 53.515625 0 
L 44.484375 0 
L 44.484375 32.71875 
Q 44.484375 40.625 41.703125 44.40625 
Q 38.921875 48.1875 33.109375 48.1875 
Q 26.21875 48.1875 22.15625 43.53125 
Q 18.109375 38.875 18.109375 30.90625 
L 18.109375 0 
L 9.078125 0 
L 9.078125 54.6875 
L 18.109375 54.6875 
L 18.109375 46.1875 
Q 21.1875 51.21875 25.484375 53.609375 
Q 29.78125 56 35.6875 56 
Q 41.65625 56 45.828125 52.96875 
Q 50 49.953125 52 44.1875 
" id="BitstreamVeraSans-Roman-6d"/>
       <path d="M 45.40625 27.984375 
Q 45.40625 37.75 41.375 43.109375 
Q 37.359375 48.484375 30.078125 48.484375 
Q 22.859375 48.484375 18.828125 43.109375 
Q 14.796875 37.75 14.796875 27.984375 
Q 14.796875 18.265625 18.828125 12.890625 
Q 22.859375 7.515625 30.078125 7.515625 
Q 37.359375 7.515625 41.375 12.890625 
Q 45.40625 18.265625 45.40625 27.984375 
M 54.390625 6.78125 
Q 54.390625 -7.171875 48.1875 -13.984375 
Q 42 -20.796875 29.203125 -20.796875 
Q 24.46875 -20.796875 20.265625 -20.09375 
Q 16.0625 -19.390625 12.109375 -17.921875 
L 12.109375 -9.1875 
Q 16.0625 -11.328125 19.921875 -12.34375 
Q 23.78125 -13.375 27.78125 -13.375 
Q 36.625 -13.375 41.015625 -8.765625 
Q 45.40625 -4.15625 45.40625 5.171875 
L 45.40625 9.625 
Q 42.625 4.78125 38.28125 2.390625 
Q 33.9375 0 27.875 0 
Q 17.828125 0 11.671875 7.65625 
Q 5.515625 15.328125 5.515625 27.984375 
Q 5.515625 40.671875 11.671875 48.328125 
Q 17.828125 56 27.875 56 
Q 33.9375 56 38.28125 53.609375 
Q 42.625 51.21875 45.40625 46.390625 
L 45.40625 54.6875 
L 54.390625 54.6875 
z
" id="BitstreamVeraSans-Roman-67"/>
      </defs>
      <g transform="translate(20.25375 327.31125)scale(0.12 -0.12)">
       <use xlink:href="#BitstreamVeraSans-Roman-69"/>
       <use x="27.783203125" xlink:href="#BitstreamVeraSans-Roman-6d"/>
       <use x="125.1953125" xlink:href="#BitstreamVeraSans-Roman-61"/>
       <use x="186.474609375" xlink:href="#BitstreamVeraSans-Roman-67"/>
       <use x="249.951171875" xlink:href="#BitstreamVeraSans-Roman-69"/>
       <use x="277.734375" xlink:href="#BitstreamVeraSans-Roman-6e"/>
       <use x="341.11328125" xlink:href="#BitstreamVeraSans-Roman-61"/>
       <use x="402.392578125" xlink:href="#BitstreamVeraSans-Roman-74"/>
       <use x="441.6015625" xlink:href="#BitstreamVeraSans-Roman-69"/>
       <use x="469.384765625" xlink:href="#BitstreamVeraSans-Roman-6f"/>
       <use x="530.56640625" xlink:href="#BitstreamVeraSans-Roman-6e"/>
      </g>
     </g>
    </g>
    <g id="xtick_7">
     <g id="line2d_8">
      <path clip-path="url(#p12f173d819)" d="M 332.1 324 
L 93.289709 401.594167 
" style="fill:none;stroke:#000000;stroke-dasharray:1.000000,3.000000;stroke-dashoffset:0.0;stroke-width:0.5;"/>
     </g>
     <g id="text_7">
      <!-- courage -->
      <g transform="translate(44.9914921341 412.664834016)scale(0.12 -0.12)">
       <use xlink:href="#BitstreamVeraSans-Roman-63"/>
       <use x="54.98046875" xlink:href="#BitstreamVeraSans-Roman-6f"/>
       <use x="116.162109375" xlink:href="#BitstreamVeraSans-Roman-75"/>
       <use x="179.541015625" xlink:href="#BitstreamVeraSans-Roman-72"/>
       <use x="220.654296875" xlink:href="#BitstreamVeraSans-Roman-61"/>
       <use x="281.93359375" xlink:href="#BitstreamVeraSans-Roman-67"/>
       <use x="345.41015625" xlink:href="#BitstreamVeraSans-Roman-65"/>
      </g>
     </g>
    </g>
    <g id="xtick_8">
     <g id="line2d_9">
      <path clip-path="url(#p12f173d819)" d="M 332.1 324 
L 128.955833 471.592877 
" style="fill:none;stroke:#000000;stroke-dasharray:1.000000,3.000000;stroke-dashoffset:0.0;stroke-width:0.5;"/>
     </g>
     <g id="text_8">
      <!-- charm -->
      <defs>
       <path d="M 54.890625 33.015625 
L 54.890625 0 
L 45.90625 0 
L 45.90625 32.71875 
Q 45.90625 40.484375 42.875 44.328125 
Q 39.84375 48.1875 33.796875 48.1875 
Q 26.515625 48.1875 22.3125 43.546875 
Q 18.109375 38.921875 18.109375 30.90625 
L 18.109375 0 
L 9.078125 0 
L 9.078125 75.984375 
L 18.109375 75.984375 
L 18.109375 46.1875 
Q 21.34375 51.125 25.703125 53.5625 
Q 30.078125 56 35.796875 56 
Q 45.21875 56 50.046875 50.171875 
Q 54.890625 44.34375 54.890625 33.015625 
" id="BitstreamVeraSans-Roman-68"/>
      </defs>
      <g transform="translate(89.5529784837 489.663414536)scale(0.12 -0.12)">
       <use xlink:href="#BitstreamVeraSans-Roman-63"/>
       <use x="54.98046875" xlink:href="#BitstreamVeraSans-Roman-68"/>
       <use x="118.359375" xlink:href="#BitstreamVeraSans-Roman-61"/>
       <use x="179.638671875" xlink:href="#BitstreamVeraSans-Roman-72"/>
       <use x="220.736328125" xlink:href="#BitstreamVeraSans-Roman-6d"/>
      </g>
     </g>
    </g>
    <g id="xtick_9">
     <g id="line2d_10">
      <path clip-path="url(#p12f173d819)" d="M 332.1 324 
L 184.507123 527.144167 
" style="fill:none;stroke:#000000;stroke-dasharray:1.000000,3.000000;stroke-dashoffset:0.0;stroke-width:0.5;"/>
     </g>
     <g id="text_9">
      <!-- curiosity -->
      <g transform="translate(144.145647964 550.769834016)scale(0.12 -0.12)">
       <use xlink:href="#BitstreamVeraSans-Roman-63"/>
       <use x="54.98046875" xlink:href="#BitstreamVeraSans-Roman-75"/>
       <use x="118.359375" xlink:href="#BitstreamVeraSans-Roman-72"/>
       <use x="159.47265625" xlink:href="#BitstreamVeraSans-Roman-69"/>
       <use x="187.255859375" xlink:href="#BitstreamVeraSans-Roman-6f"/>
       <use x="248.4375" xlink:href="#BitstreamVeraSans-Roman-73"/>
       <use x="300.537109375" xlink:href="#BitstreamVeraSans-Roman-69"/>
       <use x="328.3203125" xlink:href="#BitstreamVeraSans-Roman-74"/>
       <use x="367.529296875" xlink:href="#BitstreamVeraSans-Roman-79"/>
      </g>
     </g>
    </g>
    <g id="xtick_10">
     <g id="line2d_11">
      <path clip-path="url(#p12f173d819)" d="M 332.1 324 
L 254.505833 562.810291 
" style="fill:none;stroke:#000000;stroke-dasharray:1.000000,3.000000;stroke-dashoffset:0.0;stroke-width:0.5;"/>
     </g>
     <g id="text_10">
      <!-- humility -->
      <g transform="translate(222.392978484 590.002570366)scale(0.12 -0.12)">
       <use xlink:href="#BitstreamVeraSans-Roman-68"/>
       <use x="63.37890625" xlink:href="#BitstreamVeraSans-Roman-75"/>
       <use x="126.7578125" xlink:href="#BitstreamVeraSans-Roman-6d"/>
       <use x="224.169921875" xlink:href="#BitstreamVeraSans-Roman-69"/>
       <use x="251.953125" xlink:href="#BitstreamVeraSans-Roman-6c"/>
       <use x="279.736328125" xlink:href="#BitstreamVeraSans-Roman-69"/>
       <use x="307.51953125" xlink:href="#BitstreamVeraSans-Roman-74"/>
       <use x="346.728515625" xlink:href="#BitstreamVeraSans-Roman-79"/>
      </g>
     </g>
    </g>
    <g id="xtick_11">
     <g id="line2d_12">
      <path clip-path="url(#p12f173d819)" d="M 332.1 324 
L 332.1 575.1 
" style="fill:none;stroke:#000000;stroke-dasharray:1.000000,3.000000;stroke-dashoffset:0.0;stroke-width:0.5;"/>
     </g>
     <g id="text_11">
      <!-- vivacity -->
      <defs>
       <path d="M 2.984375 54.6875 
L 12.5 54.6875 
L 29.59375 8.796875 
L 46.6875 54.6875 
L 56.203125 54.6875 
L 35.6875 0 
L 23.484375 0 
z
" id="BitstreamVeraSans-Roman-76"/>
      </defs>
      <g transform="translate(308.784375 603.52125)scale(0.12 -0.12)">
       <use xlink:href="#BitstreamVeraSans-Roman-76"/>
       <use x="59.1796875" xlink:href="#BitstreamVeraSans-Roman-69"/>
       <use x="86.962890625" xlink:href="#BitstreamVeraSans-Roman-76"/>
       <use x="146.142578125" xlink:href="#BitstreamVeraSans-Roman-61"/>
       <use x="207.421875" xlink:href="#BitstreamVeraSans-Roman-63"/>
       <use x="262.40234375" xlink:href="#BitstreamVeraSans-Roman-69"/>
       <use x="290.185546875" xlink:href="#BitstreamVeraSans-Roman-74"/>
       <use x="329.39453125" xlink:href="#BitstreamVeraSans-Roman-79"/>
      </g>
     </g>
    </g>
    <g id="xtick_12">
     <g id="line2d_13">
      <path clip-path="url(#p12f173d819)" d="M 332.1 324 
L 409.694167 562.810291 
" style="fill:none;stroke:#000000;stroke-dasharray:1.000000,3.000000;stroke-dashoffset:0.0;stroke-width:0.5;"/>
     </g>
     <g id="text_12">
      <!-- self_preservation -->
      <defs>
       <path d="M 37.109375 75.984375 
L 37.109375 68.5 
L 28.515625 68.5 
Q 23.6875 68.5 21.796875 66.546875 
Q 19.921875 64.59375 19.921875 59.515625 
L 19.921875 54.6875 
L 34.71875 54.6875 
L 34.71875 47.703125 
L 19.921875 47.703125 
L 19.921875 0 
L 10.890625 0 
L 10.890625 47.703125 
L 2.296875 47.703125 
L 2.296875 54.6875 
L 10.890625 54.6875 
L 10.890625 58.5 
Q 10.890625 67.625 15.140625 71.796875 
Q 19.390625 75.984375 28.609375 75.984375 
z
" id="BitstreamVeraSans-Roman-66"/>
       <path d="M 18.109375 8.203125 
L 18.109375 -20.796875 
L 9.078125 -20.796875 
L 9.078125 54.6875 
L 18.109375 54.6875 
L 18.109375 46.390625 
Q 20.953125 51.265625 25.265625 53.625 
Q 29.59375 56 35.59375 56 
Q 45.5625 56 51.78125 48.09375 
Q 58.015625 40.1875 58.015625 27.296875 
Q 58.015625 14.40625 51.78125 6.484375 
Q 45.5625 -1.421875 35.59375 -1.421875 
Q 29.59375 -1.421875 25.265625 0.953125 
Q 20.953125 3.328125 18.109375 8.203125 
M 48.6875 27.296875 
Q 48.6875 37.203125 44.609375 42.84375 
Q 40.53125 48.484375 33.40625 48.484375 
Q 26.265625 48.484375 22.1875 42.84375 
Q 18.109375 37.203125 18.109375 27.296875 
Q 18.109375 17.390625 22.1875 11.75 
Q 26.265625 6.109375 33.40625 6.109375 
Q 40.53125 6.109375 44.609375 11.75 
Q 48.6875 17.390625 48.6875 27.296875 
" id="BitstreamVeraSans-Roman-70"/>
       <path d="M 50.984375 -16.609375 
L 50.984375 -23.578125 
L -0.984375 -23.578125 
L -0.984375 -16.609375 
z
" id="BitstreamVeraSans-Roman-5f"/>
      </defs>
      <g transform="translate(365.886396516 589.835695366)scale(0.12 -0.12)">
       <use xlink:href="#BitstreamVeraSans-Roman-73"/>
       <use x="52.099609375" xlink:href="#BitstreamVeraSans-Roman-65"/>
       <use x="113.623046875" xlink:href="#BitstreamVeraSans-Roman-6c"/>
       <use x="141.40625" xlink:href="#BitstreamVeraSans-Roman-66"/>
       <use x="176.611328125" xlink:href="#BitstreamVeraSans-Roman-5f"/>
       <use x="226.611328125" xlink:href="#BitstreamVeraSans-Roman-70"/>
       <use x="290.087890625" xlink:href="#BitstreamVeraSans-Roman-72"/>
       <use x="331.169921875" xlink:href="#BitstreamVeraSans-Roman-65"/>
       <use x="392.693359375" xlink:href="#BitstreamVeraSans-Roman-73"/>
       <use x="444.79296875" xlink:href="#BitstreamVeraSans-Roman-65"/>
       <use x="506.31640625" xlink:href="#BitstreamVeraSans-Roman-72"/>
       <use x="547.4296875" xlink:href="#BitstreamVeraSans-Roman-76"/>
       <use x="606.609375" xlink:href="#BitstreamVeraSans-Roman-61"/>
       <use x="667.888671875" xlink:href="#BitstreamVeraSans-Roman-74"/>
       <use x="707.09765625" xlink:href="#BitstreamVeraSans-Roman-69"/>
       <use x="734.880859375" xlink:href="#BitstreamVeraSans-Roman-6f"/>
       <use x="796.0625" xlink:href="#BitstreamVeraSans-Roman-6e"/>
      </g>
     </g>
    </g>
    <g id="xtick_13">
     <g id="line2d_14">
      <path clip-path="url(#p12f173d819)" d="M 332.1 324 
L 479.692877 527.144167 
" style="fill:none;stroke:#000000;stroke-dasharray:1.000000,3.000000;stroke-dashoffset:0.0;stroke-width:0.5;"/>
     </g>
     <g id="text_13">
      <!-- dicisiveness -->
      <g transform="translate(458.229039536 550.769834016)scale(0.12 -0.12)">
       <use xlink:href="#BitstreamVeraSans-Roman-64"/>
       <use x="63.4765625" xlink:href="#BitstreamVeraSans-Roman-69"/>
       <use x="91.259765625" xlink:href="#BitstreamVeraSans-Roman-63"/>
       <use x="146.240234375" xlink:href="#BitstreamVeraSans-Roman-69"/>
       <use x="174.0234375" xlink:href="#BitstreamVeraSans-Roman-73"/>
       <use x="226.123046875" xlink:href="#BitstreamVeraSans-Roman-69"/>
       <use x="253.90625" xlink:href="#BitstreamVeraSans-Roman-76"/>
       <use x="313.0859375" xlink:href="#BitstreamVeraSans-Roman-65"/>
       <use x="374.609375" xlink:href="#BitstreamVeraSans-Roman-6e"/>
       <use x="437.98828125" xlink:href="#BitstreamVeraSans-Roman-65"/>
       <use x="499.51171875" xlink:href="#BitstreamVeraSans-Roman-73"/>
       <use x="551.611328125" xlink:href="#BitstreamVeraSans-Roman-73"/>
      </g>
     </g>
    </g>
    <g id="xtick_14">
     <g id="line2d_15">
      <path clip-path="url(#p12f173d819)" d="M 332.1 324 
L 535.244167 471.592877 
" style="fill:none;stroke:#000000;stroke-dasharray:1.000000,3.000000;stroke-dashoffset:0.0;stroke-width:0.5;"/>
     </g>
     <g id="text_14">
      <!-- coordination -->
      <g transform="translate(518.003271516 489.663414536)scale(0.12 -0.12)">
       <use xlink:href="#BitstreamVeraSans-Roman-63"/>
       <use x="54.98046875" xlink:href="#BitstreamVeraSans-Roman-6f"/>
       <use x="116.162109375" xlink:href="#BitstreamVeraSans-Roman-6f"/>
       <use x="177.34375" xlink:href="#BitstreamVeraSans-Roman-72"/>
       <use x="218.44140625" xlink:href="#BitstreamVeraSans-Roman-64"/>
       <use x="281.91796875" xlink:href="#BitstreamVeraSans-Roman-69"/>
       <use x="309.701171875" xlink:href="#BitstreamVeraSans-Roman-6e"/>
       <use x="373.080078125" xlink:href="#BitstreamVeraSans-Roman-61"/>
       <use x="434.359375" xlink:href="#BitstreamVeraSans-Roman-74"/>
       <use x="473.568359375" xlink:href="#BitstreamVeraSans-Roman-69"/>
       <use x="501.3515625" xlink:href="#BitstreamVeraSans-Roman-6f"/>
       <use x="562.533203125" xlink:href="#BitstreamVeraSans-Roman-6e"/>
      </g>
     </g>
    </g>
    <g id="xtick_15">
     <g id="line2d_16">
      <path clip-path="url(#p12f173d819)" d="M 332.1 324 
L 570.910291 401.594167 
" style="fill:none;stroke:#000000;stroke-dasharray:1.000000,3.000000;stroke-dashoffset:0.0;stroke-width:0.5;"/>
     </g>
     <g id="text_15">
      <!-- aggression -->
      <g transform="translate(561.947882866 412.664834016)scale(0.12 -0.12)">
       <use xlink:href="#BitstreamVeraSans-Roman-61"/>
       <use x="61.279296875" xlink:href="#BitstreamVeraSans-Roman-67"/>
       <use x="124.755859375" xlink:href="#BitstreamVeraSans-Roman-67"/>
       <use x="188.232421875" xlink:href="#BitstreamVeraSans-Roman-72"/>
       <use x="229.314453125" xlink:href="#BitstreamVeraSans-Roman-65"/>
       <use x="290.837890625" xlink:href="#BitstreamVeraSans-Roman-73"/>
       <use x="342.9375" xlink:href="#BitstreamVeraSans-Roman-73"/>
       <use x="395.037109375" xlink:href="#BitstreamVeraSans-Roman-69"/>
       <use x="422.8203125" xlink:href="#BitstreamVeraSans-Roman-6f"/>
       <use x="484.001953125" xlink:href="#BitstreamVeraSans-Roman-6e"/>
      </g>
     </g>
    </g>
    <g id="xtick_16">
     <g id="line2d_17">
      <path clip-path="url(#p12f173d819)" d="M 332.1 324 
L 583.2 324 
" style="fill:none;stroke:#000000;stroke-dasharray:1.000000,3.000000;stroke-dashoffset:0.0;stroke-width:0.5;"/>
     </g>
     <g id="text_16">
      <!-- empathy -->
      <g transform="translate(581.581875 327.31125)scale(0.12 -0.12)">
       <use xlink:href="#BitstreamVeraSans-Roman-65"/>
       <use x="61.5234375" xlink:href="#BitstreamVeraSans-Roman-6d"/>
       <use x="158.935546875" xlink:href="#BitstreamVeraSans-Roman-70"/>
       <use x="222.412109375" xlink:href="#BitstreamVeraSans-Roman-61"/>
       <use x="283.69140625" xlink:href="#BitstreamVeraSans-Roman-74"/>
       <use x="322.900390625" xlink:href="#BitstreamVeraSans-Roman-68"/>
       <use x="386.279296875" xlink:href="#BitstreamVeraSans-Roman-79"/>
      </g>
     </g>
    </g>
    <g id="xtick_17">
     <g id="line2d_18">
      <path clip-path="url(#p12f173d819)" d="M 332.1 324 
L 570.910291 246.405833 
" style="fill:none;stroke:#000000;stroke-dasharray:1.000000,3.000000;stroke-dashoffset:0.0;stroke-width:0.5;"/>
     </g>
     <g id="text_17">
      <!-- humor -->
      <g transform="translate(575.204132866 241.957665984)scale(0.12 -0.12)">
       <use xlink:href="#BitstreamVeraSans-Roman-68"/>
       <use x="63.37890625" xlink:href="#BitstreamVeraSans-Roman-75"/>
       <use x="126.7578125" xlink:href="#BitstreamVeraSans-Roman-6d"/>
       <use x="224.169921875" xlink:href="#BitstreamVeraSans-Roman-6f"/>
       <use x="285.3515625" xlink:href="#BitstreamVeraSans-Roman-72"/>
      </g>
     </g>
    </g>
    <g id="xtick_18">
     <g id="line2d_19">
      <path clip-path="url(#p12f173d819)" d="M 332.1 324 
L 535.244167 176.407123 
" style="fill:none;stroke:#000000;stroke-dasharray:1.000000,3.000000;stroke-dashoffset:0.0;stroke-width:0.5;"/>
     </g>
     <g id="text_18">
      <!-- patience -->
      <g transform="translate(529.568271516 164.959085464)scale(0.12 -0.12)">
       <use xlink:href="#BitstreamVeraSans-Roman-70"/>
       <use x="63.4765625" xlink:href="#BitstreamVeraSans-Roman-61"/>
       <use x="124.755859375" xlink:href="#BitstreamVeraSans-Roman-74"/>
       <use x="163.96484375" xlink:href="#BitstreamVeraSans-Roman-69"/>
       <use x="191.748046875" xlink:href="#BitstreamVeraSans-Roman-65"/>
       <use x="253.271484375" xlink:href="#BitstreamVeraSans-Roman-6e"/>
       <use x="316.650390625" xlink:href="#BitstreamVeraSans-Roman-63"/>
       <use x="371.630859375" xlink:href="#BitstreamVeraSans-Roman-65"/>
      </g>
     </g>
    </g>
    <g id="xtick_19">
     <g id="line2d_20">
      <path clip-path="url(#p12f173d819)" d="M 332.1 324 
L 479.692877 120.855833 
" style="fill:none;stroke:#000000;stroke-dasharray:1.000000,3.000000;stroke-dashoffset:0.0;stroke-width:0.5;"/>
     </g>
     <g id="text_19">
      <!-- bulk_apperception -->
      <defs>
       <path d="M 9.078125 75.984375 
L 18.109375 75.984375 
L 18.109375 31.109375 
L 44.921875 54.6875 
L 56.390625 54.6875 
L 27.390625 29.109375 
L 57.625 0 
L 45.90625 0 
L 18.109375 26.703125 
L 18.109375 0 
L 9.078125 0 
z
" id="BitstreamVeraSans-Roman-6b"/>
       <path d="M 48.6875 27.296875 
Q 48.6875 37.203125 44.609375 42.84375 
Q 40.53125 48.484375 33.40625 48.484375 
Q 26.265625 48.484375 22.1875 42.84375 
Q 18.109375 37.203125 18.109375 27.296875 
Q 18.109375 17.390625 22.1875 11.75 
Q 26.265625 6.109375 33.40625 6.109375 
Q 40.53125 6.109375 44.609375 11.75 
Q 48.6875 17.390625 48.6875 27.296875 
M 18.109375 46.390625 
Q 20.953125 51.265625 25.265625 53.625 
Q 29.59375 56 35.59375 56 
Q 45.5625 56 51.78125 48.09375 
Q 58.015625 40.1875 58.015625 27.296875 
Q 58.015625 14.40625 51.78125 6.484375 
Q 45.5625 -1.421875 35.59375 -1.421875 
Q 29.59375 -1.421875 25.265625 0.953125 
Q 20.953125 3.328125 18.109375 8.203125 
L 18.109375 0 
L 9.078125 0 
L 9.078125 75.984375 
L 18.109375 75.984375 
z
" id="BitstreamVeraSans-Roman-62"/>
      </defs>
      <g transform="translate(438.954977036 103.685790984)scale(0.12 -0.12)">
       <use xlink:href="#BitstreamVeraSans-Roman-62"/>
       <use x="63.4765625" xlink:href="#BitstreamVeraSans-Roman-75"/>
       <use x="126.85546875" xlink:href="#BitstreamVeraSans-Roman-6c"/>
       <use x="154.638671875" xlink:href="#BitstreamVeraSans-Roman-6b"/>
       <use x="212.548828125" xlink:href="#BitstreamVeraSans-Roman-5f"/>
       <use x="262.548828125" xlink:href="#BitstreamVeraSans-Roman-61"/>
       <use x="323.828125" xlink:href="#BitstreamVeraSans-Roman-70"/>
       <use x="387.3046875" xlink:href="#BitstreamVeraSans-Roman-70"/>
       <use x="450.78125" xlink:href="#BitstreamVeraSans-Roman-65"/>
       <use x="512.3046875" xlink:href="#BitstreamVeraSans-Roman-72"/>
       <use x="553.38671875" xlink:href="#BitstreamVeraSans-Roman-63"/>
       <use x="608.3671875" xlink:href="#BitstreamVeraSans-Roman-65"/>
       <use x="669.890625" xlink:href="#BitstreamVeraSans-Roman-70"/>
       <use x="733.3671875" xlink:href="#BitstreamVeraSans-Roman-74"/>
       <use x="772.576171875" xlink:href="#BitstreamVeraSans-Roman-69"/>
       <use x="800.359375" xlink:href="#BitstreamVeraSans-Roman-6f"/>
       <use x="861.541015625" xlink:href="#BitstreamVeraSans-Roman-6e"/>
      </g>
     </g>
    </g>
    <g id="xtick_20">
     <g id="line2d_21">
      <path clip-path="url(#p12f173d819)" d="M 332.1 324 
L 409.694167 85.189709 
" style="fill:none;stroke:#000000;stroke-dasharray:1.000000,3.000000;stroke-dashoffset:0.0;stroke-width:0.5;"/>
     </g>
     <g id="text_20">
      <!-- meekness -->
      <g transform="translate(387.005459016 64.6199296341)scale(0.12 -0.12)">
       <use xlink:href="#BitstreamVeraSans-Roman-6d"/>
       <use x="97.412109375" xlink:href="#BitstreamVeraSans-Roman-65"/>
       <use x="158.935546875" xlink:href="#BitstreamVeraSans-Roman-65"/>
       <use x="220.458984375" xlink:href="#BitstreamVeraSans-Roman-6b"/>
       <use x="278.369140625" xlink:href="#BitstreamVeraSans-Roman-6e"/>
       <use x="341.748046875" xlink:href="#BitstreamVeraSans-Roman-65"/>
       <use x="403.271484375" xlink:href="#BitstreamVeraSans-Roman-73"/>
       <use x="455.37109375" xlink:href="#BitstreamVeraSans-Roman-73"/>
      </g>
     </g>
    </g>
   </g>
   <g id="matplotlib.axis_2">
    <g id="ytick_1">
     <g id="line2d_22">
      <path clip-path="url(#p12f173d819)" d="M 374.450099 324 
L 374.424301 322.522003 
L 374.346937 321.045806 
L 374.037951 318.106005 
L 373.524648 315.194919 
L 372.809528 312.326731 
L 371.896076 309.515413 
L 370.788741 306.774663 
L 369.492918 304.117833 
L 368.014921 301.557867 
L 366.36195 299.107236 
L 364.542058 296.777881 
L 362.564112 294.581149 
L 360.437748 292.527743 
L 358.173325 290.627666 
L 355.781875 288.890177 
L 353.27505 287.323738 
L 350.665062 285.935983 
L 347.964626 284.733672 
L 345.1869 283.722662 
L 342.345416 282.90788 
L 339.454018 282.293294 
L 336.526791 281.881899 
L 333.577997 281.675699 
L 330.622003 281.675699 
L 327.673209 281.881899 
L 324.745982 282.293294 
L 321.854584 282.90788 
L 319.0131 283.722662 
L 316.235374 284.733672 
L 313.534938 285.935983 
L 310.92495 287.323738 
L 308.418125 288.890177 
L 306.026675 290.627666 
L 303.762252 292.527743 
L 301.635888 294.581149 
L 299.657942 296.777881 
L 297.83805 299.107236 
L 296.185079 301.557867 
L 294.707082 304.117833 
L 293.411259 306.774663 
L 292.303924 309.515413 
L 291.390472 312.326731 
L 290.675352 315.194919 
L 290.162049 318.106005 
L 289.853063 321.045806 
L 289.749901 324 
L 289.853063 326.954194 
L 290.162049 329.893995 
L 290.675352 332.805081 
L 291.390472 335.673269 
L 292.303924 338.484587 
L 293.411259 341.225337 
L 294.707082 343.882167 
L 296.185079 346.442133 
L 297.83805 348.892764 
L 299.657942 351.222119 
L 301.635888 353.418851 
L 303.762252 355.472257 
L 306.026675 357.372334 
L 308.418125 359.109823 
L 310.92495 360.676262 
L 313.534938 362.064017 
L 316.235374 363.266328 
L 319.0131 364.277338 
L 321.854584 365.09212 
L 324.745982 365.706706 
L 327.673209 366.118101 
L 330.622003 366.324301 
L 333.577997 366.324301 
L 336.526791 366.118101 
L 339.454018 365.706706 
L 342.345416 365.09212 
L 345.1869 364.277338 
L 347.964626 363.266328 
L 350.665062 362.064017 
L 353.27505 360.676262 
L 355.781875 359.109823 
L 358.173325 357.372334 
L 360.437748 355.472257 
L 362.564112 353.418851 
L 364.542058 351.222119 
L 366.36195 348.892764 
L 368.014921 346.442133 
L 369.492918 343.882167 
L 370.788741 341.225337 
L 371.896076 338.484587 
L 372.809528 335.673269 
L 373.524648 332.805081 
L 374.037951 329.893995 
L 374.346937 326.954194 
L 374.450099 324 
L 374.450099 324 
" style="fill:none;stroke:#000000;stroke-dasharray:1.000000,3.000000;stroke-dashoffset:0.0;stroke-width:0.5;"/>
     </g>
     <g id="text_21">
      <!-- 0.2 -->
      <defs>
       <path d="M 19.1875 8.296875 
L 53.609375 8.296875 
L 53.609375 0 
L 7.328125 0 
L 7.328125 8.296875 
Q 12.9375 14.109375 22.625 23.890625 
Q 32.328125 33.6875 34.8125 36.53125 
Q 39.546875 41.84375 41.421875 45.53125 
Q 43.3125 49.21875 43.3125 52.78125 
Q 43.3125 58.59375 39.234375 62.25 
Q 35.15625 65.921875 28.609375 65.921875 
Q 23.96875 65.921875 18.8125 64.3125 
Q 13.671875 62.703125 7.8125 59.421875 
L 7.8125 69.390625 
Q 13.765625 71.78125 18.9375 73 
Q 24.125 74.21875 28.421875 74.21875 
Q 39.75 74.21875 46.484375 68.546875 
Q 53.21875 62.890625 53.21875 53.421875 
Q 53.21875 48.921875 51.53125 44.890625 
Q 49.859375 40.875 45.40625 35.40625 
Q 44.1875 33.984375 37.640625 27.21875 
Q 31.109375 20.453125 19.1875 8.296875 
" id="BitstreamVeraSans-Roman-32"/>
       <path d="M 31.78125 66.40625 
Q 24.171875 66.40625 20.328125 58.90625 
Q 16.5 51.421875 16.5 36.375 
Q 16.5 21.390625 20.328125 13.890625 
Q 24.171875 6.390625 31.78125 6.390625 
Q 39.453125 6.390625 43.28125 13.890625 
Q 47.125 21.390625 47.125 36.375 
Q 47.125 51.421875 43.28125 58.90625 
Q 39.453125 66.40625 31.78125 66.40625 
M 31.78125 74.21875 
Q 44.046875 74.21875 50.515625 64.515625 
Q 56.984375 54.828125 56.984375 36.375 
Q 56.984375 17.96875 50.515625 8.265625 
Q 44.046875 -1.421875 31.78125 -1.421875 
Q 19.53125 -1.421875 13.0625 8.265625 
Q 6.59375 17.96875 6.59375 36.375 
Q 6.59375 54.828125 13.0625 64.515625 
Q 19.53125 74.21875 31.78125 74.21875 
" id="BitstreamVeraSans-Roman-30"/>
       <path d="M 10.6875 12.40625 
L 21 12.40625 
L 21 0 
L 10.6875 0 
z
" id="BitstreamVeraSans-Roman-2e"/>
      </defs>
      <g transform="translate(371.226389866 305.297693671)scale(0.12 -0.12)">
       <use xlink:href="#BitstreamVeraSans-Roman-30"/>
       <use x="63.623046875" xlink:href="#BitstreamVeraSans-Roman-2e"/>
       <use x="95.41015625" xlink:href="#BitstreamVeraSans-Roman-32"/>
      </g>
     </g>
    </g>
    <g id="ytick_2">
     <g id="line2d_23">
      <path clip-path="url(#p12f173d819)" d="M 428.606444 324 
L 428.547655 320.631974 
L 428.37136 317.268051 
L 428.077772 313.91233 
L 427.66725 310.568899 
L 427.140295 307.241832 
L 426.497547 303.935182 
L 425.739791 300.652978 
L 424.867948 297.399219 
L 423.883083 294.177869 
L 422.786394 290.992852 
L 421.579217 287.84805 
L 420.263024 284.747293 
L 418.839418 281.694359 
L 417.310133 278.692969 
L 415.677032 275.746778 
L 413.942106 272.859376 
L 412.107468 270.034281 
L 410.175354 267.274935 
L 408.148116 264.5847 
L 406.028225 261.966853 
L 403.818265 259.424584 
L 401.520926 256.960991 
L 399.139009 254.579074 
L 396.675416 252.281735 
L 394.133147 250.071775 
L 391.5153 247.951884 
L 388.825065 245.924646 
L 386.065719 243.992532 
L 383.240624 242.157894 
L 380.353222 240.422968 
L 377.407031 238.789867 
L 374.405641 237.260582 
L 371.352707 235.836976 
L 368.25195 234.520783 
L 365.107148 233.313606 
L 361.922131 232.216917 
L 358.700781 231.232052 
L 355.447022 230.360209 
L 352.164818 229.602453 
L 348.858168 228.959705 
L 345.531101 228.43275 
L 342.18767 228.022228 
L 338.831949 227.72864 
L 335.468026 227.552345 
L 332.1 227.493556 
L 328.731974 227.552345 
L 325.368051 227.72864 
L 322.01233 228.022228 
L 318.668899 228.43275 
L 315.341832 228.959705 
L 312.035182 229.602453 
L 308.752978 230.360209 
L 305.499219 231.232052 
L 302.277869 232.216917 
L 299.092852 233.313606 
L 295.94805 234.520783 
L 292.847293 235.836976 
L 289.794359 237.260582 
L 286.792969 238.789867 
L 283.846778 240.422968 
L 280.959376 242.157894 
L 278.134281 243.992532 
L 275.374935 245.924646 
L 272.6847 247.951884 
L 270.066853 250.071775 
L 267.524584 252.281735 
L 265.060991 254.579074 
L 262.679074 256.960991 
L 260.381735 259.424584 
L 258.171775 261.966853 
L 256.051884 264.5847 
L 254.024646 267.274935 
L 252.092532 270.034281 
L 250.257894 272.859376 
L 248.522968 275.746778 
L 246.889867 278.692969 
L 245.360582 281.694359 
L 243.936976 284.747293 
L 242.620783 287.84805 
L 241.413606 290.992852 
L 240.316917 294.177869 
L 239.332052 297.399219 
L 238.460209 300.652978 
L 237.702453 303.935182 
L 237.059705 307.241832 
L 236.53275 310.568899 
L 236.122228 313.91233 
L 235.82864 317.268051 
L 235.652345 320.631974 
L 235.593556 324 
L 235.652345 327.368026 
L 235.82864 330.731949 
L 236.122228 334.08767 
L 236.53275 337.431101 
L 237.059705 340.758168 
L 237.702453 344.064818 
L 238.460209 347.347022 
L 239.332052 350.600781 
L 240.316917 353.822131 
L 241.413606 357.007148 
L 242.620783 360.15195 
L 243.936976 363.252707 
L 245.360582 366.305641 
L 246.889867 369.307031 
L 248.522968 372.253222 
L 250.257894 375.140624 
L 252.092532 377.965719 
L 254.024646 380.725065 
L 256.051884 383.4153 
L 258.171775 386.033147 
L 260.381735 388.575416 
L 262.679074 391.039009 
L 265.060991 393.420926 
L 267.524584 395.718265 
L 270.066853 397.928225 
L 272.6847 400.048116 
L 275.374935 402.075354 
L 278.134281 404.007468 
L 280.959376 405.842106 
L 283.846778 407.577032 
L 286.792969 409.210133 
L 289.794359 410.739418 
L 292.847293 412.163024 
L 295.94805 413.479217 
L 299.092852 414.686394 
L 302.277869 415.783083 
L 305.499219 416.767948 
L 308.752978 417.639791 
L 312.035182 418.397547 
L 315.341832 419.040295 
L 318.668899 419.56725 
L 322.01233 419.977772 
L 325.368051 420.27136 
L 328.731974 420.447655 
L 332.1 420.506444 
L 335.468026 420.447655 
L 338.831949 420.27136 
L 342.18767 419.977772 
L 345.531101 419.56725 
L 348.858168 419.040295 
L 352.164818 418.397547 
L 355.447022 417.639791 
L 358.700781 416.767948 
L 361.922131 415.783083 
L 365.107148 414.686394 
L 368.25195 413.479217 
L 371.352707 412.163024 
L 374.405641 410.739418 
L 377.407031 409.210133 
L 380.353222 407.577032 
L 383.240624 405.842106 
L 386.065719 404.007468 
L 388.825065 402.075354 
L 391.5153 400.048116 
L 394.133147 397.928225 
L 396.675416 395.718265 
L 399.139009 393.420926 
L 401.520926 391.039009 
L 403.818265 388.575416 
L 406.028225 386.033147 
L 408.148116 383.4153 
L 410.175354 380.725065 
L 412.107468 377.965719 
L 413.942106 375.140624 
L 415.677032 372.253222 
L 417.310133 369.307031 
L 418.839418 366.305641 
L 420.263024 363.252707 
L 421.579217 360.15195 
L 422.786394 357.007148 
L 423.883083 353.822131 
L 424.867948 350.600781 
L 425.739791 347.347022 
L 426.497547 344.064818 
L 427.140295 340.758168 
L 427.66725 337.431101 
L 428.077772 334.08767 
L 428.37136 330.731949 
L 428.547655 327.368026 
L 428.606444 324 
L 428.606444 324 
" style="fill:none;stroke:#000000;stroke-dasharray:1.000000,3.000000;stroke-dashoffset:0.0;stroke-width:0.5;"/>
     </g>
     <g id="text_22">
      <!-- 0.4 -->
      <defs>
       <path d="M 37.796875 64.3125 
L 12.890625 25.390625 
L 37.796875 25.390625 
z
M 35.203125 72.90625 
L 47.609375 72.90625 
L 47.609375 25.390625 
L 58.015625 25.390625 
L 58.015625 17.1875 
L 47.609375 17.1875 
L 47.609375 0 
L 37.796875 0 
L 37.796875 17.1875 
L 4.890625 17.1875 
L 4.890625 26.703125 
z
" id="BitstreamVeraSans-Roman-34"/>
      </defs>
      <g transform="translate(421.260328749 284.572957607)scale(0.12 -0.12)">
       <use xlink:href="#BitstreamVeraSans-Roman-30"/>
       <use x="63.623046875" xlink:href="#BitstreamVeraSans-Roman-2e"/>
       <use x="95.41015625" xlink:href="#BitstreamVeraSans-Roman-34"/>
      </g>
     </g>
    </g>
    <g id="ytick_3">
     <g id="line2d_24">
      <path clip-path="url(#p12f173d819)" d="M 482.76279 324 
L 482.67101 318.741944 
L 482.395783 313.490295 
L 481.937443 308.25145 
L 481.29655 303.031792 
L 480.473883 297.837681 
L 479.470446 292.675445 
L 478.287461 287.551372 
L 476.926369 282.471707 
L 475.388828 277.442638 
L 473.676712 272.470291 
L 471.792106 267.560726 
L 469.737307 262.719923 
L 467.514818 257.95378 
L 465.127347 253.268105 
L 462.577803 248.668605 
L 459.869292 244.160885 
L 457.005113 239.750437 
L 453.988757 235.442634 
L 450.823898 231.242725 
L 447.514393 227.155826 
L 444.064272 223.186916 
L 440.477741 219.340832 
L 436.759168 215.622259 
L 432.913084 212.035728 
L 428.944174 208.585607 
L 424.857275 205.276102 
L 420.657366 202.111243 
L 416.349563 199.094887 
L 411.939115 196.230708 
L 407.431395 193.522197 
L 402.831895 190.972653 
L 398.14622 188.585182 
L 393.380077 186.362693 
L 388.539274 184.307894 
L 383.629709 182.423288 
L 378.657362 180.711172 
L 373.628293 179.173631 
L 368.548628 177.812539 
L 363.424555 176.629554 
L 358.262319 175.626117 
L 353.068208 174.80345 
L 347.84855 174.162557 
L 342.609705 173.704217 
L 337.358056 173.42899 
L 332.1 173.33721 
L 326.841944 173.42899 
L 321.590295 173.704217 
L 316.35145 174.162557 
L 311.131792 174.80345 
L 305.937681 175.626117 
L 300.775445 176.629554 
L 295.651372 177.812539 
L 290.571707 179.173631 
L 285.542638 180.711172 
L 280.570291 182.423288 
L 275.660726 184.307894 
L 270.819923 186.362693 
L 266.05378 188.585182 
L 261.368105 190.972653 
L 256.768605 193.522197 
L 252.260885 196.230708 
L 247.850437 199.094887 
L 243.542634 202.111243 
L 239.342725 205.276102 
L 235.255826 208.585607 
L 231.286916 212.035728 
L 227.440832 215.622259 
L 223.722259 219.340832 
L 220.135728 223.186916 
L 216.685607 227.155826 
L 213.376102 231.242725 
L 210.211243 235.442634 
L 207.194887 239.750437 
L 204.330708 244.160885 
L 201.622197 248.668605 
L 199.072653 253.268105 
L 196.685182 257.95378 
L 194.462693 262.719923 
L 192.407894 267.560726 
L 190.523288 272.470291 
L 188.811172 277.442638 
L 187.273631 282.471707 
L 185.912539 287.551372 
L 184.729554 292.675445 
L 183.726117 297.837681 
L 182.90345 303.031792 
L 182.262557 308.25145 
L 181.804217 313.490295 
L 181.52899 318.741944 
L 181.43721 324 
L 181.52899 329.258056 
L 181.804217 334.509705 
L 182.262557 339.74855 
L 182.90345 344.968208 
L 183.726117 350.162319 
L 184.729554 355.324555 
L 185.912539 360.448628 
L 187.273631 365.528293 
L 188.811172 370.557362 
L 190.523288 375.529709 
L 192.407894 380.439274 
L 194.462693 385.280077 
L 196.685182 390.04622 
L 199.072653 394.731895 
L 201.622197 399.331395 
L 204.330708 403.839115 
L 207.194887 408.249563 
L 210.211243 412.557366 
L 213.376102 416.757275 
L 216.685607 420.844174 
L 220.135728 424.813084 
L 223.722259 428.659168 
L 227.440832 432.377741 
L 231.286916 435.964272 
L 235.255826 439.414393 
L 239.342725 442.723898 
L 243.542634 445.888757 
L 247.850437 448.905113 
L 252.260885 451.769292 
L 256.768605 454.477803 
L 261.368105 457.027347 
L 266.05378 459.414818 
L 270.819923 461.637307 
L 275.660726 463.692106 
L 280.570291 465.576712 
L 285.542638 467.288828 
L 290.571707 468.826369 
L 295.651372 470.187461 
L 300.775445 471.370446 
L 305.937681 472.373883 
L 311.131792 473.19655 
L 316.35145 473.837443 
L 321.590295 474.295783 
L 326.841944 474.57101 
L 332.1 474.66279 
L 337.358056 474.57101 
L 342.609705 474.295783 
L 347.84855 473.837443 
L 353.068208 473.19655 
L 358.262319 472.373883 
L 363.424555 471.370446 
L 368.548628 470.187461 
L 373.628293 468.826369 
L 378.657362 467.288828 
L 383.629709 465.576712 
L 388.539274 463.692106 
L 393.380077 461.637307 
L 398.14622 459.414818 
L 402.831895 457.027347 
L 407.431395 454.477803 
L 411.939115 451.769292 
L 416.349563 448.905113 
L 420.657366 445.888757 
L 424.857275 442.723898 
L 428.944174 439.414393 
L 432.913084 435.964272 
L 436.759168 432.377741 
L 440.477741 428.659168 
L 444.064272 424.813084 
L 447.514393 420.844174 
L 450.823898 416.757275 
L 453.988757 412.557366 
L 457.005113 408.249563 
L 459.869292 403.839115 
L 462.577803 399.331395 
L 465.127347 394.731895 
L 467.514818 390.04622 
L 469.737307 385.280077 
L 471.792106 380.439274 
L 473.676712 375.529709 
L 475.388828 370.557362 
L 476.926369 365.528293 
L 478.287461 360.448628 
L 479.470446 355.324555 
L 480.473883 350.162319 
L 481.29655 344.968208 
L 481.937443 339.74855 
L 482.395783 334.509705 
L 482.67101 329.258056 
L 482.76279 324 
L 482.76279 324 
" style="fill:none;stroke:#000000;stroke-dasharray:1.000000,3.000000;stroke-dashoffset:0.0;stroke-width:0.5;"/>
     </g>
     <g id="text_23">
      <!-- 0.6 -->
      <defs>
       <path d="M 33.015625 40.375 
Q 26.375 40.375 22.484375 35.828125 
Q 18.609375 31.296875 18.609375 23.390625 
Q 18.609375 15.53125 22.484375 10.953125 
Q 26.375 6.390625 33.015625 6.390625 
Q 39.65625 6.390625 43.53125 10.953125 
Q 47.40625 15.53125 47.40625 23.390625 
Q 47.40625 31.296875 43.53125 35.828125 
Q 39.65625 40.375 33.015625 40.375 
M 52.59375 71.296875 
L 52.59375 62.3125 
Q 48.875 64.0625 45.09375 64.984375 
Q 41.3125 65.921875 37.59375 65.921875 
Q 27.828125 65.921875 22.671875 59.328125 
Q 17.53125 52.734375 16.796875 39.40625 
Q 19.671875 43.65625 24.015625 45.921875 
Q 28.375 48.1875 33.59375 48.1875 
Q 44.578125 48.1875 50.953125 41.515625 
Q 57.328125 34.859375 57.328125 23.390625 
Q 57.328125 12.15625 50.6875 5.359375 
Q 44.046875 -1.421875 33.015625 -1.421875 
Q 20.359375 -1.421875 13.671875 8.265625 
Q 6.984375 17.96875 6.984375 36.375 
Q 6.984375 53.65625 15.1875 63.9375 
Q 23.390625 74.21875 37.203125 74.21875 
Q 40.921875 74.21875 44.703125 73.484375 
Q 48.484375 72.75 52.59375 71.296875 
" id="BitstreamVeraSans-Roman-36"/>
      </defs>
      <g transform="translate(471.294267632 263.848221542)scale(0.12 -0.12)">
       <use xlink:href="#BitstreamVeraSans-Roman-30"/>
       <use x="63.623046875" xlink:href="#BitstreamVeraSans-Roman-2e"/>
       <use x="95.41015625" xlink:href="#BitstreamVeraSans-Roman-36"/>
      </g>
     </g>
    </g>
    <g id="ytick_4">
     <g id="line2d_25">
      <path clip-path="url(#p12f173d819)" d="M 536.919135 324 
L 536.794365 316.851915 
L 536.420206 309.712539 
L 535.797114 302.590571 
L 534.925849 295.494686 
L 533.807472 288.43353 
L 532.443345 281.415707 
L 530.835131 274.449767 
L 528.984789 267.544195 
L 526.894573 260.707407 
L 524.56703 253.94773 
L 522.004995 247.273402 
L 519.21159 240.692553 
L 516.190219 234.213201 
L 512.944562 227.843241 
L 509.478574 221.590433 
L 505.796477 215.462395 
L 501.902758 209.466593 
L 497.802161 203.610333 
L 493.499681 197.900749 
L 489.00056 192.344798 
L 484.31028 186.949248 
L 479.434556 181.720674 
L 474.379326 176.665444 
L 469.150752 171.78972 
L 463.755202 167.09944 
L 458.199251 162.600319 
L 452.489667 158.297839 
L 446.633407 154.197242 
L 440.637605 150.303523 
L 434.509567 146.621426 
L 428.256759 143.155438 
L 421.886799 139.909781 
L 415.407447 136.88841 
L 408.826598 134.095005 
L 402.15227 131.53297 
L 395.392593 129.205427 
L 388.555805 127.115211 
L 381.650233 125.264869 
L 374.684293 123.656655 
L 367.66647 122.292528 
L 360.605314 121.174151 
L 353.509429 120.302886 
L 346.387461 119.679794 
L 339.248085 119.305635 
L 332.1 119.180865 
L 324.951915 119.305635 
L 317.812539 119.679794 
L 310.690571 120.302886 
L 303.594686 121.174151 
L 296.53353 122.292528 
L 289.515707 123.656655 
L 282.549767 125.264869 
L 275.644195 127.115211 
L 268.807407 129.205427 
L 262.04773 131.53297 
L 255.373402 134.095005 
L 248.792553 136.88841 
L 242.313201 139.909781 
L 235.943241 143.155438 
L 229.690433 146.621426 
L 223.562395 150.303523 
L 217.566593 154.197242 
L 211.710333 158.297839 
L 206.000749 162.600319 
L 200.444798 167.09944 
L 195.049248 171.78972 
L 189.820674 176.665444 
L 184.765444 181.720674 
L 179.88972 186.949248 
L 175.19944 192.344798 
L 170.700319 197.900749 
L 166.397839 203.610333 
L 162.297242 209.466593 
L 158.403523 215.462395 
L 154.721426 221.590433 
L 151.255438 227.843241 
L 148.009781 234.213201 
L 144.98841 240.692553 
L 142.195005 247.273402 
L 139.63297 253.94773 
L 137.305427 260.707407 
L 135.215211 267.544195 
L 133.364869 274.449767 
L 131.756655 281.415707 
L 130.392528 288.43353 
L 129.274151 295.494686 
L 128.402886 302.590571 
L 127.779794 309.712539 
L 127.405635 316.851915 
L 127.280865 324 
L 127.405635 331.148085 
L 127.779794 338.287461 
L 128.402886 345.409429 
L 129.274151 352.505314 
L 130.392528 359.56647 
L 131.756655 366.584293 
L 133.364869 373.550233 
L 135.215211 380.455805 
L 137.305427 387.292593 
L 139.63297 394.05227 
L 142.195005 400.726598 
L 144.98841 407.307447 
L 148.009781 413.786799 
L 151.255438 420.156759 
L 154.721426 426.409567 
L 158.403523 432.537605 
L 162.297242 438.533407 
L 166.397839 444.389667 
L 170.700319 450.099251 
L 175.19944 455.655202 
L 179.88972 461.050752 
L 184.765444 466.279326 
L 189.820674 471.334556 
L 195.049248 476.21028 
L 200.444798 480.90056 
L 206.000749 485.399681 
L 211.710333 489.702161 
L 217.566593 493.802758 
L 223.562395 497.696477 
L 229.690433 501.378574 
L 235.943241 504.844562 
L 242.313201 508.090219 
L 248.792553 511.11159 
L 255.373402 513.904995 
L 262.04773 516.46703 
L 268.807407 518.794573 
L 275.644195 520.884789 
L 282.549767 522.735131 
L 289.515707 524.343345 
L 296.53353 525.707472 
L 303.594686 526.825849 
L 310.690571 527.697114 
L 317.812539 528.320206 
L 324.951915 528.694365 
L 332.1 528.819135 
L 339.248085 528.694365 
L 346.387461 528.320206 
L 353.509429 527.697114 
L 360.605314 526.825849 
L 367.66647 525.707472 
L 374.684293 524.343345 
L 381.650233 522.735131 
L 388.555805 520.884789 
L 395.392593 518.794573 
L 402.15227 516.46703 
L 408.826598 513.904995 
L 415.407447 511.11159 
L 421.886799 508.090219 
L 428.256759 504.844562 
L 434.509567 501.378574 
L 440.637605 497.696477 
L 446.633407 493.802758 
L 452.489667 489.702161 
L 458.199251 485.399681 
L 463.755202 480.90056 
L 469.150752 476.21028 
L 474.379326 471.334556 
L 479.434556 466.279326 
L 484.31028 461.050752 
L 489.00056 455.655202 
L 493.499681 450.099251 
L 497.802161 444.389667 
L 501.902758 438.533407 
L 505.796477 432.537605 
L 509.478574 426.409567 
L 512.944562 420.156759 
L 516.190219 413.786799 
L 519.21159 407.307447 
L 522.004995 400.726598 
L 524.56703 394.05227 
L 526.894573 387.292593 
L 528.984789 380.455805 
L 530.835131 373.550233 
L 532.443345 366.584293 
L 533.807472 359.56647 
L 534.925849 352.505314 
L 535.797114 345.409429 
L 536.420206 338.287461 
L 536.794365 331.148085 
L 536.919135 324 
L 536.919135 324 
" style="fill:none;stroke:#000000;stroke-dasharray:1.000000,3.000000;stroke-dashoffset:0.0;stroke-width:0.5;"/>
     </g>
     <g id="text_24">
      <!-- 0.8 -->
      <defs>
       <path d="M 31.78125 34.625 
Q 24.75 34.625 20.71875 30.859375 
Q 16.703125 27.09375 16.703125 20.515625 
Q 16.703125 13.921875 20.71875 10.15625 
Q 24.75 6.390625 31.78125 6.390625 
Q 38.8125 6.390625 42.859375 10.171875 
Q 46.921875 13.96875 46.921875 20.515625 
Q 46.921875 27.09375 42.890625 30.859375 
Q 38.875 34.625 31.78125 34.625 
M 21.921875 38.8125 
Q 15.578125 40.375 12.03125 44.71875 
Q 8.5 49.078125 8.5 55.328125 
Q 8.5 64.0625 14.71875 69.140625 
Q 20.953125 74.21875 31.78125 74.21875 
Q 42.671875 74.21875 48.875 69.140625 
Q 55.078125 64.0625 55.078125 55.328125 
Q 55.078125 49.078125 51.53125 44.71875 
Q 48 40.375 41.703125 38.8125 
Q 48.828125 37.15625 52.796875 32.3125 
Q 56.78125 27.484375 56.78125 20.515625 
Q 56.78125 9.90625 50.3125 4.234375 
Q 43.84375 -1.421875 31.78125 -1.421875 
Q 19.734375 -1.421875 13.25 4.234375 
Q 6.78125 9.90625 6.78125 20.515625 
Q 6.78125 27.484375 10.78125 32.3125 
Q 14.796875 37.15625 21.921875 38.8125 
M 18.3125 54.390625 
Q 18.3125 48.734375 21.84375 45.5625 
Q 25.390625 42.390625 31.78125 42.390625 
Q 38.140625 42.390625 41.71875 45.5625 
Q 45.3125 48.734375 45.3125 54.390625 
Q 45.3125 60.0625 41.71875 63.234375 
Q 38.140625 66.40625 31.78125 66.40625 
Q 25.390625 66.40625 21.84375 63.234375 
Q 18.3125 60.0625 18.3125 54.390625 
" id="BitstreamVeraSans-Roman-38"/>
      </defs>
      <g transform="translate(521.328206515 243.123485478)scale(0.12 -0.12)">
       <use xlink:href="#BitstreamVeraSans-Roman-30"/>
       <use x="63.623046875" xlink:href="#BitstreamVeraSans-Roman-2e"/>
       <use x="95.41015625" xlink:href="#BitstreamVeraSans-Roman-38"/>
      </g>
     </g>
    </g>
   </g>
  </g>
 </g>
 <defs>
  <clipPath id="p12f173d819">
   <path d="M 332.1 575.1 
C 398.692498 575.1 462.566506 548.64252 509.654513 501.554513 
C 556.74252 454.466506 583.2 390.592498 583.2 324 
C 583.2 257.407502 556.74252 193.533494 509.654513 146.445487 
C 462.566506 99.35748 398.692498 72.9 332.1 72.9 
C 265.507502 72.9 201.633494 99.35748 154.545487 146.445487 
C 107.45748 193.533494 81 257.407502 81 324 
C 81 390.592498 107.45748 454.466506 154.545487 501.554513 
C 201.633494 548.64252 265.507502 575.1 332.1 575.1 
z
"/>
  </clipPath>
 </defs>
</svg>
