<?xml version="1.0" encoding="utf-8" standalone="no"?>
<!DOCTYPE svg PUBLIC "-//W3C//DTD SVG 1.1//EN"
  "http://www.w3.org/Graphics/SVG/1.1/DTD/svg11.dtd">
<!-- Created with matplotlib (http://matplotlib.org/) -->
<svg height="648pt" version="1.1" viewBox="0 0 648 648" width="648pt" xmlns="http://www.w3.org/2000/svg" xmlns:xlink="http://www.w3.org/1999/xlink">
 <defs>
  <style type="text/css">
*{stroke-linecap:butt;stroke-linejoin:round;stroke-miterlimit:100000;}
  </style>
 </defs>
 <g id="figure_1">
  <g id="patch_1">
   <path d="M 0 648 
L 648 648 
L 648 0 
L 0 0 
z
" style="fill:#ffffff;"/>
  </g>
  <g id="axes_1">
   <g id="patch_2">
    <path d="M 332.1 575.1 
C 398.692498 575.1 462.566506 548.64252 509.654513 501.554513 
C 556.74252 454.466506 583.2 390.592498 583.2 324 
C 583.2 257.407502 556.74252 193.533494 509.654513 146.445487 
C 462.566506 99.35748 398.692498 72.9 332.1 72.9 
C 265.507502 72.9 201.633494 99.35748 154.545487 146.445487 
C 107.45748 193.533494 81 257.407502 81 324 
C 81 390.592498 107.45748 454.466506 154.545487 501.554513 
C 201.633494 548.64252 265.507502 575.1 332.1 575.1 
z
" style="fill:#ffffff;"/>
   </g>
   <g id="patch_3">
    <path clip-path="url(#p2bae3c7a1c)" d="M 332.1 72.9 
L 332.1 324 
L 273.203743 242.936256 
L 237.500048 255.269112 
L 215.175361 286.008882 
L 207.499331 324 
L 150.125173 383.127205 
L 321.296559 331.84916 
L 304.029186 362.636161 
L 256.502263 556.665912 
L 332.1 325.167743 
L 362.672184 418.091508 
L 333.572396 326.02658 
L 433.231815 397.476565 
L 447.23135 361.408443 
L 487.349163 324 
L 354.978172 316.566431 
L 458.848893 231.911539 
L 420.763657 201.964946 
L 383.624913 165.422624 
z
" style="fill:#0000ff;opacity:0.25;stroke:#000000;stroke-linejoin:miter;"/>
   </g>
   <g id="line2d_1">
    <path clip-path="url(#p2bae3c7a1c)" d="M 332.1 72.9 
L 332.1 324 
L 273.203743 242.936256 
L 237.500048 255.269112 
L 215.175361 286.008882 
L 207.499331 324 
L 150.125173 383.127205 
L 321.296559 331.84916 
L 304.029186 362.636161 
L 256.502263 556.665912 
L 332.1 325.167743 
L 362.672184 418.091508 
L 333.572396 326.02658 
L 433.231815 397.476565 
L 447.23135 361.408443 
L 487.349163 324 
L 354.978172 316.566431 
L 458.848893 231.911539 
L 420.763657 201.964946 
L 383.624913 165.422624 
L 332.1 72.9 
" style="fill:none;stroke:#0000ff;stroke-linecap:square;"/>
   </g>
   <g id="patch_4">
    <path d="M 332.1 575.1 
C 398.692498 575.1 462.566506 548.64252 509.654513 501.554513 
C 556.74252 454.466506 583.2 390.592498 583.2 324 
C 583.2 257.407502 556.74252 193.533494 509.654513 146.445487 
C 462.566506 99.35748 398.692498 72.9 332.1 72.9 
C 265.507502 72.9 201.633494 99.35748 154.545487 146.445487 
C 107.45748 193.533494 81 257.407502 81 324 
C 81 390.592498 107.45748 454.466506 154.545487 501.554513 
C 201.633494 548.64252 265.507502 575.1 332.1 575.1 
L 332.1 575.1 
z
" style="fill:none;stroke:#000000;stroke-linecap:square;stroke-linejoin:miter;"/>
   </g>
   <g id="matplotlib.axis_1">
    <g id="xtick_1">
     <g id="line2d_2">
      <path clip-path="url(#p2bae3c7a1c)" d="M 332.1 324 
L 332.1 72.9 
" style="fill:none;stroke:#000000;stroke-dasharray:1.000000,3.000000;stroke-dashoffset:0.0;stroke-width:0.5;"/>
     </g>
     <g id="text_1">
      <!-- candor -->
      <defs>
       <path d="M 54.890625 33.015625 
L 54.890625 0 
L 45.90625 0 
L 45.90625 32.71875 
Q 45.90625 40.484375 42.875 44.328125 
Q 39.84375 48.1875 33.796875 48.1875 
Q 26.515625 48.1875 22.3125 43.546875 
Q 18.109375 38.921875 18.109375 30.90625 
L 18.109375 0 
L 9.078125 0 
L 9.078125 54.6875 
L 18.109375 54.6875 
L 18.109375 46.1875 
Q 21.34375 51.125 25.703125 53.5625 
Q 30.078125 56 35.796875 56 
Q 45.21875 56 50.046875 50.171875 
Q 54.890625 44.34375 54.890625 33.015625 
" id="BitstreamVeraSans-Roman-6e"/>
       <path d="M 41.109375 46.296875 
Q 39.59375 47.171875 37.8125 47.578125 
Q 36.03125 48 33.890625 48 
Q 26.265625 48 22.1875 43.046875 
Q 18.109375 38.09375 18.109375 28.8125 
L 18.109375 0 
L 9.078125 0 
L 9.078125 54.6875 
L 18.109375 54.6875 
L 18.109375 46.1875 
Q 20.953125 51.171875 25.484375 53.578125 
Q 30.03125 56 36.53125 56 
Q 37.453125 56 38.578125 55.875 
Q 39.703125 55.765625 41.0625 55.515625 
z
" id="BitstreamVeraSans-Roman-72"/>
       <path d="M 30.609375 48.390625 
Q 23.390625 48.390625 19.1875 42.75 
Q 14.984375 37.109375 14.984375 27.296875 
Q 14.984375 17.484375 19.15625 11.84375 
Q 23.34375 6.203125 30.609375 6.203125 
Q 37.796875 6.203125 41.984375 11.859375 
Q 46.1875 17.53125 46.1875 27.296875 
Q 46.1875 37.015625 41.984375 42.703125 
Q 37.796875 48.390625 30.609375 48.390625 
M 30.609375 56 
Q 42.328125 56 49.015625 48.375 
Q 55.71875 40.765625 55.71875 27.296875 
Q 55.71875 13.875 49.015625 6.21875 
Q 42.328125 -1.421875 30.609375 -1.421875 
Q 18.84375 -1.421875 12.171875 6.21875 
Q 5.515625 13.875 5.515625 27.296875 
Q 5.515625 40.765625 12.171875 48.375 
Q 18.84375 56 30.609375 56 
" id="BitstreamVeraSans-Roman-6f"/>
       <path d="M 45.40625 46.390625 
L 45.40625 75.984375 
L 54.390625 75.984375 
L 54.390625 0 
L 45.40625 0 
L 45.40625 8.203125 
Q 42.578125 3.328125 38.25 0.953125 
Q 33.9375 -1.421875 27.875 -1.421875 
Q 17.96875 -1.421875 11.734375 6.484375 
Q 5.515625 14.40625 5.515625 27.296875 
Q 5.515625 40.1875 11.734375 48.09375 
Q 17.96875 56 27.875 56 
Q 33.9375 56 38.25 53.625 
Q 42.578125 51.265625 45.40625 46.390625 
M 14.796875 27.296875 
Q 14.796875 17.390625 18.875 11.75 
Q 22.953125 6.109375 30.078125 6.109375 
Q 37.203125 6.109375 41.296875 11.75 
Q 45.40625 17.390625 45.40625 27.296875 
Q 45.40625 37.203125 41.296875 42.84375 
Q 37.203125 48.484375 30.078125 48.484375 
Q 22.953125 48.484375 18.875 42.84375 
Q 14.796875 37.203125 14.796875 27.296875 
" id="BitstreamVeraSans-Roman-64"/>
       <path d="M 34.28125 27.484375 
Q 23.390625 27.484375 19.1875 25 
Q 14.984375 22.515625 14.984375 16.5 
Q 14.984375 11.71875 18.140625 8.90625 
Q 21.296875 6.109375 26.703125 6.109375 
Q 34.1875 6.109375 38.703125 11.40625 
Q 43.21875 16.703125 43.21875 25.484375 
L 43.21875 27.484375 
z
M 52.203125 31.203125 
L 52.203125 0 
L 43.21875 0 
L 43.21875 8.296875 
Q 40.140625 3.328125 35.546875 0.953125 
Q 30.953125 -1.421875 24.3125 -1.421875 
Q 15.921875 -1.421875 10.953125 3.296875 
Q 6 8.015625 6 15.921875 
Q 6 25.140625 12.171875 29.828125 
Q 18.359375 34.515625 30.609375 34.515625 
L 43.21875 34.515625 
L 43.21875 35.40625 
Q 43.21875 41.609375 39.140625 45 
Q 35.0625 48.390625 27.6875 48.390625 
Q 23 48.390625 18.546875 47.265625 
Q 14.109375 46.140625 10.015625 43.890625 
L 10.015625 52.203125 
Q 14.9375 54.109375 19.578125 55.046875 
Q 24.21875 56 28.609375 56 
Q 40.484375 56 46.34375 49.84375 
Q 52.203125 43.703125 52.203125 31.203125 
" id="BitstreamVeraSans-Roman-61"/>
       <path d="M 48.78125 52.59375 
L 48.78125 44.1875 
Q 44.96875 46.296875 41.140625 47.34375 
Q 37.3125 48.390625 33.40625 48.390625 
Q 24.65625 48.390625 19.8125 42.84375 
Q 14.984375 37.3125 14.984375 27.296875 
Q 14.984375 17.28125 19.8125 11.734375 
Q 24.65625 6.203125 33.40625 6.203125 
Q 37.3125 6.203125 41.140625 7.25 
Q 44.96875 8.296875 48.78125 10.40625 
L 48.78125 2.09375 
Q 45.015625 0.34375 40.984375 -0.53125 
Q 36.96875 -1.421875 32.421875 -1.421875 
Q 20.0625 -1.421875 12.78125 6.34375 
Q 5.515625 14.109375 5.515625 27.296875 
Q 5.515625 40.671875 12.859375 48.328125 
Q 20.21875 56 33.015625 56 
Q 37.15625 56 41.109375 55.140625 
Q 45.0625 54.296875 48.78125 52.59375 
" id="BitstreamVeraSans-Roman-63"/>
      </defs>
      <g transform="translate(311.3746875 51.10125)scale(0.12 -0.12)">
       <use xlink:href="#BitstreamVeraSans-Roman-63"/>
       <use x="54.98046875" xlink:href="#BitstreamVeraSans-Roman-61"/>
       <use x="116.259765625" xlink:href="#BitstreamVeraSans-Roman-6e"/>
       <use x="179.638671875" xlink:href="#BitstreamVeraSans-Roman-64"/>
       <use x="243.115234375" xlink:href="#BitstreamVeraSans-Roman-6f"/>
       <use x="304.296875" xlink:href="#BitstreamVeraSans-Roman-72"/>
      </g>
     </g>
    </g>
    <g id="xtick_2">
     <g id="line2d_3">
      <path clip-path="url(#p2bae3c7a1c)" d="M 332.1 324 
L 254.505833 85.189709 
" style="fill:none;stroke:#000000;stroke-dasharray:1.000000,3.000000;stroke-dashoffset:0.0;stroke-width:0.5;"/>
     </g>
     <g id="text_2">
      <!-- sensuality -->
      <defs>
       <path d="M 9.421875 75.984375 
L 18.40625 75.984375 
L 18.40625 0 
L 9.421875 0 
z
" id="BitstreamVeraSans-Roman-6c"/>
       <path d="M 9.421875 54.6875 
L 18.40625 54.6875 
L 18.40625 0 
L 9.421875 0 
z
M 9.421875 75.984375 
L 18.40625 75.984375 
L 18.40625 64.59375 
L 9.421875 64.59375 
z
" id="BitstreamVeraSans-Roman-69"/>
       <path d="M 32.171875 -5.078125 
Q 28.375 -14.84375 24.75 -17.8125 
Q 21.140625 -20.796875 15.09375 -20.796875 
L 7.90625 -20.796875 
L 7.90625 -13.28125 
L 13.1875 -13.28125 
Q 16.890625 -13.28125 18.9375 -11.515625 
Q 21 -9.765625 23.484375 -3.21875 
L 25.09375 0.875 
L 2.984375 54.6875 
L 12.5 54.6875 
L 29.59375 11.921875 
L 46.6875 54.6875 
L 56.203125 54.6875 
z
" id="BitstreamVeraSans-Roman-79"/>
       <path d="M 56.203125 29.59375 
L 56.203125 25.203125 
L 14.890625 25.203125 
Q 15.484375 15.921875 20.484375 11.0625 
Q 25.484375 6.203125 34.421875 6.203125 
Q 39.59375 6.203125 44.453125 7.46875 
Q 49.3125 8.734375 54.109375 11.28125 
L 54.109375 2.78125 
Q 49.265625 0.734375 44.1875 -0.34375 
Q 39.109375 -1.421875 33.890625 -1.421875 
Q 20.796875 -1.421875 13.15625 6.1875 
Q 5.515625 13.8125 5.515625 26.8125 
Q 5.515625 40.234375 12.765625 48.109375 
Q 20.015625 56 32.328125 56 
Q 43.359375 56 49.78125 48.890625 
Q 56.203125 41.796875 56.203125 29.59375 
M 47.21875 32.234375 
Q 47.125 39.59375 43.09375 43.984375 
Q 39.0625 48.390625 32.421875 48.390625 
Q 24.90625 48.390625 20.390625 44.140625 
Q 15.875 39.890625 15.1875 32.171875 
z
" id="BitstreamVeraSans-Roman-65"/>
       <path d="M 18.3125 70.21875 
L 18.3125 54.6875 
L 36.8125 54.6875 
L 36.8125 47.703125 
L 18.3125 47.703125 
L 18.3125 18.015625 
Q 18.3125 11.328125 20.140625 9.421875 
Q 21.96875 7.515625 27.59375 7.515625 
L 36.8125 7.515625 
L 36.8125 0 
L 27.59375 0 
Q 17.1875 0 13.234375 3.875 
Q 9.28125 7.765625 9.28125 18.015625 
L 9.28125 47.703125 
L 2.6875 47.703125 
L 2.6875 54.6875 
L 9.28125 54.6875 
L 9.28125 70.21875 
z
" id="BitstreamVeraSans-Roman-74"/>
       <path d="M 8.5 21.578125 
L 8.5 54.6875 
L 17.484375 54.6875 
L 17.484375 21.921875 
Q 17.484375 14.15625 20.5 10.265625 
Q 23.53125 6.390625 29.59375 6.390625 
Q 36.859375 6.390625 41.078125 11.03125 
Q 45.3125 15.671875 45.3125 23.6875 
L 45.3125 54.6875 
L 54.296875 54.6875 
L 54.296875 0 
L 45.3125 0 
L 45.3125 8.40625 
Q 42.046875 3.421875 37.71875 1 
Q 33.40625 -1.421875 27.6875 -1.421875 
Q 18.265625 -1.421875 13.375 4.4375 
Q 8.5 10.296875 8.5 21.578125 
" id="BitstreamVeraSans-Roman-75"/>
       <path d="M 44.28125 53.078125 
L 44.28125 44.578125 
Q 40.484375 46.53125 36.375 47.5 
Q 32.28125 48.484375 27.875 48.484375 
Q 21.1875 48.484375 17.84375 46.4375 
Q 14.5 44.390625 14.5 40.28125 
Q 14.5 37.15625 16.890625 35.375 
Q 19.28125 33.59375 26.515625 31.984375 
L 29.59375 31.296875 
Q 39.15625 29.25 43.1875 25.515625 
Q 47.21875 21.78125 47.21875 15.09375 
Q 47.21875 7.46875 41.1875 3.015625 
Q 35.15625 -1.421875 24.609375 -1.421875 
Q 20.21875 -1.421875 15.453125 -0.5625 
Q 10.6875 0.296875 5.421875 2 
L 5.421875 11.28125 
Q 10.40625 8.6875 15.234375 7.390625 
Q 20.0625 6.109375 24.8125 6.109375 
Q 31.15625 6.109375 34.5625 8.28125 
Q 37.984375 10.453125 37.984375 14.40625 
Q 37.984375 18.0625 35.515625 20.015625 
Q 33.0625 21.96875 24.703125 23.78125 
L 21.578125 24.515625 
Q 13.234375 26.265625 9.515625 29.90625 
Q 5.8125 33.546875 5.8125 39.890625 
Q 5.8125 47.609375 11.28125 51.796875 
Q 16.75 56 26.8125 56 
Q 31.78125 56 36.171875 55.265625 
Q 40.578125 54.546875 44.28125 53.078125 
" id="BitstreamVeraSans-Roman-73"/>
      </defs>
      <g transform="translate(216.284228484 64.6199296341)scale(0.12 -0.12)">
       <use xlink:href="#BitstreamVeraSans-Roman-73"/>
       <use x="52.099609375" xlink:href="#BitstreamVeraSans-Roman-65"/>
       <use x="113.623046875" xlink:href="#BitstreamVeraSans-Roman-6e"/>
       <use x="177.001953125" xlink:href="#BitstreamVeraSans-Roman-73"/>
       <use x="229.1015625" xlink:href="#BitstreamVeraSans-Roman-75"/>
       <use x="292.48046875" xlink:href="#BitstreamVeraSans-Roman-61"/>
       <use x="353.759765625" xlink:href="#BitstreamVeraSans-Roman-6c"/>
       <use x="381.54296875" xlink:href="#BitstreamVeraSans-Roman-69"/>
       <use x="409.326171875" xlink:href="#BitstreamVeraSans-Roman-74"/>
       <use x="448.53515625" xlink:href="#BitstreamVeraSans-Roman-79"/>
      </g>
     </g>
    </g>
    <g id="xtick_3">
     <g id="line2d_4">
      <path clip-path="url(#p2bae3c7a1c)" d="M 332.1 324 
L 184.507123 120.855833 
" style="fill:none;stroke:#000000;stroke-dasharray:1.000000,3.000000;stroke-dashoffset:0.0;stroke-width:0.5;"/>
     </g>
     <g id="text_3">
      <!-- tenacity -->
      <g transform="translate(145.355022964 103.852665984)scale(0.12 -0.12)">
       <use xlink:href="#BitstreamVeraSans-Roman-74"/>
       <use x="39.208984375" xlink:href="#BitstreamVeraSans-Roman-65"/>
       <use x="100.732421875" xlink:href="#BitstreamVeraSans-Roman-6e"/>
       <use x="164.111328125" xlink:href="#BitstreamVeraSans-Roman-61"/>
       <use x="225.390625" xlink:href="#BitstreamVeraSans-Roman-63"/>
       <use x="280.37109375" xlink:href="#BitstreamVeraSans-Roman-69"/>
       <use x="308.154296875" xlink:href="#BitstreamVeraSans-Roman-74"/>
       <use x="347.36328125" xlink:href="#BitstreamVeraSans-Roman-79"/>
      </g>
     </g>
    </g>
    <g id="xtick_4">
     <g id="line2d_5">
      <path clip-path="url(#p2bae3c7a1c)" d="M 332.1 324 
L 128.955833 176.407123 
" style="fill:none;stroke:#000000;stroke-dasharray:1.000000,3.000000;stroke-dashoffset:0.0;stroke-width:0.5;"/>
     </g>
     <g id="text_4">
      <!-- cruelty -->
      <g transform="translate(87.8111034837 164.959085464)scale(0.12 -0.12)">
       <use xlink:href="#BitstreamVeraSans-Roman-63"/>
       <use x="54.98046875" xlink:href="#BitstreamVeraSans-Roman-72"/>
       <use x="96.09375" xlink:href="#BitstreamVeraSans-Roman-75"/>
       <use x="159.47265625" xlink:href="#BitstreamVeraSans-Roman-65"/>
       <use x="220.99609375" xlink:href="#BitstreamVeraSans-Roman-6c"/>
       <use x="248.779296875" xlink:href="#BitstreamVeraSans-Roman-74"/>
       <use x="287.98828125" xlink:href="#BitstreamVeraSans-Roman-79"/>
      </g>
     </g>
    </g>
    <g id="xtick_5">
     <g id="line2d_6">
      <path clip-path="url(#p2bae3c7a1c)" d="M 332.1 324 
L 93.289709 246.405833 
" style="fill:none;stroke:#000000;stroke-dasharray:1.000000,3.000000;stroke-dashoffset:0.0;stroke-width:0.5;"/>
     </g>
     <g id="text_5">
      <!-- loyalty -->
      <g transform="translate(49.2721171341 241.957665984)scale(0.12 -0.12)">
       <use xlink:href="#BitstreamVeraSans-Roman-6c"/>
       <use x="27.783203125" xlink:href="#BitstreamVeraSans-Roman-6f"/>
       <use x="88.96484375" xlink:href="#BitstreamVeraSans-Roman-79"/>
       <use x="148.14453125" xlink:href="#BitstreamVeraSans-Roman-61"/>
       <use x="209.423828125" xlink:href="#BitstreamVeraSans-Roman-6c"/>
       <use x="237.20703125" xlink:href="#BitstreamVeraSans-Roman-74"/>
       <use x="276.416015625" xlink:href="#BitstreamVeraSans-Roman-79"/>
      </g>
     </g>
    </g>
    <g id="xtick_6">
     <g id="line2d_7">
      <path clip-path="url(#p2bae3c7a1c)" d="M 332.1 324 
L 81 324 
" style="fill:none;stroke:#000000;stroke-dasharray:1.000000,3.000000;stroke-dashoffset:0.0;stroke-width:0.5;"/>
     </g>
     <g id="text_6">
      <!-- imagination -->
      <defs>
       <path d="M 52 44.1875 
Q 55.375 50.25 60.0625 53.125 
Q 64.75 56 71.09375 56 
Q 79.640625 56 84.28125 50.015625 
Q 88.921875 44.046875 88.921875 33.015625 
L 88.921875 0 
L 79.890625 0 
L 79.890625 32.71875 
Q 79.890625 40.578125 77.09375 44.375 
Q 74.3125 48.1875 68.609375 48.1875 
Q 61.625 48.1875 57.5625 43.546875 
Q 53.515625 38.921875 53.515625 30.90625 
L 53.515625 0 
L 44.484375 0 
L 44.484375 32.71875 
Q 44.484375 40.625 41.703125 44.40625 
Q 38.921875 48.1875 33.109375 48.1875 
Q 26.21875 48.1875 22.15625 43.53125 
Q 18.109375 38.875 18.109375 30.90625 
L 18.109375 0 
L 9.078125 0 
L 9.078125 54.6875 
L 18.109375 54.6875 
L 18.109375 46.1875 
Q 21.1875 51.21875 25.484375 53.609375 
Q 29.78125 56 35.6875 56 
Q 41.65625 56 45.828125 52.96875 
Q 50 49.953125 52 44.1875 
" id="BitstreamVeraSans-Roman-6d"/>
       <path d="M 45.40625 27.984375 
Q 45.40625 37.75 41.375 43.109375 
Q 37.359375 48.484375 30.078125 48.484375 
Q 22.859375 48.484375 18.828125 43.109375 
Q 14.796875 37.75 14.796875 27.984375 
Q 14.796875 18.265625 18.828125 12.890625 
Q 22.859375 7.515625 30.078125 7.515625 
Q 37.359375 7.515625 41.375 12.890625 
Q 45.40625 18.265625 45.40625 27.984375 
M 54.390625 6.78125 
Q 54.390625 -7.171875 48.1875 -13.984375 
Q 42 -20.796875 29.203125 -20.796875 
Q 24.46875 -20.796875 20.265625 -20.09375 
Q 16.0625 -19.390625 12.109375 -17.921875 
L 12.109375 -9.1875 
Q 16.0625 -11.328125 19.921875 -12.34375 
Q 23.78125 -13.375 27.78125 -13.375 
Q 36.625 -13.375 41.015625 -8.765625 
Q 45.40625 -4.15625 45.40625 5.171875 
L 45.40625 9.625 
Q 42.625 4.78125 38.28125 2.390625 
Q 33.9375 0 27.875 0 
Q 17.828125 0 11.671875 7.65625 
Q 5.515625 15.328125 5.515625 27.984375 
Q 5.515625 40.671875 11.671875 48.328125 
Q 17.828125 56 27.875 56 
Q 33.9375 56 38.28125 53.609375 
Q 42.625 51.21875 45.40625 46.390625 
L 45.40625 54.6875 
L 54.390625 54.6875 
z
" id="BitstreamVeraSans-Roman-67"/>
      </defs>
      <g transform="translate(20.25375 327.31125)scale(0.12 -0.12)">
       <use xlink:href="#BitstreamVeraSans-Roman-69"/>
       <use x="27.783203125" xlink:href="#BitstreamVeraSans-Roman-6d"/>
       <use x="125.1953125" xlink:href="#BitstreamVeraSans-Roman-61"/>
       <use x="186.474609375" xlink:href="#BitstreamVeraSans-Roman-67"/>
       <use x="249.951171875" xlink:href="#BitstreamVeraSans-Roman-69"/>
       <use x="277.734375" xlink:href="#BitstreamVeraSans-Roman-6e"/>
       <use x="341.11328125" xlink:href="#BitstreamVeraSans-Roman-61"/>
       <use x="402.392578125" xlink:href="#BitstreamVeraSans-Roman-74"/>
       <use x="441.6015625" xlink:href="#BitstreamVeraSans-Roman-69"/>
       <use x="469.384765625" xlink:href="#BitstreamVeraSans-Roman-6f"/>
       <use x="530.56640625" xlink:href="#BitstreamVeraSans-Roman-6e"/>
      </g>
     </g>
    </g>
    <g id="xtick_7">
     <g id="line2d_8">
      <path clip-path="url(#p2bae3c7a1c)" d="M 332.1 324 
L 93.289709 401.594167 
" style="fill:none;stroke:#000000;stroke-dasharray:1.000000,3.000000;stroke-dashoffset:0.0;stroke-width:0.5;"/>
     </g>
     <g id="text_7">
      <!-- courage -->
      <g transform="translate(44.9914921341 412.664834016)scale(0.12 -0.12)">
       <use xlink:href="#BitstreamVeraSans-Roman-63"/>
       <use x="54.98046875" xlink:href="#BitstreamVeraSans-Roman-6f"/>
       <use x="116.162109375" xlink:href="#BitstreamVeraSans-Roman-75"/>
       <use x="179.541015625" xlink:href="#BitstreamVeraSans-Roman-72"/>
       <use x="220.654296875" xlink:href="#BitstreamVeraSans-Roman-61"/>
       <use x="281.93359375" xlink:href="#BitstreamVeraSans-Roman-67"/>
       <use x="345.41015625" xlink:href="#BitstreamVeraSans-Roman-65"/>
      </g>
     </g>
    </g>
    <g id="xtick_8">
     <g id="line2d_9">
      <path clip-path="url(#p2bae3c7a1c)" d="M 332.1 324 
L 128.955833 471.592877 
" style="fill:none;stroke:#000000;stroke-dasharray:1.000000,3.000000;stroke-dashoffset:0.0;stroke-width:0.5;"/>
     </g>
     <g id="text_8">
      <!-- charm -->
      <defs>
       <path d="M 54.890625 33.015625 
L 54.890625 0 
L 45.90625 0 
L 45.90625 32.71875 
Q 45.90625 40.484375 42.875 44.328125 
Q 39.84375 48.1875 33.796875 48.1875 
Q 26.515625 48.1875 22.3125 43.546875 
Q 18.109375 38.921875 18.109375 30.90625 
L 18.109375 0 
L 9.078125 0 
L 9.078125 75.984375 
L 18.109375 75.984375 
L 18.109375 46.1875 
Q 21.34375 51.125 25.703125 53.5625 
Q 30.078125 56 35.796875 56 
Q 45.21875 56 50.046875 50.171875 
Q 54.890625 44.34375 54.890625 33.015625 
" id="BitstreamVeraSans-Roman-68"/>
      </defs>
      <g transform="translate(89.5529784837 489.663414536)scale(0.12 -0.12)">
       <use xlink:href="#BitstreamVeraSans-Roman-63"/>
       <use x="54.98046875" xlink:href="#BitstreamVeraSans-Roman-68"/>
       <use x="118.359375" xlink:href="#BitstreamVeraSans-Roman-61"/>
       <use x="179.638671875" xlink:href="#BitstreamVeraSans-Roman-72"/>
       <use x="220.736328125" xlink:href="#BitstreamVeraSans-Roman-6d"/>
      </g>
     </g>
    </g>
    <g id="xtick_9">
     <g id="line2d_10">
      <path clip-path="url(#p2bae3c7a1c)" d="M 332.1 324 
L 184.507123 527.144167 
" style="fill:none;stroke:#000000;stroke-dasharray:1.000000,3.000000;stroke-dashoffset:0.0;stroke-width:0.5;"/>
     </g>
     <g id="text_9">
      <!-- curiosity -->
      <g transform="translate(144.145647964 550.769834016)scale(0.12 -0.12)">
       <use xlink:href="#BitstreamVeraSans-Roman-63"/>
       <use x="54.98046875" xlink:href="#BitstreamVeraSans-Roman-75"/>
       <use x="118.359375" xlink:href="#BitstreamVeraSans-Roman-72"/>
       <use x="159.47265625" xlink:href="#BitstreamVeraSans-Roman-69"/>
       <use x="187.255859375" xlink:href="#BitstreamVeraSans-Roman-6f"/>
       <use x="248.4375" xlink:href="#BitstreamVeraSans-Roman-73"/>
       <use x="300.537109375" xlink:href="#BitstreamVeraSans-Roman-69"/>
       <use x="328.3203125" xlink:href="#BitstreamVeraSans-Roman-74"/>
       <use x="367.529296875" xlink:href="#BitstreamVeraSans-Roman-79"/>
      </g>
     </g>
    </g>
    <g id="xtick_10">
     <g id="line2d_11">
      <path clip-path="url(#p2bae3c7a1c)" d="M 332.1 324 
L 254.505833 562.810291 
" style="fill:none;stroke:#000000;stroke-dasharray:1.000000,3.000000;stroke-dashoffset:0.0;stroke-width:0.5;"/>
     </g>
     <g id="text_10">
      <!-- humility -->
      <g transform="translate(222.392978484 590.002570366)scale(0.12 -0.12)">
       <use xlink:href="#BitstreamVeraSans-Roman-68"/>
       <use x="63.37890625" xlink:href="#BitstreamVeraSans-Roman-75"/>
       <use x="126.7578125" xlink:href="#BitstreamVeraSans-Roman-6d"/>
       <use x="224.169921875" xlink:href="#BitstreamVeraSans-Roman-69"/>
       <use x="251.953125" xlink:href="#BitstreamVeraSans-Roman-6c"/>
       <use x="279.736328125" xlink:href="#BitstreamVeraSans-Roman-69"/>
       <use x="307.51953125" xlink:href="#BitstreamVeraSans-Roman-74"/>
       <use x="346.728515625" xlink:href="#BitstreamVeraSans-Roman-79"/>
      </g>
     </g>
    </g>
    <g id="xtick_11">
     <g id="line2d_12">
      <path clip-path="url(#p2bae3c7a1c)" d="M 332.1 324 
L 332.1 575.1 
" style="fill:none;stroke:#000000;stroke-dasharray:1.000000,3.000000;stroke-dashoffset:0.0;stroke-width:0.5;"/>
     </g>
     <g id="text_11">
      <!-- vivacity -->
      <defs>
       <path d="M 2.984375 54.6875 
L 12.5 54.6875 
L 29.59375 8.796875 
L 46.6875 54.6875 
L 56.203125 54.6875 
L 35.6875 0 
L 23.484375 0 
z
" id="BitstreamVeraSans-Roman-76"/>
      </defs>
      <g transform="translate(308.784375 603.52125)scale(0.12 -0.12)">
       <use xlink:href="#BitstreamVeraSans-Roman-76"/>
       <use x="59.1796875" xlink:href="#BitstreamVeraSans-Roman-69"/>
       <use x="86.962890625" xlink:href="#BitstreamVeraSans-Roman-76"/>
       <use x="146.142578125" xlink:href="#BitstreamVeraSans-Roman-61"/>
       <use x="207.421875" xlink:href="#BitstreamVeraSans-Roman-63"/>
       <use x="262.40234375" xlink:href="#BitstreamVeraSans-Roman-69"/>
       <use x="290.185546875" xlink:href="#BitstreamVeraSans-Roman-74"/>
       <use x="329.39453125" xlink:href="#BitstreamVeraSans-Roman-79"/>
      </g>
     </g>
    </g>
    <g id="xtick_12">
     <g id="line2d_13">
      <path clip-path="url(#p2bae3c7a1c)" d="M 332.1 324 
L 409.694167 562.810291 
" style="fill:none;stroke:#000000;stroke-dasharray:1.000000,3.000000;stroke-dashoffset:0.0;stroke-width:0.5;"/>
     </g>
     <g id="text_12">
      <!-- self_preservation -->
      <defs>
       <path d="M 37.109375 75.984375 
L 37.109375 68.5 
L 28.515625 68.5 
Q 23.6875 68.5 21.796875 66.546875 
Q 19.921875 64.59375 19.921875 59.515625 
L 19.921875 54.6875 
L 34.71875 54.6875 
L 34.71875 47.703125 
L 19.921875 47.703125 
L 19.921875 0 
L 10.890625 0 
L 10.890625 47.703125 
L 2.296875 47.703125 
L 2.296875 54.6875 
L 10.890625 54.6875 
L 10.890625 58.5 
Q 10.890625 67.625 15.140625 71.796875 
Q 19.390625 75.984375 28.609375 75.984375 
z
" id="BitstreamVeraSans-Roman-66"/>
       <path d="M 18.109375 8.203125 
L 18.109375 -20.796875 
L 9.078125 -20.796875 
L 9.078125 54.6875 
L 18.109375 54.6875 
L 18.109375 46.390625 
Q 20.953125 51.265625 25.265625 53.625 
Q 29.59375 56 35.59375 56 
Q 45.5625 56 51.78125 48.09375 
Q 58.015625 40.1875 58.015625 27.296875 
Q 58.015625 14.40625 51.78125 6.484375 
Q 45.5625 -1.421875 35.59375 -1.421875 
Q 29.59375 -1.421875 25.265625 0.953125 
Q 20.953125 3.328125 18.109375 8.203125 
M 48.6875 27.296875 
Q 48.6875 37.203125 44.609375 42.84375 
Q 40.53125 48.484375 33.40625 48.484375 
Q 26.265625 48.484375 22.1875 42.84375 
Q 18.109375 37.203125 18.109375 27.296875 
Q 18.109375 17.390625 22.1875 11.75 
Q 26.265625 6.109375 33.40625 6.109375 
Q 40.53125 6.109375 44.609375 11.75 
Q 48.6875 17.390625 48.6875 27.296875 
" id="BitstreamVeraSans-Roman-70"/>
       <path d="M 50.984375 -16.609375 
L 50.984375 -23.578125 
L -0.984375 -23.578125 
L -0.984375 -16.609375 
z
" id="BitstreamVeraSans-Roman-5f"/>
      </defs>
      <g transform="translate(365.886396516 589.835695366)scale(0.12 -0.12)">
       <use xlink:href="#BitstreamVeraSans-Roman-73"/>
       <use x="52.099609375" xlink:href="#BitstreamVeraSans-Roman-65"/>
       <use x="113.623046875" xlink:href="#BitstreamVeraSans-Roman-6c"/>
       <use x="141.40625" xlink:href="#BitstreamVeraSans-Roman-66"/>
       <use x="176.611328125" xlink:href="#BitstreamVeraSans-Roman-5f"/>
       <use x="226.611328125" xlink:href="#BitstreamVeraSans-Roman-70"/>
       <use x="290.087890625" xlink:href="#BitstreamVeraSans-Roman-72"/>
       <use x="331.169921875" xlink:href="#BitstreamVeraSans-Roman-65"/>
       <use x="392.693359375" xlink:href="#BitstreamVeraSans-Roman-73"/>
       <use x="444.79296875" xlink:href="#BitstreamVeraSans-Roman-65"/>
       <use x="506.31640625" xlink:href="#BitstreamVeraSans-Roman-72"/>
       <use x="547.4296875" xlink:href="#BitstreamVeraSans-Roman-76"/>
       <use x="606.609375" xlink:href="#BitstreamVeraSans-Roman-61"/>
       <use x="667.888671875" xlink:href="#BitstreamVeraSans-Roman-74"/>
       <use x="707.09765625" xlink:href="#BitstreamVeraSans-Roman-69"/>
       <use x="734.880859375" xlink:href="#BitstreamVeraSans-Roman-6f"/>
       <use x="796.0625" xlink:href="#BitstreamVeraSans-Roman-6e"/>
      </g>
     </g>
    </g>
    <g id="xtick_13">
     <g id="line2d_14">
      <path clip-path="url(#p2bae3c7a1c)" d="M 332.1 324 
L 479.692877 527.144167 
" style="fill:none;stroke:#000000;stroke-dasharray:1.000000,3.000000;stroke-dashoffset:0.0;stroke-width:0.5;"/>
     </g>
     <g id="text_13">
      <!-- dicisiveness -->
      <g transform="translate(458.229039536 550.769834016)scale(0.12 -0.12)">
       <use xlink:href="#BitstreamVeraSans-Roman-64"/>
       <use x="63.4765625" xlink:href="#BitstreamVeraSans-Roman-69"/>
       <use x="91.259765625" xlink:href="#BitstreamVeraSans-Roman-63"/>
       <use x="146.240234375" xlink:href="#BitstreamVeraSans-Roman-69"/>
       <use x="174.0234375" xlink:href="#BitstreamVeraSans-Roman-73"/>
       <use x="226.123046875" xlink:href="#BitstreamVeraSans-Roman-69"/>
       <use x="253.90625" xlink:href="#BitstreamVeraSans-Roman-76"/>
       <use x="313.0859375" xlink:href="#BitstreamVeraSans-Roman-65"/>
       <use x="374.609375" xlink:href="#BitstreamVeraSans-Roman-6e"/>
       <use x="437.98828125" xlink:href="#BitstreamVeraSans-Roman-65"/>
       <use x="499.51171875" xlink:href="#BitstreamVeraSans-Roman-73"/>
       <use x="551.611328125" xlink:href="#BitstreamVeraSans-Roman-73"/>
      </g>
     </g>
    </g>
    <g id="xtick_14">
     <g id="line2d_15">
      <path clip-path="url(#p2bae3c7a1c)" d="M 332.1 324 
L 535.244167 471.592877 
" style="fill:none;stroke:#000000;stroke-dasharray:1.000000,3.000000;stroke-dashoffset:0.0;stroke-width:0.5;"/>
     </g>
     <g id="text_14">
      <!-- coordination -->
      <g transform="translate(518.003271516 489.663414536)scale(0.12 -0.12)">
       <use xlink:href="#BitstreamVeraSans-Roman-63"/>
       <use x="54.98046875" xlink:href="#BitstreamVeraSans-Roman-6f"/>
       <use x="116.162109375" xlink:href="#BitstreamVeraSans-Roman-6f"/>
       <use x="177.34375" xlink:href="#BitstreamVeraSans-Roman-72"/>
       <use x="218.44140625" xlink:href="#BitstreamVeraSans-Roman-64"/>
       <use x="281.91796875" xlink:href="#BitstreamVeraSans-Roman-69"/>
       <use x="309.701171875" xlink:href="#BitstreamVeraSans-Roman-6e"/>
       <use x="373.080078125" xlink:href="#BitstreamVeraSans-Roman-61"/>
       <use x="434.359375" xlink:href="#BitstreamVeraSans-Roman-74"/>
       <use x="473.568359375" xlink:href="#BitstreamVeraSans-Roman-69"/>
       <use x="501.3515625" xlink:href="#BitstreamVeraSans-Roman-6f"/>
       <use x="562.533203125" xlink:href="#BitstreamVeraSans-Roman-6e"/>
      </g>
     </g>
    </g>
    <g id="xtick_15">
     <g id="line2d_16">
      <path clip-path="url(#p2bae3c7a1c)" d="M 332.1 324 
L 570.910291 401.594167 
" style="fill:none;stroke:#000000;stroke-dasharray:1.000000,3.000000;stroke-dashoffset:0.0;stroke-width:0.5;"/>
     </g>
     <g id="text_15">
      <!-- aggression -->
      <g transform="translate(561.947882866 412.664834016)scale(0.12 -0.12)">
       <use xlink:href="#BitstreamVeraSans-Roman-61"/>
       <use x="61.279296875" xlink:href="#BitstreamVeraSans-Roman-67"/>
       <use x="124.755859375" xlink:href="#BitstreamVeraSans-Roman-67"/>
       <use x="188.232421875" xlink:href="#BitstreamVeraSans-Roman-72"/>
       <use x="229.314453125" xlink:href="#BitstreamVeraSans-Roman-65"/>
       <use x="290.837890625" xlink:href="#BitstreamVeraSans-Roman-73"/>
       <use x="342.9375" xlink:href="#BitstreamVeraSans-Roman-73"/>
       <use x="395.037109375" xlink:href="#BitstreamVeraSans-Roman-69"/>
       <use x="422.8203125" xlink:href="#BitstreamVeraSans-Roman-6f"/>
       <use x="484.001953125" xlink:href="#BitstreamVeraSans-Roman-6e"/>
      </g>
     </g>
    </g>
    <g id="xtick_16">
     <g id="line2d_17">
      <path clip-path="url(#p2bae3c7a1c)" d="M 332.1 324 
L 583.2 324 
" style="fill:none;stroke:#000000;stroke-dasharray:1.000000,3.000000;stroke-dashoffset:0.0;stroke-width:0.5;"/>
     </g>
     <g id="text_16">
      <!-- empathy -->
      <g transform="translate(581.581875 327.31125)scale(0.12 -0.12)">
       <use xlink:href="#BitstreamVeraSans-Roman-65"/>
       <use x="61.5234375" xlink:href="#BitstreamVeraSans-Roman-6d"/>
       <use x="158.935546875" xlink:href="#BitstreamVeraSans-Roman-70"/>
       <use x="222.412109375" xlink:href="#BitstreamVeraSans-Roman-61"/>
       <use x="283.69140625" xlink:href="#BitstreamVeraSans-Roman-74"/>
       <use x="322.900390625" xlink:href="#BitstreamVeraSans-Roman-68"/>
       <use x="386.279296875" xlink:href="#BitstreamVeraSans-Roman-79"/>
      </g>
     </g>
    </g>
    <g id="xtick_17">
     <g id="line2d_18">
      <path clip-path="url(#p2bae3c7a1c)" d="M 332.1 324 
L 570.910291 246.405833 
" style="fill:none;stroke:#000000;stroke-dasharray:1.000000,3.000000;stroke-dashoffset:0.0;stroke-width:0.5;"/>
     </g>
     <g id="text_17">
      <!-- humor -->
      <g transform="translate(575.204132866 241.957665984)scale(0.12 -0.12)">
       <use xlink:href="#BitstreamVeraSans-Roman-68"/>
       <use x="63.37890625" xlink:href="#BitstreamVeraSans-Roman-75"/>
       <use x="126.7578125" xlink:href="#BitstreamVeraSans-Roman-6d"/>
       <use x="224.169921875" xlink:href="#BitstreamVeraSans-Roman-6f"/>
       <use x="285.3515625" xlink:href="#BitstreamVeraSans-Roman-72"/>
      </g>
     </g>
    </g>
    <g id="xtick_18">
     <g id="line2d_19">
      <path clip-path="url(#p2bae3c7a1c)" d="M 332.1 324 
L 535.244167 176.407123 
" style="fill:none;stroke:#000000;stroke-dasharray:1.000000,3.000000;stroke-dashoffset:0.0;stroke-width:0.5;"/>
     </g>
     <g id="text_18">
      <!-- patience -->
      <g transform="translate(529.568271516 164.959085464)scale(0.12 -0.12)">
       <use xlink:href="#BitstreamVeraSans-Roman-70"/>
       <use x="63.4765625" xlink:href="#BitstreamVeraSans-Roman-61"/>
       <use x="124.755859375" xlink:href="#BitstreamVeraSans-Roman-74"/>
       <use x="163.96484375" xlink:href="#BitstreamVeraSans-Roman-69"/>
       <use x="191.748046875" xlink:href="#BitstreamVeraSans-Roman-65"/>
       <use x="253.271484375" xlink:href="#BitstreamVeraSans-Roman-6e"/>
       <use x="316.650390625" xlink:href="#BitstreamVeraSans-Roman-63"/>
       <use x="371.630859375" xlink:href="#BitstreamVeraSans-Roman-65"/>
      </g>
     </g>
    </g>
    <g id="xtick_19">
     <g id="line2d_20">
      <path clip-path="url(#p2bae3c7a1c)" d="M 332.1 324 
L 479.692877 120.855833 
" style="fill:none;stroke:#000000;stroke-dasharray:1.000000,3.000000;stroke-dashoffset:0.0;stroke-width:0.5;"/>
     </g>
     <g id="text_19">
      <!-- bulk_apperception -->
      <defs>
       <path d="M 9.078125 75.984375 
L 18.109375 75.984375 
L 18.109375 31.109375 
L 44.921875 54.6875 
L 56.390625 54.6875 
L 27.390625 29.109375 
L 57.625 0 
L 45.90625 0 
L 18.109375 26.703125 
L 18.109375 0 
L 9.078125 0 
z
" id="BitstreamVeraSans-Roman-6b"/>
       <path d="M 48.6875 27.296875 
Q 48.6875 37.203125 44.609375 42.84375 
Q 40.53125 48.484375 33.40625 48.484375 
Q 26.265625 48.484375 22.1875 42.84375 
Q 18.109375 37.203125 18.109375 27.296875 
Q 18.109375 17.390625 22.1875 11.75 
Q 26.265625 6.109375 33.40625 6.109375 
Q 40.53125 6.109375 44.609375 11.75 
Q 48.6875 17.390625 48.6875 27.296875 
M 18.109375 46.390625 
Q 20.953125 51.265625 25.265625 53.625 
Q 29.59375 56 35.59375 56 
Q 45.5625 56 51.78125 48.09375 
Q 58.015625 40.1875 58.015625 27.296875 
Q 58.015625 14.40625 51.78125 6.484375 
Q 45.5625 -1.421875 35.59375 -1.421875 
Q 29.59375 -1.421875 25.265625 0.953125 
Q 20.953125 3.328125 18.109375 8.203125 
L 18.109375 0 
L 9.078125 0 
L 9.078125 75.984375 
L 18.109375 75.984375 
z
" id="BitstreamVeraSans-Roman-62"/>
      </defs>
      <g transform="translate(438.954977036 103.685790984)scale(0.12 -0.12)">
       <use xlink:href="#BitstreamVeraSans-Roman-62"/>
       <use x="63.4765625" xlink:href="#BitstreamVeraSans-Roman-75"/>
       <use x="126.85546875" xlink:href="#BitstreamVeraSans-Roman-6c"/>
       <use x="154.638671875" xlink:href="#BitstreamVeraSans-Roman-6b"/>
       <use x="212.548828125" xlink:href="#BitstreamVeraSans-Roman-5f"/>
       <use x="262.548828125" xlink:href="#BitstreamVeraSans-Roman-61"/>
       <use x="323.828125" xlink:href="#BitstreamVeraSans-Roman-70"/>
       <use x="387.3046875" xlink:href="#BitstreamVeraSans-Roman-70"/>
       <use x="450.78125" xlink:href="#BitstreamVeraSans-Roman-65"/>
       <use x="512.3046875" xlink:href="#BitstreamVeraSans-Roman-72"/>
       <use x="553.38671875" xlink:href="#BitstreamVeraSans-Roman-63"/>
       <use x="608.3671875" xlink:href="#BitstreamVeraSans-Roman-65"/>
       <use x="669.890625" xlink:href="#BitstreamVeraSans-Roman-70"/>
       <use x="733.3671875" xlink:href="#BitstreamVeraSans-Roman-74"/>
       <use x="772.576171875" xlink:href="#BitstreamVeraSans-Roman-69"/>
       <use x="800.359375" xlink:href="#BitstreamVeraSans-Roman-6f"/>
       <use x="861.541015625" xlink:href="#BitstreamVeraSans-Roman-6e"/>
      </g>
     </g>
    </g>
    <g id="xtick_20">
     <g id="line2d_21">
      <path clip-path="url(#p2bae3c7a1c)" d="M 332.1 324 
L 409.694167 85.189709 
" style="fill:none;stroke:#000000;stroke-dasharray:1.000000,3.000000;stroke-dashoffset:0.0;stroke-width:0.5;"/>
     </g>
     <g id="text_20">
      <!-- meekness -->
      <g transform="translate(387.005459016 64.6199296341)scale(0.12 -0.12)">
       <use xlink:href="#BitstreamVeraSans-Roman-6d"/>
       <use x="97.412109375" xlink:href="#BitstreamVeraSans-Roman-65"/>
       <use x="158.935546875" xlink:href="#BitstreamVeraSans-Roman-65"/>
       <use x="220.458984375" xlink:href="#BitstreamVeraSans-Roman-6b"/>
       <use x="278.369140625" xlink:href="#BitstreamVeraSans-Roman-6e"/>
       <use x="341.748046875" xlink:href="#BitstreamVeraSans-Roman-65"/>
       <use x="403.271484375" xlink:href="#BitstreamVeraSans-Roman-73"/>
       <use x="455.37109375" xlink:href="#BitstreamVeraSans-Roman-73"/>
      </g>
     </g>
    </g>
   </g>
   <g id="matplotlib.axis_2">
    <g id="ytick_1">
     <g id="line2d_22">
      <path clip-path="url(#p2bae3c7a1c)" d="M 381.161419 324 
L 381.131532 322.287781 
L 381.041908 320.577648 
L 380.683957 317.17197 
L 380.089309 313.799557 
L 379.260863 310.47684 
L 378.202653 307.220006 
L 376.919836 304.044923 
L 375.418662 300.967059 
L 373.706443 298.001409 
L 371.791522 295.162421 
L 369.683227 292.463928 
L 367.391831 289.919075 
L 364.928497 287.54026 
L 362.305226 285.339074 
L 359.534797 283.32624 
L 356.630709 281.511565 
L 353.60711 279.903889 
L 350.478731 278.511044 
L 347.260812 277.339818 
L 343.969031 276.395915 
L 340.619426 275.683934 
L 337.228315 275.207345 
L 333.812219 274.968468 
L 330.387781 274.968468 
L 326.971685 275.207345 
L 323.580574 275.683934 
L 320.230969 276.395915 
L 316.939188 277.339818 
L 313.721269 278.511044 
L 310.59289 279.903889 
L 307.569291 281.511565 
L 304.665203 283.32624 
L 301.894774 285.339074 
L 299.271503 287.54026 
L 296.808169 289.919075 
L 294.516773 292.463928 
L 292.408478 295.162421 
L 290.493557 298.001409 
L 288.781338 300.967059 
L 287.280164 304.044923 
L 285.997347 307.220006 
L 284.939137 310.47684 
L 284.110691 313.799557 
L 283.516043 317.17197 
L 283.158092 320.577648 
L 283.038581 324 
L 283.158092 327.422352 
L 283.516043 330.82803 
L 284.110691 334.200443 
L 284.939137 337.52316 
L 285.997347 340.779994 
L 287.280164 343.955077 
L 288.781338 347.032941 
L 290.493557 349.998591 
L 292.408478 352.837579 
L 294.516773 355.536072 
L 296.808169 358.080925 
L 299.271503 360.45974 
L 301.894774 362.660926 
L 304.665203 364.67376 
L 307.569291 366.488435 
L 310.59289 368.096111 
L 313.721269 369.488956 
L 316.939188 370.660182 
L 320.230969 371.604085 
L 323.580574 372.316066 
L 326.971685 372.792655 
L 330.387781 373.031532 
L 333.812219 373.031532 
L 337.228315 372.792655 
L 340.619426 372.316066 
L 343.969031 371.604085 
L 347.260812 370.660182 
L 350.478731 369.488956 
L 353.60711 368.096111 
L 356.630709 366.488435 
L 359.534797 364.67376 
L 362.305226 362.660926 
L 364.928497 360.45974 
L 367.391831 358.080925 
L 369.683227 355.536072 
L 371.791522 352.837579 
L 373.706443 349.998591 
L 375.418662 347.032941 
L 376.919836 343.955077 
L 378.202653 340.779994 
L 379.260863 337.52316 
L 380.089309 334.200443 
L 380.683957 330.82803 
L 381.041908 327.422352 
L 381.161419 324 
L 381.161419 324 
" style="fill:none;stroke:#000000;stroke-dasharray:1.000000,3.000000;stroke-dashoffset:0.0;stroke-width:0.5;"/>
     </g>
     <g id="text_21">
      <!-- 0.2 -->
      <defs>
       <path d="M 19.1875 8.296875 
L 53.609375 8.296875 
L 53.609375 0 
L 7.328125 0 
L 7.328125 8.296875 
Q 12.9375 14.109375 22.625 23.890625 
Q 32.328125 33.6875 34.8125 36.53125 
Q 39.546875 41.84375 41.421875 45.53125 
Q 43.3125 49.21875 43.3125 52.78125 
Q 43.3125 58.59375 39.234375 62.25 
Q 35.15625 65.921875 28.609375 65.921875 
Q 23.96875 65.921875 18.8125 64.3125 
Q 13.671875 62.703125 7.8125 59.421875 
L 7.8125 69.390625 
Q 13.765625 71.78125 18.9375 73 
Q 24.125 74.21875 28.421875 74.21875 
Q 39.75 74.21875 46.484375 68.546875 
Q 53.21875 62.890625 53.21875 53.421875 
Q 53.21875 48.921875 51.53125 44.890625 
Q 49.859375 40.875 45.40625 35.40625 
Q 44.1875 33.984375 37.640625 27.21875 
Q 31.109375 20.453125 19.1875 8.296875 
" id="BitstreamVeraSans-Roman-32"/>
       <path d="M 31.78125 66.40625 
Q 24.171875 66.40625 20.328125 58.90625 
Q 16.5 51.421875 16.5 36.375 
Q 16.5 21.390625 20.328125 13.890625 
Q 24.171875 6.390625 31.78125 6.390625 
Q 39.453125 6.390625 43.28125 13.890625 
Q 47.125 21.390625 47.125 36.375 
Q 47.125 51.421875 43.28125 58.90625 
Q 39.453125 66.40625 31.78125 66.40625 
M 31.78125 74.21875 
Q 44.046875 74.21875 50.515625 64.515625 
Q 56.984375 54.828125 56.984375 36.375 
Q 56.984375 17.96875 50.515625 8.265625 
Q 44.046875 -1.421875 31.78125 -1.421875 
Q 19.53125 -1.421875 13.0625 8.265625 
Q 6.59375 17.96875 6.59375 36.375 
Q 6.59375 54.828125 13.0625 64.515625 
Q 19.53125 74.21875 31.78125 74.21875 
" id="BitstreamVeraSans-Roman-30"/>
       <path d="M 10.6875 12.40625 
L 21 12.40625 
L 21 0 
L 10.6875 0 
z
" id="BitstreamVeraSans-Roman-2e"/>
      </defs>
      <g transform="translate(377.426840815 302.729382795)scale(0.12 -0.12)">
       <use xlink:href="#BitstreamVeraSans-Roman-30"/>
       <use x="63.623046875" xlink:href="#BitstreamVeraSans-Roman-2e"/>
       <use x="95.41015625" xlink:href="#BitstreamVeraSans-Roman-32"/>
      </g>
     </g>
    </g>
    <g id="ytick_2">
     <g id="line2d_23">
      <path clip-path="url(#p2bae3c7a1c)" d="M 431.76038 324 
L 431.699669 320.521903 
L 431.517612 317.048043 
L 431.21443 313.582654 
L 430.790492 310.129956 
L 430.246314 306.694157 
L 429.582561 303.279442 
L 428.80004 299.889972 
L 427.899705 296.529876 
L 426.882653 293.203249 
L 425.750123 289.914143 
L 424.503495 286.666565 
L 423.144287 283.464472 
L 421.674156 280.311765 
L 420.094892 277.212286 
L 418.40842 274.16981 
L 416.616795 271.188045 
L 414.722199 268.270623 
L 412.726941 265.421099 
L 410.633451 262.642944 
L 408.44428 259.939543 
L 406.162095 257.31419 
L 403.789678 254.770083 
L 401.329917 252.310322 
L 398.78581 249.937905 
L 396.160457 247.65572 
L 393.457056 245.466549 
L 390.678901 243.373059 
L 387.829377 241.377801 
L 384.911955 239.483205 
L 381.93019 237.69158 
L 378.887714 236.005108 
L 375.788235 234.425844 
L 372.635528 232.955713 
L 369.433435 231.596505 
L 366.185857 230.349877 
L 362.896751 229.217347 
L 359.570124 228.200295 
L 356.210028 227.29996 
L 352.820558 226.517439 
L 349.405843 225.853686 
L 345.970044 225.309508 
L 342.517346 224.88557 
L 339.051957 224.582388 
L 335.578097 224.400331 
L 332.1 224.33962 
L 328.621903 224.400331 
L 325.148043 224.582388 
L 321.682654 224.88557 
L 318.229956 225.309508 
L 314.794157 225.853686 
L 311.379442 226.517439 
L 307.989972 227.29996 
L 304.629876 228.200295 
L 301.303249 229.217347 
L 298.014143 230.349877 
L 294.766565 231.596505 
L 291.564472 232.955713 
L 288.411765 234.425844 
L 285.312286 236.005108 
L 282.26981 237.69158 
L 279.288045 239.483205 
L 276.370623 241.377801 
L 273.521099 243.373059 
L 270.742944 245.466549 
L 268.039543 247.65572 
L 265.41419 249.937905 
L 262.870083 252.310322 
L 260.410322 254.770083 
L 258.037905 257.31419 
L 255.75572 259.939543 
L 253.566549 262.642944 
L 251.473059 265.421099 
L 249.477801 268.270623 
L 247.583205 271.188045 
L 245.79158 274.16981 
L 244.105108 277.212286 
L 242.525844 280.311765 
L 241.055713 283.464472 
L 239.696505 286.666565 
L 238.449877 289.914143 
L 237.317347 293.203249 
L 236.300295 296.529876 
L 235.39996 299.889972 
L 234.617439 303.279442 
L 233.953686 306.694157 
L 233.409508 310.129956 
L 232.98557 313.582654 
L 232.682388 317.048043 
L 232.500331 320.521903 
L 232.43962 324 
L 232.500331 327.478097 
L 232.682388 330.951957 
L 232.98557 334.417346 
L 233.409508 337.870044 
L 233.953686 341.305843 
L 234.617439 344.720558 
L 235.39996 348.110028 
L 236.300295 351.470124 
L 237.317347 354.796751 
L 238.449877 358.085857 
L 239.696505 361.333435 
L 241.055713 364.535528 
L 242.525844 367.688235 
L 244.105108 370.787714 
L 245.79158 373.83019 
L 247.583205 376.811955 
L 249.477801 379.729377 
L 251.473059 382.578901 
L 253.566549 385.357056 
L 255.75572 388.060457 
L 258.037905 390.68581 
L 260.410322 393.229917 
L 262.870083 395.689678 
L 265.41419 398.062095 
L 268.039543 400.34428 
L 270.742944 402.533451 
L 273.521099 404.626941 
L 276.370623 406.622199 
L 279.288045 408.516795 
L 282.26981 410.30842 
L 285.312286 411.994892 
L 288.411765 413.574156 
L 291.564472 415.044287 
L 294.766565 416.403495 
L 298.014143 417.650123 
L 301.303249 418.782653 
L 304.629876 419.799705 
L 307.989972 420.70004 
L 311.379442 421.482561 
L 314.794157 422.146314 
L 318.229956 422.690492 
L 321.682654 423.11443 
L 325.148043 423.417612 
L 328.621903 423.599669 
L 332.1 423.66038 
L 335.578097 423.599669 
L 339.051957 423.417612 
L 342.517346 423.11443 
L 345.970044 422.690492 
L 349.405843 422.146314 
L 352.820558 421.482561 
L 356.210028 420.70004 
L 359.570124 419.799705 
L 362.896751 418.782653 
L 366.185857 417.650123 
L 369.433435 416.403495 
L 372.635528 415.044287 
L 375.788235 413.574156 
L 378.887714 411.994892 
L 381.93019 410.30842 
L 384.911955 408.516795 
L 387.829377 406.622199 
L 390.678901 404.626941 
L 393.457056 402.533451 
L 396.160457 400.34428 
L 398.78581 398.062095 
L 401.329917 395.689678 
L 403.789678 393.229917 
L 406.162095 390.68581 
L 408.44428 388.060457 
L 410.633451 385.357056 
L 412.726941 382.578901 
L 414.722199 379.729377 
L 416.616795 376.811955 
L 418.40842 373.83019 
L 420.094892 370.787714 
L 421.674156 367.688235 
L 423.144287 364.535528 
L 424.503495 361.333435 
L 425.750123 358.085857 
L 426.882653 354.796751 
L 427.899705 351.470124 
L 428.80004 348.110028 
L 429.582561 344.720558 
L 430.246314 341.305843 
L 430.790492 337.870044 
L 431.21443 334.417346 
L 431.517612 330.951957 
L 431.699669 327.478097 
L 431.76038 324 
L 431.76038 324 
" style="fill:none;stroke:#000000;stroke-dasharray:1.000000,3.000000;stroke-dashoffset:0.0;stroke-width:0.5;"/>
     </g>
     <g id="text_22">
      <!-- 0.4 -->
      <defs>
       <path d="M 37.796875 64.3125 
L 12.890625 25.390625 
L 37.796875 25.390625 
z
M 35.203125 72.90625 
L 47.609375 72.90625 
L 47.609375 25.390625 
L 58.015625 25.390625 
L 58.015625 17.1875 
L 47.609375 17.1875 
L 47.609375 0 
L 37.796875 0 
L 37.796875 17.1875 
L 4.890625 17.1875 
L 4.890625 26.703125 
z
" id="BitstreamVeraSans-Roman-34"/>
      </defs>
      <g transform="translate(424.174184882 283.365998877)scale(0.12 -0.12)">
       <use xlink:href="#BitstreamVeraSans-Roman-30"/>
       <use x="63.623046875" xlink:href="#BitstreamVeraSans-Roman-2e"/>
       <use x="95.41015625" xlink:href="#BitstreamVeraSans-Roman-34"/>
      </g>
     </g>
    </g>
    <g id="ytick_3">
     <g id="line2d_24">
      <path clip-path="url(#p2bae3c7a1c)" d="M 482.35934 324 
L 482.267806 318.756025 
L 481.993316 313.518438 
L 481.536204 308.293622 
L 480.897027 303.087942 
L 480.076563 297.907739 
L 479.075813 292.759327 
L 477.895996 287.648976 
L 476.538548 282.582913 
L 475.005125 277.56731 
L 473.297593 272.608279 
L 471.418034 267.71186 
L 469.368738 262.88402 
L 467.1522 258.130641 
L 464.771123 253.457513 
L 462.228406 248.87033 
L 459.527147 244.374681 
L 456.670639 239.976043 
L 453.66236 235.679776 
L 450.505976 231.491113 
L 447.205333 227.415158 
L 443.764451 223.456877 
L 440.187524 219.621092 
L 436.478908 215.912476 
L 432.643123 212.335549 
L 428.684842 208.894667 
L 424.608887 205.594024 
L 420.420224 202.43764 
L 416.123957 199.429361 
L 411.725319 196.572853 
L 407.22967 193.871594 
L 402.642487 191.328877 
L 397.969359 188.9478 
L 393.21598 186.731262 
L 388.38814 184.681966 
L 383.491721 182.802407 
L 378.53269 181.094875 
L 373.517087 179.561452 
L 368.451024 178.204004 
L 363.340673 177.024187 
L 358.192261 176.023437 
L 353.012058 175.202973 
L 347.806378 174.563796 
L 342.581562 174.106684 
L 337.343975 173.832194 
L 332.1 173.74066 
L 326.856025 173.832194 
L 321.618438 174.106684 
L 316.393622 174.563796 
L 311.187942 175.202973 
L 306.007739 176.023437 
L 300.859327 177.024187 
L 295.748976 178.204004 
L 290.682913 179.561452 
L 285.66731 181.094875 
L 280.708279 182.802407 
L 275.81186 184.681966 
L 270.98402 186.731262 
L 266.230641 188.9478 
L 261.557513 191.328877 
L 256.97033 193.871594 
L 252.474681 196.572853 
L 248.076043 199.429361 
L 243.779776 202.43764 
L 239.591113 205.594024 
L 235.515158 208.894667 
L 231.556877 212.335549 
L 227.721092 215.912476 
L 224.012476 219.621092 
L 220.435549 223.456877 
L 216.994667 227.415158 
L 213.694024 231.491113 
L 210.53764 235.679776 
L 207.529361 239.976043 
L 204.672853 244.374681 
L 201.971594 248.87033 
L 199.428877 253.457513 
L 197.0478 258.130641 
L 194.831262 262.88402 
L 192.781966 267.71186 
L 190.902407 272.608279 
L 189.194875 277.56731 
L 187.661452 282.582913 
L 186.304004 287.648976 
L 185.124187 292.759327 
L 184.123437 297.907739 
L 183.302973 303.087942 
L 182.663796 308.293622 
L 182.206684 313.518438 
L 181.932194 318.756025 
L 181.84066 324 
L 181.932194 329.243975 
L 182.206684 334.481562 
L 182.663796 339.706378 
L 183.302973 344.912058 
L 184.123437 350.092261 
L 185.124187 355.240673 
L 186.304004 360.351024 
L 187.661452 365.417087 
L 189.194875 370.43269 
L 190.902407 375.391721 
L 192.781966 380.28814 
L 194.831262 385.11598 
L 197.0478 389.869359 
L 199.428877 394.542487 
L 201.971594 399.12967 
L 204.672853 403.625319 
L 207.529361 408.023957 
L 210.53764 412.320224 
L 213.694024 416.508887 
L 216.994667 420.584842 
L 220.435549 424.543123 
L 224.012476 428.378908 
L 227.721092 432.087524 
L 231.556877 435.664451 
L 235.515158 439.105333 
L 239.591113 442.405976 
L 243.779776 445.56236 
L 248.076043 448.570639 
L 252.474681 451.427147 
L 256.97033 454.128406 
L 261.557513 456.671123 
L 266.230641 459.0522 
L 270.98402 461.268738 
L 275.81186 463.318034 
L 280.708279 465.197593 
L 285.66731 466.905125 
L 290.682913 468.438548 
L 295.748976 469.795996 
L 300.859327 470.975813 
L 306.007739 471.976563 
L 311.187942 472.797027 
L 316.393622 473.436204 
L 321.618438 473.893316 
L 326.856025 474.167806 
L 332.1 474.25934 
L 337.343975 474.167806 
L 342.581562 473.893316 
L 347.806378 473.436204 
L 353.012058 472.797027 
L 358.192261 471.976563 
L 363.340673 470.975813 
L 368.451024 469.795996 
L 373.517087 468.438548 
L 378.53269 466.905125 
L 383.491721 465.197593 
L 388.38814 463.318034 
L 393.21598 461.268738 
L 397.969359 459.0522 
L 402.642487 456.671123 
L 407.22967 454.128406 
L 411.725319 451.427147 
L 416.123957 448.570639 
L 420.420224 445.56236 
L 424.608887 442.405976 
L 428.684842 439.105333 
L 432.643123 435.664451 
L 436.478908 432.087524 
L 440.187524 428.378908 
L 443.764451 424.543123 
L 447.205333 420.584842 
L 450.505976 416.508887 
L 453.66236 412.320224 
L 456.670639 408.023957 
L 459.527147 403.625319 
L 462.228406 399.12967 
L 464.771123 394.542487 
L 467.1522 389.869359 
L 469.368738 385.11598 
L 471.418034 380.28814 
L 473.297593 375.391721 
L 475.005125 370.43269 
L 476.538548 365.417087 
L 477.895996 360.351024 
L 479.075813 355.240673 
L 480.076563 350.092261 
L 480.897027 344.912058 
L 481.536204 339.706378 
L 481.993316 334.481562 
L 482.267806 329.243975 
L 482.35934 324 
L 482.35934 324 
" style="fill:none;stroke:#000000;stroke-dasharray:1.000000,3.000000;stroke-dashoffset:0.0;stroke-width:0.5;"/>
     </g>
     <g id="text_23">
      <!-- 0.6 -->
      <defs>
       <path d="M 33.015625 40.375 
Q 26.375 40.375 22.484375 35.828125 
Q 18.609375 31.296875 18.609375 23.390625 
Q 18.609375 15.53125 22.484375 10.953125 
Q 26.375 6.390625 33.015625 6.390625 
Q 39.65625 6.390625 43.53125 10.953125 
Q 47.40625 15.53125 47.40625 23.390625 
Q 47.40625 31.296875 43.53125 35.828125 
Q 39.65625 40.375 33.015625 40.375 
M 52.59375 71.296875 
L 52.59375 62.3125 
Q 48.875 64.0625 45.09375 64.984375 
Q 41.3125 65.921875 37.59375 65.921875 
Q 27.828125 65.921875 22.671875 59.328125 
Q 17.53125 52.734375 16.796875 39.40625 
Q 19.671875 43.65625 24.015625 45.921875 
Q 28.375 48.1875 33.59375 48.1875 
Q 44.578125 48.1875 50.953125 41.515625 
Q 57.328125 34.859375 57.328125 23.390625 
Q 57.328125 12.15625 50.6875 5.359375 
Q 44.046875 -1.421875 33.015625 -1.421875 
Q 20.359375 -1.421875 13.671875 8.265625 
Q 6.984375 17.96875 6.984375 36.375 
Q 6.984375 53.65625 15.1875 63.9375 
Q 23.390625 74.21875 37.203125 74.21875 
Q 40.921875 74.21875 44.703125 73.484375 
Q 48.484375 72.75 52.59375 71.296875 
" id="BitstreamVeraSans-Roman-36"/>
      </defs>
      <g transform="translate(470.921528949 264.00261496)scale(0.12 -0.12)">
       <use xlink:href="#BitstreamVeraSans-Roman-30"/>
       <use x="63.623046875" xlink:href="#BitstreamVeraSans-Roman-2e"/>
       <use x="95.41015625" xlink:href="#BitstreamVeraSans-Roman-36"/>
      </g>
     </g>
    </g>
    <g id="ytick_4">
     <g id="line2d_25">
      <path clip-path="url(#p2bae3c7a1c)" d="M 532.958301 324 
L 532.835943 316.990146 
L 532.46902 309.988833 
L 531.857978 303.00459 
L 531.003562 296.045927 
L 529.906812 289.121322 
L 528.569065 282.239211 
L 526.991951 275.407979 
L 525.177391 268.635949 
L 523.127596 261.931372 
L 520.845063 255.302415 
L 518.332574 248.757156 
L 515.593188 242.303569 
L 512.630245 235.949516 
L 509.447353 229.70274 
L 506.048391 223.57085 
L 502.4375 217.561317 
L 498.619078 211.681464 
L 494.597779 205.938453 
L 490.378501 200.339282 
L 485.966385 194.890773 
L 481.366807 189.599563 
L 476.58537 184.4721 
L 471.6279 179.51463 
L 466.500437 174.733193 
L 461.209227 170.133615 
L 455.760718 165.721499 
L 450.161547 161.502221 
L 444.418536 157.480922 
L 438.538683 153.6625 
L 432.52915 150.051609 
L 426.39726 146.652647 
L 420.150484 143.469755 
L 413.796431 140.506812 
L 407.342844 137.767426 
L 400.797585 135.254937 
L 394.168628 132.972404 
L 387.464051 130.922609 
L 380.692021 129.108049 
L 373.860789 127.530935 
L 366.978678 126.193188 
L 360.054073 125.096438 
L 353.09541 124.242022 
L 346.111167 123.63098 
L 339.109854 123.264057 
L 332.1 123.141699 
L 325.090146 123.264057 
L 318.088833 123.63098 
L 311.10459 124.242022 
L 304.145927 125.096438 
L 297.221322 126.193188 
L 290.339211 127.530935 
L 283.507979 129.108049 
L 276.735949 130.922609 
L 270.031372 132.972404 
L 263.402415 135.254937 
L 256.857156 137.767426 
L 250.403569 140.506812 
L 244.049516 143.469755 
L 237.80274 146.652647 
L 231.67085 150.051609 
L 225.661317 153.6625 
L 219.781464 157.480922 
L 214.038453 161.502221 
L 208.439282 165.721499 
L 202.990773 170.133615 
L 197.699563 174.733193 
L 192.5721 179.51463 
L 187.61463 184.4721 
L 182.833193 189.599563 
L 178.233615 194.890773 
L 173.821499 200.339282 
L 169.602221 205.938453 
L 165.580922 211.681464 
L 161.7625 217.561317 
L 158.151609 223.57085 
L 154.752647 229.70274 
L 151.569755 235.949516 
L 148.606812 242.303569 
L 145.867426 248.757156 
L 143.354937 255.302415 
L 141.072404 261.931372 
L 139.022609 268.635949 
L 137.208049 275.407979 
L 135.630935 282.239211 
L 134.293188 289.121322 
L 133.196438 296.045927 
L 132.342022 303.00459 
L 131.73098 309.988833 
L 131.364057 316.990146 
L 131.241699 324 
L 131.364057 331.009854 
L 131.73098 338.011167 
L 132.342022 344.99541 
L 133.196438 351.954073 
L 134.293188 358.878678 
L 135.630935 365.760789 
L 137.208049 372.592021 
L 139.022609 379.364051 
L 141.072404 386.068628 
L 143.354937 392.697585 
L 145.867426 399.242844 
L 148.606812 405.696431 
L 151.569755 412.050484 
L 154.752647 418.29726 
L 158.151609 424.42915 
L 161.7625 430.438683 
L 165.580922 436.318536 
L 169.602221 442.061547 
L 173.821499 447.660718 
L 178.233615 453.109227 
L 182.833193 458.400437 
L 187.61463 463.5279 
L 192.5721 468.48537 
L 197.699563 473.266807 
L 202.990773 477.866385 
L 208.439282 482.278501 
L 214.038453 486.497779 
L 219.781464 490.519078 
L 225.661317 494.3375 
L 231.67085 497.948391 
L 237.80274 501.347353 
L 244.049516 504.530245 
L 250.403569 507.493188 
L 256.857156 510.232574 
L 263.402415 512.745063 
L 270.031372 515.027596 
L 276.735949 517.077391 
L 283.507979 518.891951 
L 290.339211 520.469065 
L 297.221322 521.806812 
L 304.145927 522.903562 
L 311.10459 523.757978 
L 318.088833 524.36902 
L 325.090146 524.735943 
L 332.1 524.858301 
L 339.109854 524.735943 
L 346.111167 524.36902 
L 353.09541 523.757978 
L 360.054073 522.903562 
L 366.978678 521.806812 
L 373.860789 520.469065 
L 380.692021 518.891951 
L 387.464051 517.077391 
L 394.168628 515.027596 
L 400.797585 512.745063 
L 407.342844 510.232574 
L 413.796431 507.493188 
L 420.150484 504.530245 
L 426.39726 501.347353 
L 432.52915 497.948391 
L 438.538683 494.3375 
L 444.418536 490.519078 
L 450.161547 486.497779 
L 455.760718 482.278501 
L 461.209227 477.866385 
L 466.500437 473.266807 
L 471.6279 468.48537 
L 476.58537 463.5279 
L 481.366807 458.400437 
L 485.966385 453.109227 
L 490.378501 447.660718 
L 494.597779 442.061547 
L 498.619078 436.318536 
L 502.4375 430.438683 
L 506.048391 424.42915 
L 509.447353 418.29726 
L 512.630245 412.050484 
L 515.593188 405.696431 
L 518.332574 399.242844 
L 520.845063 392.697585 
L 523.127596 386.068628 
L 525.177391 379.364051 
L 526.991951 372.592021 
L 528.569065 365.760789 
L 529.906812 358.878678 
L 531.003562 351.954073 
L 531.857978 344.99541 
L 532.46902 338.011167 
L 532.835943 331.009854 
L 532.958301 324 
L 532.958301 324 
" style="fill:none;stroke:#000000;stroke-dasharray:1.000000,3.000000;stroke-dashoffset:0.0;stroke-width:0.5;"/>
     </g>
     <g id="text_24">
      <!-- 0.8 -->
      <defs>
       <path d="M 31.78125 34.625 
Q 24.75 34.625 20.71875 30.859375 
Q 16.703125 27.09375 16.703125 20.515625 
Q 16.703125 13.921875 20.71875 10.15625 
Q 24.75 6.390625 31.78125 6.390625 
Q 38.8125 6.390625 42.859375 10.171875 
Q 46.921875 13.96875 46.921875 20.515625 
Q 46.921875 27.09375 42.890625 30.859375 
Q 38.875 34.625 31.78125 34.625 
M 21.921875 38.8125 
Q 15.578125 40.375 12.03125 44.71875 
Q 8.5 49.078125 8.5 55.328125 
Q 8.5 64.0625 14.71875 69.140625 
Q 20.953125 74.21875 31.78125 74.21875 
Q 42.671875 74.21875 48.875 69.140625 
Q 55.078125 64.0625 55.078125 55.328125 
Q 55.078125 49.078125 51.53125 44.71875 
Q 48 40.375 41.703125 38.8125 
Q 48.828125 37.15625 52.796875 32.3125 
Q 56.78125 27.484375 56.78125 20.515625 
Q 56.78125 9.90625 50.3125 4.234375 
Q 43.84375 -1.421875 31.78125 -1.421875 
Q 19.734375 -1.421875 13.25 4.234375 
Q 6.78125 9.90625 6.78125 20.515625 
Q 6.78125 27.484375 10.78125 32.3125 
Q 14.796875 37.15625 21.921875 38.8125 
M 18.3125 54.390625 
Q 18.3125 48.734375 21.84375 45.5625 
Q 25.390625 42.390625 31.78125 42.390625 
Q 38.140625 42.390625 41.71875 45.5625 
Q 45.3125 48.734375 45.3125 54.390625 
Q 45.3125 60.0625 41.71875 63.234375 
Q 38.140625 66.40625 31.78125 66.40625 
Q 25.390625 66.40625 21.84375 63.234375 
Q 18.3125 60.0625 18.3125 54.390625 
" id="BitstreamVeraSans-Roman-38"/>
      </defs>
      <g transform="translate(517.668873017 244.639231042)scale(0.12 -0.12)">
       <use xlink:href="#BitstreamVeraSans-Roman-30"/>
       <use x="63.623046875" xlink:href="#BitstreamVeraSans-Roman-2e"/>
       <use x="95.41015625" xlink:href="#BitstreamVeraSans-Roman-38"/>
      </g>
     </g>
    </g>
   </g>
  </g>
 </g>
 <defs>
  <clipPath id="p2bae3c7a1c">
   <path d="M 332.1 575.1 
C 398.692498 575.1 462.566506 548.64252 509.654513 501.554513 
C 556.74252 454.466506 583.2 390.592498 583.2 324 
C 583.2 257.407502 556.74252 193.533494 509.654513 146.445487 
C 462.566506 99.35748 398.692498 72.9 332.1 72.9 
C 265.507502 72.9 201.633494 99.35748 154.545487 146.445487 
C 107.45748 193.533494 81 257.407502 81 324 
C 81 390.592498 107.45748 454.466506 154.545487 501.554513 
C 201.633494 548.64252 265.507502 575.1 332.1 575.1 
z
"/>
  </clipPath>
 </defs>
</svg>
